<svg width="46" height="21" viewBox="0 0 55 21" fill="none" xmlns="http://www.w3.org/2000/svg">
<g style="mix-blend-mode:luminosity" clip-path="url(#clip0)">
<path fill-rule="evenodd" clip-rule="evenodd" d="M8.42189 12.6661L8.44325 12.473C8.68171 11.2709 8.11847 10.7557 6.34112 10.7557C4.62873 10.7557 3.87018 11.2709 3.65352 12.473L3.61037 12.6875C3.3719 13.89 4.15225 14.427 5.69069 14.427C7.27318 14.427 8.22658 13.6965 8.42189 12.6661ZM14.4684 11.7861L16.5061 0.363923C16.5242 0.261952 16.5777 0.16962 16.6571 0.103089C16.7364 0.0365569 16.8367 6.48123e-05 16.9403 0L19.3178 0C19.3822 6.32848e-05 19.4458 0.0142193 19.5041 0.0414746C19.5625 0.0687299 19.6142 0.108424 19.6555 0.157771C19.6969 0.207119 19.727 0.264923 19.7436 0.327129C19.7603 0.389334 19.7632 0.454433 19.752 0.517856L19.0851 4.29367C19.9086 3.69262 20.8188 3.26329 22.4881 3.26329C25.7389 3.26329 27.0176 5.40991 26.5624 7.96449L25.8039 12.1723C25.262 15.2421 23.4633 16.7236 19.4535 16.7236C15.6826 16.7236 13.9484 14.6414 14.4684 11.7861ZM22.6398 11.6571L23.2466 8.28659C23.4847 6.95547 22.9646 6.05411 21.209 6.05411C19.4321 6.05411 18.6082 6.95547 18.3697 8.28659L17.7629 11.6571C17.5244 12.9882 18.0449 13.89 19.8218 13.89C21.5774 13.89 22.4013 12.9882 22.6398 11.6571ZM39.9132 10.8843H31.5693L31.3958 11.9147C31.2004 13.0527 31.547 14.0831 33.6282 14.0831C35.4269 14.0831 36.294 13.5679 36.4889 12.4948C36.4949 12.4645 36.5112 12.4371 36.5352 12.4175C36.5591 12.3978 36.5892 12.3871 36.6201 12.3872H39.2192C39.273 12.3872 39.3261 12.3989 39.3749 12.4213C39.4238 12.4437 39.4672 12.4764 39.5022 12.5172C39.5373 12.5579 39.5631 12.6058 39.578 12.6574C39.5929 12.7091 39.5965 12.7633 39.5885 12.8165C39.1333 15.3497 37.3342 16.7236 33.368 16.7236C29.4449 16.7236 27.7547 14.5983 28.253 11.872L28.9466 7.90042C29.5316 4.80886 31.3308 3.26329 35.3402 3.26329C39.1983 3.26329 40.9102 5.3454 40.412 8.13666L39.9137 10.8843H39.9132ZM32.0675 8.11486L31.9594 8.78042H37.1393L37.2692 8.0935C37.5077 6.71967 36.9445 5.90374 35.0804 5.90374C33.1513 5.90374 32.306 6.80554 32.0675 8.11486ZM47.4991 12.9024C49.2765 12.9024 50.1 12.0006 50.3384 10.7126L50.7504 8.32974C50.9884 7.01998 50.4683 6.13998 48.7128 6.13998C46.9572 6.13998 46.1337 7.01998 45.8953 8.32974L45.4837 10.7126C45.2453 12.0006 45.7436 12.9024 47.4991 12.9024ZM49.0162 3.26329C52.7876 3.26329 54.5649 5.38855 54.0444 8.28659L52.6577 16.058C52.0068 19.6002 49.9914 20.91 46.459 20.91H46.0906C42.9479 20.91 40.9102 19.3426 41.2355 16.7881C41.2477 16.7218 41.2828 16.662 41.3345 16.6189C41.3863 16.5759 41.4515 16.5523 41.5189 16.5523H44.3782C44.2047 17.5395 44.9201 18.2264 46.4372 18.2264C48.3662 18.2264 49.1679 17.3464 49.3846 16.1225L49.688 14.5124C48.8649 15.1566 47.976 15.5214 46.2423 15.5214C43.2513 15.5214 41.7124 13.4821 42.2107 10.6699L42.6876 7.94313C43.2295 4.87336 45.0282 3.26285 49.0162 3.26285V3.26329ZM9.85578 1.69238C9.92287 1.69244 9.98905 1.70781 10.0493 1.73729C10.1096 1.76678 10.1623 1.80961 10.2035 1.86254C10.2447 1.91547 10.2734 1.9771 10.2872 2.04274C10.301 2.10838 10.2997 2.17632 10.2833 2.24137L9.95455 3.54669C11.9432 4.19179 12.9109 5.87705 12.5394 7.96449L11.7595 12.344C11.279 15.0236 9.71742 16.2702 7.28964 16.6301L7.00046 17.7757C6.97647 17.8711 6.92134 17.9557 6.84381 18.0161C6.76628 18.0766 6.67078 18.1094 6.57247 18.1094H3.97607C3.9089 18.1094 3.84261 18.0941 3.78226 18.0646C3.7219 18.0351 3.66908 17.9923 3.6278 17.9393C3.58652 17.8863 3.55789 17.8246 3.54407 17.7588C3.53026 17.6931 3.53163 17.6251 3.54808 17.56L3.77898 16.6457C1.39569 16.26 0.059226 14.7856 0.33684 12.7306L0.380439 12.4299C0.683857 10.0897 2.2877 8.71591 6.03726 8.71591C7.46759 8.71591 8.52955 8.93079 9.02828 9.20974L9.22314 8.07215C9.46161 6.82689 8.89837 5.9896 7.29409 5.9896C5.95051 5.9896 4.9753 6.44028 4.78044 7.57787H1.65906C2.02921 4.97213 3.45154 3.5636 6.50796 3.30645L6.8314 2.02516C6.85555 1.92998 6.91075 1.84558 6.98827 1.7853C7.06579 1.72503 7.16119 1.69233 7.25938 1.69238H9.85534H9.85578Z" fill="#101010"/>
</g>
<defs>
<clipPath id="clip0">
<rect width="53.8321" height="20.91" fill="white" transform="translate(0.303467)"/>
</clipPath>
</defs>
</svg>
