<svg width="19" height="24" viewBox="0 0 19 24" fill="none" xmlns="http://www.w3.org/2000/svg">
    <path d="M0 24C0 21.5752 0.972525 19.2496 2.70363 17.535C4.43473 15.8204 6.78262 14.8571 9.23077 14.8571C11.6789 14.8571 14.0268 15.8204 15.7579 17.535C17.489 19.2496 18.4615 21.5752 18.4615 24H16.1538C16.1538 22.1814 15.4245 20.4372 14.1261 19.1513C12.8278 17.8653 11.0669 17.1429 9.23077 17.1429C7.39466 17.1429 5.63374 17.8653 4.33541 19.1513C3.03709 20.4372 2.30769 22.1814 2.30769 24H0ZM9.23077 13.7143C5.40577 13.7143 2.30769 10.6457 2.30769 6.85714C2.30769 3.06857 5.40577 0 9.23077 0C13.0558 0 16.1538 3.06857 16.1538 6.85714C16.1538 10.6457 13.0558 13.7143 9.23077 13.7143ZM9.23077 11.4286C11.7808 11.4286 13.8462 9.38286 13.8462 6.85714C13.8462 4.33143 11.7808 2.28571 9.23077 2.28571C6.68077 2.28571 4.61538 4.33143 4.61538 6.85714C4.61538 9.38286 6.68077 11.4286 9.23077 11.4286Z" fill="black"/>
</svg>