<svg width="153" height="44" viewBox="0 0 153 44" fill="none" xmlns="http://www.w3.org/2000/svg">
<path d="M151.462 38.9257C151.462 41.2705 149.523 43.1698 147.124 43.1698H5.18896C2.79186 43.1698 0.846134 41.2705 0.846134 38.9257V5.0799C0.846134 2.73619 2.79186 0.8302 5.18896 0.8302H147.123C149.523 0.8302 151.46 2.73619 151.46 5.0799L151.462 38.9257Z" fill="black"/>
<path d="M146.667 0.881381C149.278 0.881381 151.404 2.9535 151.404 5.50001V38.5C151.404 41.0465 149.278 43.1186 146.667 43.1186H5.64103C3.02923 43.1186 0.903974 41.0465 0.903974 38.5V5.50001C0.903974 2.9535 3.02923 0.881381 5.64103 0.881381H146.667ZM146.667 7.04954e-06H5.64103C2.53987 7.04954e-06 0 2.47638 0 5.50001V38.5C0 41.5236 2.53987 44 5.64103 44H146.667C149.768 44 152.308 41.5236 152.308 38.5V5.50001C152.308 2.47638 149.768 7.04954e-06 146.667 7.04954e-06Z" fill="#A6A6A6"/>
<path d="M33.9906 21.7624C33.9579 18.2171 36.9679 16.4923 37.1056 16.412C35.4008 13.9887 32.7586 13.6576 31.8301 13.6312C29.6109 13.4035 27.4583 14.9259 26.3278 14.9259C25.1748 14.9259 23.434 13.6532 21.5578 13.6906C19.1434 13.7269 16.8847 15.0898 15.646 17.2062C13.0895 21.5215 14.9961 27.863 17.4455 31.3511C18.6707 33.0594 20.1024 34.9668 21.9763 34.8997C23.8097 34.826 24.4945 33.7601 26.7069 33.7601C28.899 33.7601 29.5421 34.8997 31.4533 34.8568C33.4208 34.826 34.6596 33.1408 35.842 31.4171C37.2579 29.4591 37.8265 27.5308 37.849 27.4318C37.8028 27.4164 34.0278 26.0117 33.9906 21.7624Z" fill="white"/>
<path d="M30.3803 11.3366C31.3664 10.1343 32.041 8.49858 31.8538 6.83868C30.4266 6.90028 28.6418 7.80118 27.614 8.97708C26.7046 10.0133 25.8923 11.7117 26.1022 13.3089C27.7054 13.4255 29.3514 12.5202 30.3803 11.3366Z" fill="white"/>
<path d="M60.5225 34.6544H57.9604L56.5569 30.3545H51.6786L50.3416 34.6544H47.8472L52.6804 20.0156H55.6656L60.5225 34.6544ZM56.1338 28.5505L54.8646 24.728C54.7303 24.3375 54.4788 23.4179 54.1076 21.9703H54.0624C53.9147 22.5929 53.6766 23.5125 53.3494 24.728L52.1028 28.5505H56.1338Z" fill="white"/>
<path d="M72.952 29.2468C72.952 31.042 72.4544 32.461 71.4594 33.5027C70.5681 34.43 69.4613 34.8931 68.1402 34.8931C66.7141 34.8931 65.6897 34.3937 65.0658 33.3949H65.0207V38.9554H62.6154V27.5737C62.6154 26.4451 62.5849 25.2868 62.5262 24.0988H64.6416L64.7759 25.7719H64.821C65.6232 24.5113 66.8405 23.8821 68.4741 23.8821C69.7513 23.8821 70.8174 24.3738 71.6703 25.3583C72.5255 26.3439 72.952 27.6397 72.952 29.2468ZM70.5015 29.3326C70.5015 28.3052 70.2646 27.4582 69.7885 26.7916C69.2684 26.0964 68.57 25.7488 67.6946 25.7488C67.1011 25.7488 66.5618 25.9424 66.0801 26.3241C65.5972 26.7091 65.2813 27.2118 65.1335 27.8344C65.0591 28.1248 65.0218 28.3624 65.0218 28.5494V30.3094C65.0218 31.0772 65.2633 31.7251 65.7461 32.2542C66.229 32.7833 66.8563 33.0473 67.628 33.0473C68.5339 33.0473 69.2391 32.7063 69.7434 32.0265C70.2488 31.3456 70.5015 30.448 70.5015 29.3326Z" fill="white"/>
<path d="M85.404 29.2468C85.404 31.042 84.9065 32.461 83.9103 33.5027C83.0201 34.43 81.9133 34.8931 80.5922 34.8931C79.1661 34.8931 78.1417 34.3937 77.519 33.3949H77.4738V38.9554H75.0685V27.5737C75.0685 26.4451 75.038 25.2868 74.9794 24.0988H77.0948L77.229 25.7719H77.2741C78.0752 24.5113 79.2925 23.8821 80.9273 23.8821C82.2033 23.8821 83.2694 24.3738 84.1246 25.3583C84.9764 26.3439 85.404 27.6397 85.404 29.2468ZM82.9535 29.3326C82.9535 28.3052 82.7155 27.4582 82.2394 26.7916C81.7193 26.0964 81.0232 25.7488 80.1466 25.7488C79.552 25.7488 79.0138 25.9424 78.531 26.3241C78.0481 26.7091 77.7333 27.2118 77.5855 27.8344C77.5122 28.1248 77.4738 28.3624 77.4738 28.5494V30.3094C77.4738 31.0772 77.7153 31.7251 78.1959 32.2542C78.6788 32.7822 79.306 33.0473 80.08 33.0473C80.9859 33.0473 81.6911 32.7063 82.1954 32.0265C82.7008 31.3456 82.9535 30.448 82.9535 29.3326Z" fill="white"/>
<path d="M99.326 30.5492C99.326 31.7944 98.8826 32.8075 97.9925 33.5896C97.0143 34.4443 95.6526 34.8711 93.9028 34.8711C92.2872 34.8711 90.992 34.5675 90.0116 33.9592L90.5689 32.0045C91.6249 32.6271 92.7836 32.9395 94.046 32.9395C94.952 32.9395 95.6571 32.7393 96.1637 32.3411C96.668 31.9429 96.9196 31.4083 96.9196 30.7417C96.9196 30.1477 96.712 29.6472 96.2957 29.2413C95.8816 28.8354 95.19 28.4581 94.2243 28.1094C91.5956 27.1535 90.2823 25.7532 90.2823 23.9118C90.2823 22.7084 90.7426 21.7217 91.6644 20.9539C92.5828 20.185 93.808 19.8011 95.3401 19.8011C96.7063 19.8011 97.8413 20.0332 98.7473 20.4963L98.1459 22.4081C97.2998 21.9593 96.3431 21.7349 95.2724 21.7349C94.4262 21.7349 93.7651 21.9384 93.2913 22.3432C92.8908 22.7051 92.6899 23.1462 92.6899 23.6687C92.6899 24.2473 92.919 24.7258 93.3793 25.102C93.7798 25.4496 94.5075 25.8258 95.5635 26.2317C96.8553 26.7388 97.8041 27.3317 98.4144 28.0115C99.0225 28.6891 99.326 29.5372 99.326 30.5492Z" fill="white"/>
<path d="M107.279 25.8588H104.627V30.9837C104.627 32.2872 105.095 32.9384 106.031 32.9384C106.461 32.9384 106.817 32.9021 107.099 32.8295L107.166 34.6104C106.692 34.7831 106.068 34.87 105.295 34.87C104.345 34.87 103.603 34.5873 103.067 34.023C102.534 33.4576 102.265 32.5094 102.265 31.1773V25.8566H100.686V24.0966H102.265V22.1639L104.627 21.4687V24.0966H107.279V25.8588Z" fill="white"/>
<path d="M119.241 29.2897C119.241 30.9122 118.765 32.2443 117.815 33.286C116.819 34.3585 115.497 34.8931 113.848 34.8931C112.26 34.8931 110.995 34.3794 110.052 33.352C109.109 32.3246 108.637 31.0277 108.637 29.4646C108.637 27.8289 109.122 26.4891 110.096 25.4474C111.067 24.4046 112.378 23.8832 114.027 23.8832C115.615 23.8832 116.893 24.3969 117.858 25.4254C118.781 26.4231 119.241 27.7112 119.241 29.2897ZM116.746 29.3656C116.746 28.3921 116.532 27.5572 116.1 26.8609C115.596 26.0183 114.875 25.5981 113.941 25.5981C112.974 25.5981 112.239 26.0194 111.735 26.8609C111.303 27.5583 111.09 28.4064 111.09 29.4096C111.09 30.3831 111.303 31.218 111.735 31.9132C112.255 32.7558 112.982 33.176 113.919 33.176C114.838 33.176 115.559 32.747 116.079 31.8912C116.522 31.1817 116.746 30.338 116.746 29.3656Z" fill="white"/>
<path d="M127.06 26.1613C126.822 26.1184 126.568 26.0964 126.301 26.0964C125.455 26.0964 124.801 26.4077 124.341 27.0314C123.94 27.5814 123.739 28.2766 123.739 29.1159V34.6544H121.335L121.358 27.423C121.358 26.2064 121.327 25.0987 121.267 24.0999H123.362L123.45 26.1195H123.517C123.771 25.4254 124.171 24.8666 124.72 24.4475C125.256 24.0702 125.834 23.8821 126.458 23.8821C126.681 23.8821 126.881 23.8975 127.06 23.925V26.1613Z" fill="white"/>
<path d="M137.817 28.8771C137.817 29.2973 137.789 29.6515 137.729 29.9408H130.513C130.541 30.9836 130.89 31.7811 131.56 32.3311C132.168 32.8228 132.954 33.0692 133.92 33.0692C134.989 33.0692 135.963 32.9031 136.84 32.5698L137.217 34.1978C136.192 34.6334 134.983 34.8501 133.587 34.8501C131.909 34.8501 130.591 34.3683 129.632 33.4058C128.675 32.4433 128.196 31.1508 128.196 29.5294C128.196 27.9377 128.641 26.6122 129.534 25.5551C130.468 24.4265 131.73 23.8622 133.319 23.8622C134.879 23.8622 136.06 24.4265 136.863 25.5551C137.498 26.4516 137.817 27.5604 137.817 28.8771ZM135.523 28.2688C135.539 27.5736 135.382 26.973 135.056 26.4659C134.64 25.8136 134 25.488 133.14 25.488C132.353 25.488 131.713 25.8059 131.225 26.4439C130.824 26.951 130.586 27.5593 130.513 28.2677H135.523V28.2688Z" fill="white"/>
<path d="M55.3385 11.0099C55.3385 12.3046 54.9402 13.2792 54.1448 13.9337C53.4081 14.5376 52.3612 14.8401 51.005 14.8401C50.3326 14.8401 49.7572 14.8115 49.2755 14.7543V7.68024C49.9039 7.58124 50.5808 7.53064 51.3119 7.53064C52.6037 7.53064 53.5774 7.80454 54.234 8.35234C54.9696 8.97164 55.3385 9.85714 55.3385 11.0099ZM54.0918 11.0418C54.0918 10.2025 53.8639 9.55904 53.4081 9.11024C52.9523 8.66254 52.2867 8.43814 51.4101 8.43814C51.0378 8.43814 50.7207 8.46234 50.4579 8.51294V13.8908C50.6034 13.9128 50.8697 13.9227 51.2566 13.9227C52.1615 13.9227 52.8598 13.6774 53.3517 13.1868C53.8436 12.6962 54.0918 11.9812 54.0918 11.0418Z" fill="white"/>
<path d="M61.9487 12.1407C61.9487 12.9382 61.7151 13.5916 61.248 14.1042C60.7584 14.6311 60.1097 14.894 59.2996 14.894C58.5189 14.894 57.8973 14.6421 57.4336 14.1361C56.971 13.6312 56.7397 12.9943 56.7397 12.2265C56.7397 11.4235 56.9778 10.7646 57.4561 10.2531C57.9345 9.74159 58.5776 9.48529 59.3876 9.48529C60.1683 9.48529 60.7956 9.73719 61.2706 10.2421C61.7219 10.7327 61.9487 11.3663 61.9487 12.1407ZM60.7223 12.1781C60.7223 11.6996 60.6162 11.2893 60.4053 10.9472C60.1571 10.5336 59.8039 10.3268 59.3448 10.3268C58.8698 10.3268 58.5088 10.5336 58.2606 10.9472C58.0484 11.2893 57.9435 11.7062 57.9435 12.199C57.9435 12.6775 58.0496 13.0878 58.2606 13.4299C58.5167 13.8435 58.8732 14.0503 59.3335 14.0503C59.7848 14.0503 60.139 13.8402 60.394 13.4189C60.6129 13.0702 60.7223 12.6566 60.7223 12.1781Z" fill="white"/>
<path d="M70.8118 9.59088L69.1477 14.7763H68.0646L67.3753 12.5246C67.2004 11.9625 67.0583 11.4037 66.9477 10.8493H66.9263C66.8236 11.4191 66.6815 11.9768 66.4987 12.5246L65.7665 14.7763H64.671L63.1062 9.59088H64.3212L64.9226 12.056C65.0681 12.639 65.1877 13.1945 65.2836 13.7203H65.305C65.393 13.2869 65.5386 12.7347 65.7439 12.067L66.4987 9.59198H67.4622L68.1853 12.0142C68.3602 12.6049 68.5024 13.1736 68.6118 13.7214H68.6445C68.7246 13.1879 68.8453 12.6192 69.0056 12.0142L69.6509 9.59198H70.8118V9.59088Z" fill="white"/>
<path d="M76.9413 14.7763H75.759V11.8063C75.759 10.8911 75.4025 10.4335 74.6872 10.4335C74.3363 10.4335 74.0532 10.5589 73.8332 10.8108C73.6154 11.0627 73.5048 11.3597 73.5048 11.6996V14.7752H72.3225V11.0726C72.3225 10.6172 72.3078 10.1233 72.2796 9.58869H73.3187L73.374 10.3994H73.4067C73.5443 10.1475 73.7497 9.9396 74.0193 9.7735C74.3397 9.5799 74.6985 9.48199 75.0911 9.48199C75.5875 9.48199 76.0004 9.63819 76.3287 9.95169C76.7371 10.3356 76.9413 10.9087 76.9413 11.6699V14.7763Z" fill="white"/>
<path d="M80.2019 14.7763H79.0207V7.21161H80.2019V14.7763Z" fill="white"/>
<path d="M87.1629 12.1407C87.1629 12.9382 86.9294 13.5916 86.4623 14.1042C85.9726 14.6311 85.3228 14.894 84.5139 14.894C83.732 14.894 83.1104 14.6421 82.6478 14.1361C82.1852 13.6312 81.954 12.9943 81.954 12.2265C81.954 11.4235 82.192 10.7646 82.6704 10.2531C83.1487 9.74159 83.7918 9.48529 84.6007 9.48529C85.3826 9.48529 86.0087 9.73719 86.4848 10.2421C86.9361 10.7327 87.1629 11.3663 87.1629 12.1407ZM85.9354 12.1781C85.9354 11.6996 85.8294 11.2893 85.6184 10.9472C85.3713 10.5336 85.017 10.3268 84.559 10.3268C84.0829 10.3268 83.7219 10.5336 83.4748 10.9472C83.2627 11.2893 83.1578 11.7062 83.1578 12.199C83.1578 12.6775 83.2638 13.0878 83.4748 13.4299C83.7309 13.8435 84.0874 14.0503 84.5477 14.0503C84.999 14.0503 85.3521 13.8402 85.6071 13.4189C85.8271 13.0702 85.9354 12.6566 85.9354 12.1781Z" fill="white"/>
<path d="M92.8851 14.7763H91.8235L91.7355 14.179H91.7028C91.3395 14.6553 90.8217 14.894 90.1493 14.894C89.6472 14.894 89.2411 14.7367 88.9353 14.4243C88.6578 14.1405 88.519 13.7874 88.519 13.3683C88.519 12.7347 88.7898 12.2518 89.3347 11.9174C89.8785 11.583 90.6434 11.4191 91.6283 11.4268V11.33C91.6283 10.6469 91.2605 10.3059 90.5238 10.3059C89.9992 10.3059 89.5366 10.4346 89.1373 10.6898L88.8969 9.93299C89.3911 9.63489 90.0015 9.48529 90.7213 9.48529C92.1112 9.48529 92.8084 10.2003 92.8084 11.6303V13.5399C92.8084 14.058 92.8344 14.4705 92.8851 14.7763ZM91.6577 12.9943V12.1946C90.3535 12.1726 89.7014 12.5213 89.7014 13.2396C89.7014 13.5102 89.7758 13.7126 89.9281 13.8479C90.0804 13.9832 90.2745 14.0503 90.5058 14.0503C90.7653 14.0503 91.0078 13.97 91.2289 13.8105C91.4512 13.6499 91.5877 13.4464 91.6385 13.1967C91.6509 13.1406 91.6577 13.0724 91.6577 12.9943Z" fill="white"/>
<path d="M99.6036 14.7763H98.5544L98.4991 13.9436H98.4664C98.1313 14.5772 97.5605 14.894 96.7583 14.894C96.1175 14.894 95.5838 14.6487 95.1608 14.1581C94.7377 13.6675 94.5267 13.0306 94.5267 12.2485C94.5267 11.4092 94.7557 10.7294 95.2161 10.2102C95.6617 9.72621 96.2077 9.48421 96.8576 9.48421C97.5717 9.48421 98.0715 9.71851 98.3558 10.1882H98.3784V7.21161H99.5619V13.3793C99.5619 13.8842 99.5754 14.3495 99.6036 14.7763ZM98.3784 12.5895V11.7249C98.3784 11.5753 98.3671 11.4543 98.3457 11.3619C98.2791 11.0847 98.1358 10.8515 97.9181 10.6634C97.6981 10.4753 97.433 10.3807 97.1272 10.3807C96.6861 10.3807 96.3409 10.5512 96.087 10.8933C95.8354 11.2354 95.7079 11.6721 95.7079 12.2056C95.7079 12.7182 95.8287 13.134 96.0712 13.4541C96.3273 13.7951 96.6726 13.9656 97.1047 13.9656C97.4928 13.9656 97.803 13.8237 98.0388 13.5388C98.2667 13.2759 98.3784 12.9591 98.3784 12.5895Z" fill="white"/>
<path d="M109.716 12.1407C109.716 12.9382 109.482 13.5916 109.015 14.1042C108.525 14.6311 107.878 14.894 107.067 14.894C106.287 14.894 105.665 14.6421 105.201 14.1361C104.738 13.6312 104.507 12.9943 104.507 12.2265C104.507 11.4235 104.745 10.7646 105.223 10.2531C105.702 9.74159 106.345 9.48529 107.156 9.48529C107.935 9.48529 108.564 9.73719 109.038 10.2421C109.489 10.7327 109.716 11.3663 109.716 12.1407ZM108.49 12.1781C108.49 11.6996 108.384 11.2893 108.173 10.9472C107.924 10.5336 107.572 10.3268 107.112 10.3268C106.638 10.3268 106.277 10.5336 106.028 10.9472C105.815 11.2893 105.711 11.7062 105.711 12.199C105.711 12.6775 105.817 13.0878 106.028 13.4299C106.284 13.8435 106.64 14.0503 107.101 14.0503C107.552 14.0503 107.907 13.8402 108.162 13.4189C108.38 13.0702 108.49 12.6566 108.49 12.1781Z" fill="white"/>
<path d="M116.073 14.7763H114.892V11.8063C114.892 10.8911 114.535 10.4335 113.819 10.4335C113.468 10.4335 113.185 10.5589 112.966 10.8108C112.747 11.0627 112.638 11.3597 112.638 11.6996V14.7752H111.454V11.0726C111.454 10.6172 111.441 10.1233 111.413 9.58869H112.45L112.506 10.3994H112.538C112.677 10.1475 112.883 9.9396 113.151 9.7735C113.473 9.5799 113.83 9.48199 114.224 9.48199C114.719 9.48199 115.132 9.63819 115.461 9.95169C115.87 10.3356 116.073 10.9087 116.073 11.6699V14.7763Z" fill="white"/>
<path d="M124.03 10.4544H122.728V12.9734C122.728 13.6136 122.96 13.9337 123.418 13.9337C123.63 13.9337 123.806 13.9161 123.945 13.8798L123.975 14.7543C123.742 14.8401 123.435 14.883 123.057 14.883C122.59 14.883 122.226 14.7444 121.963 14.4672C121.699 14.19 121.569 13.7236 121.569 13.0691V10.4544H120.791V9.5909H121.569V8.6405L122.727 8.2995V9.5898H124.029V10.4544H124.03Z" fill="white"/>
<path d="M130.29 14.7763H129.106V11.8283C129.106 10.8988 128.75 10.4335 128.036 10.4335C127.487 10.4335 127.113 10.703 126.907 11.242C126.872 11.3553 126.852 11.4939 126.852 11.6567V14.7752H125.671V7.21161H126.852V10.3367H126.875C127.247 9.76801 127.781 9.48421 128.472 9.48421C128.962 9.48421 129.367 9.64041 129.688 9.95391C130.089 10.3444 130.29 10.9252 130.29 11.693V14.7763Z" fill="white"/>
<path d="M136.746 11.9383C136.746 12.1451 136.731 12.3189 136.702 12.4608H133.156C133.172 12.9734 133.341 13.3639 133.67 13.6345C133.97 13.8765 134.357 13.9975 134.831 13.9975C135.355 13.9975 135.834 13.9161 136.265 13.7522L136.45 14.553C135.945 14.7664 135.352 14.8731 134.665 14.8731C133.841 14.8731 133.193 14.6366 132.723 14.1636C132.252 13.6906 132.018 13.0559 132.018 12.2595C132.018 11.4774 132.236 10.8262 132.675 10.307C133.133 9.7526 133.752 9.4754 134.534 9.4754C135.299 9.4754 135.88 9.7526 136.273 10.307C136.59 10.747 136.746 11.2915 136.746 11.9383ZM135.618 11.6402C135.627 11.2981 135.549 11.0033 135.389 10.7547C135.184 10.4346 134.871 10.274 134.448 10.274C134.062 10.274 133.748 10.4302 133.507 10.7437C133.311 10.9934 133.195 11.2915 133.156 11.6402H135.618Z" fill="white"/>
</svg>
