<svg width="42" height="40" viewBox="0 0 42 40" fill="none" xmlns="http://www.w3.org/2000/svg">
<path d="M39.2972 11.7742C44.356 8.14447 41.8067 0.0181289 35.4975 0C29.1884 0.018293 26.6394 8.14562 31.6982 11.7742C30.0626 12.9563 28.9953 14.8783 28.9953 17.0461C29.1099 25.1384 19.8804 30.3964 13.0047 26.2243V17.0461C13.0047 14.8783 11.9374 12.9563 10.3018 11.7742C15.3607 8.14447 12.8114 0.0181289 6.50221 0C0.193019 0.018293 -2.35594 8.14562 2.70285 11.7742C1.06731 12.9563 0 14.8783 0 17.0461V38.1335C0 38.8131 0.550922 39.364 1.23047 39.364H11.7742C12.4537 39.364 13.0047 38.8131 13.0047 38.1335V34.6116C18.3119 36.2803 24.5031 35.2868 28.9953 32.0185V38.1335C28.9953 38.8131 29.5463 39.364 30.2258 39.364H40.7695C41.4491 39.364 42 38.8131 42 38.1335V17.0461C42 14.8783 40.9327 12.9563 39.2972 11.7742ZM10.5437 17.0447V24.2461C8.75397 22.3041 7.73276 19.7466 7.73276 17.0461C7.73276 15.2811 6.54404 13.7886 4.92507 13.327C7.48962 12.1856 10.5904 14.1683 10.5437 17.0447ZM2.46094 6.50229C2.46094 4.27383 4.27391 2.46086 6.50237 2.46086C11.8565 2.66405 11.855 10.3413 6.50229 10.5436C4.27391 10.5437 2.46094 8.73075 2.46094 6.50229ZM10.5437 36.9031H2.46094V26.2296C4.98209 30.5803 8.52272 32.7115 10.5437 33.6639V36.9031ZM18.364 32.9492C9.59503 32.9492 2.46094 25.8151 2.46094 17.0461C2.46094 16.2711 3.09151 15.6407 3.86646 15.6407C4.64141 15.6407 5.2719 16.2711 5.2719 17.0461C5.2719 24.2652 11.145 30.1383 18.3641 30.1383C20.22 30.205 20.2305 32.8777 18.364 32.9492ZM28.9953 28.8688C27.0144 30.6529 24.6535 31.8915 22.1095 32.5055C22.357 31.583 22.2152 30.5028 21.7577 29.6924C24.7105 28.8991 27.2548 27.0966 28.9953 24.679V28.8688ZM31.4563 6.50229C31.4563 4.27383 33.2692 2.46086 35.4977 2.46086C40.8518 2.66405 40.8503 10.3413 35.4976 10.5436C33.2692 10.5437 31.4563 8.73075 31.4563 6.50229ZM34.2672 17.0461V36.9031H31.4562V17.0461C31.4094 14.2004 34.4899 12.1723 37.0788 13.3271C35.4581 13.7874 34.2672 15.2798 34.2672 17.0461ZM39.5391 36.9031H36.7281V17.0461C36.7281 16.2711 37.3586 15.6407 38.1335 15.6407C38.9085 15.6407 39.5391 16.2711 39.5391 17.0461V36.9031Z" fill="url(#paint0_linear)"/>
<defs>
<linearGradient id="paint0_linear" x1="21" y1="0" x2="21" y2="39.364" gradientUnits="userSpaceOnUse">
<stop stop-color="#008ADB"/>
<stop offset="1" stop-color="#00A8B3"/>
</linearGradient>
</defs>
</svg>
