<svg width="100" height="19" viewBox="0 0 100 19" fill="none" xmlns="http://www.w3.org/2000/svg">
<g style="mix-blend-mode:luminosity" clip-path="url(#clip0)">
<path d="M9.16097 0.398193H4.02673L4.0169 0.416045L3.30831 1.7068H9.16097C13.4963 1.7068 17.013 5.2224 17.013 9.55917C17.013 13.8959 13.4974 17.4115 9.16097 17.4115C4.82457 17.4115 1.30861 13.8956 1.30861 9.55917C1.30825 8.73883 1.43672 7.92353 1.68931 7.14305H3.18845C2.12573 9.7692 2.90317 12.7814 5.10409 14.5652C7.30501 16.349 10.4129 16.4858 12.7621 14.9023C15.1112 13.3188 16.1503 10.3865 15.3224 7.67715C14.4946 4.96779 11.994 3.11712 9.16097 3.11705H2.53451L1.81646 4.42529H9.16097C11.4681 4.42576 13.4915 5.96547 14.107 8.18902C14.7225 10.4126 13.7789 12.7736 11.8004 13.9604C9.82186 15.1472 7.29463 14.8681 5.62269 13.2783C3.95075 11.6884 3.54497 9.17839 4.63076 7.14269H6.32918C5.19552 8.47352 5.14068 10.4139 6.19737 11.8066C7.25406 13.1994 9.13753 13.6691 10.7245 12.9358C12.3115 12.2024 13.1743 10.4636 12.7984 8.75622C12.4225 7.04889 10.9092 5.83316 9.16097 5.83408H1.04266L0.324237 7.14305C0.10919 7.93042 0.000148764 8.74296 0 9.55917C0 14.6184 4.10142 18.7201 9.16097 18.7201C14.2205 18.7201 18.3219 14.6184 18.3219 9.55917C18.3219 4.49997 14.2202 0.398193 9.16097 0.398193ZM9.16097 7.14305C10.4954 7.14305 11.5771 8.22478 11.5771 9.55917C11.5771 10.8935 10.4954 11.9753 9.16097 11.9753C7.82659 11.9753 6.74486 10.8935 6.74486 9.55917C6.74486 8.22478 7.82659 7.14305 9.16097 7.14305ZM22.3487 9.75261C22.3487 7.20753 24.0562 5.4195 26.6169 5.4195C28.1955 5.4195 29.4841 6.11169 30.1606 7.27202L28.679 8.31905C28.2115 7.57768 27.503 7.22357 26.6654 7.22357C25.281 7.22357 24.3622 8.2072 24.3622 9.75261C24.3622 11.2827 25.2803 12.2813 26.6654 12.2813C27.5033 12.2813 28.2115 11.9108 28.679 11.1698L30.1606 12.2168C29.4841 13.3928 28.1955 14.0693 26.6169 14.0693C24.0562 14.0693 22.3487 12.2813 22.3487 9.75261ZM30.4389 9.75261C30.4389 7.36856 32.1304 5.4195 34.756 5.4195C37.3976 5.4195 39.0728 7.36856 39.0728 9.75261C39.0728 12.1206 37.3969 14.0693 34.756 14.0693C32.1323 14.0693 30.4389 12.1203 30.4389 9.75261ZM37.0592 9.75261C37.0592 8.25457 36.1732 7.20754 34.756 7.20754C33.3389 7.20754 32.4525 8.25457 32.4525 9.75261C32.4525 11.2343 33.3385 12.2813 34.756 12.2813C36.1736 12.2813 37.0592 11.2343 37.0592 9.75261ZM51.9716 5.64428L49.4578 13.8431H47.3353L45.5586 8.06039L43.7662 13.8431H41.6408L39.1416 5.64428H41.0914L42.7895 11.5556L44.6132 5.64428H46.5L48.3241 11.5556L50.0061 5.64428H51.9716ZM79.5842 5.64428L77.0682 13.8431H74.9458L73.169 8.06039L71.3766 13.8431H69.2556L66.7557 5.6461H68.7055L70.4035 11.5574L72.2254 5.64428H74.1122L75.9363 11.5556L77.6187 5.64428H79.5842ZM57.8526 5.61294V7.44907C57.5544 7.39965 57.2529 7.37274 56.9506 7.36856C55.517 7.36856 54.76 8.09354 54.76 9.8007V13.8446H52.796V5.64428H54.7268V7.01409C55.1298 6.06396 56.0154 5.50001 57.143 5.50001C57.3843 5.4953 57.6246 5.53354 57.8526 5.61294ZM66.0056 5.64428V13.0216C66.0056 15.7761 64.4754 17.2899 61.769 17.2899C60.3678 17.2899 59.0793 16.8713 58.3058 16.1463L59.1918 14.7127C59.884 15.2592 60.7864 15.5342 61.6564 15.5342C63.1705 15.5342 64.0725 14.6807 64.0725 13.0205V12.3134C63.6055 13.2154 62.6069 13.763 61.3985 13.763C59.6589 13.763 58.5638 12.6678 58.5638 10.6703V5.64428H60.5289V10.1712C60.5289 11.4277 61.0444 11.9753 62.075 11.9753C63.267 11.9753 64.0565 11.2507 64.0565 10.0583V5.64428H66.0056ZM80.1011 3.05184C80.1011 2.34289 80.6006 1.82739 81.3576 1.82739C82.0983 1.82739 82.5963 2.34289 82.5963 3.05184C82.5963 3.76079 82.0968 4.27592 81.3576 4.27592C80.6006 4.27592 80.1011 3.76042 80.1011 3.05184ZM80.3751 5.645H82.3402V13.8438H80.3751V5.645ZM83.3289 12.5068L84.392 11.2663C85.0361 11.9753 86.035 12.3939 87.0821 12.3939C88.0162 12.3939 88.5317 12.0398 88.5317 11.5243C88.5317 11.0893 88.2092 10.8157 87.3881 10.6222L86.0511 10.3162C84.3435 9.91364 83.6189 9.12418 83.6189 7.99663C83.6189 6.48256 84.8751 5.4195 87.0015 5.4195C88.4511 5.4195 89.6592 5.9186 90.3678 6.72446L89.3208 7.99663C88.6122 7.38459 87.8067 7.0946 86.9527 7.0946C86.0347 7.0946 85.5836 7.43304 85.5836 7.93251C85.5836 8.31905 85.8572 8.56059 86.7272 8.75367L88.1448 9.09212C89.868 9.47865 90.4964 10.2677 90.4964 11.3953C90.4964 13.0223 89.2399 14.0693 87.0657 14.0693C85.439 14.0693 84.0699 13.4573 83.3289 12.5068ZM99.2235 10.3322H93.118C93.3274 11.6532 94.1971 12.3618 95.5341 12.3618C96.4521 12.3618 97.2252 12.0237 97.8212 11.3308L98.9972 12.4908C98.2242 13.4894 96.9837 14.0693 95.4696 14.0693C92.86 14.0693 91.1204 12.3618 91.1204 9.78467C91.1204 7.23959 92.7963 5.4195 95.2765 5.4195C97.6602 5.4195 99.2708 7.07857 99.2708 9.57519C99.2705 9.82827 99.2547 10.0811 99.2235 10.3322ZM93.118 8.99594H97.3075C97.211 7.78752 96.4696 7.12739 95.2944 7.12739C94.0852 7.12702 93.3282 7.81958 93.118 8.99594Z" fill="#101010"/>
</g>
<defs>
<clipPath id="clip0">
<rect width="99.2748" height="18.3249" fill="white" transform="translate(0 0.398193)"/>
</clipPath>
</defs>
</svg>
