<svg width="28" height="32" viewBox="0 0 28 32" fill="none" xmlns="http://www.w3.org/2000/svg">
<path d="M20.8 0C21.2243 0 21.6313 0.168571 21.9314 0.468629C22.2314 0.768687 22.4 1.17565 22.4 1.6V12.8H19.2V3.2H3.2V28.8H11.2V32H1.6C1.17565 32 0.768688 31.8314 0.468629 31.5314C0.168571 31.2313 0 30.8243 0 30.4V1.6C0 1.17565 0.168571 0.768687 0.468629 0.468629C0.768688 0.168571 1.17565 0 1.6 0H20.8ZM20.8 16C22.073 16 23.2939 16.5057 24.1941 17.4059C25.0943 18.3061 25.6 19.527 25.6 20.8V22.4H27.2V30.4C27.2 30.8243 27.0314 31.2313 26.7314 31.5314C26.4313 31.8314 26.0243 32 25.6 32H16C15.5757 32 15.1687 31.8314 14.8686 31.5314C14.5686 31.2313 14.4 30.8243 14.4 30.4V22.4H16V20.8C16 19.527 16.5057 18.3061 17.4059 17.4059C18.3061 16.5057 19.527 16 20.8 16ZM24 25.6H17.6V28.8H24V25.6ZM20.8 19.2C19.9872 19.2 19.2 19.92 19.2 20.8V22.4H22.4V20.8C22.4 20.3757 22.2314 19.9687 21.9314 19.6686C21.6313 19.3686 21.2243 19.2 20.8 19.2Z" fill="#18A6E3"/>
</svg>
