<svg width="19" height="22" viewBox="0 0 19 22" fill="none" xmlns="http://www.w3.org/2000/svg">
<path d="M14.3 0C14.5917 0 14.8715 0.115892 15.0778 0.322183C15.2841 0.528473 15.4 0.808262 15.4 1.1V8.8H13.2V2.2H2.2V19.8H7.7V22H1.1C0.808262 22 0.528473 21.8841 0.322183 21.6778C0.115893 21.4715 0 21.1917 0 20.9V1.1C0 0.808262 0.115893 0.528473 0.322183 0.322183C0.528473 0.115892 0.808262 0 1.1 0H14.3ZM14.3 11C15.1752 11 16.0146 11.3477 16.6335 11.9665C17.2523 12.5854 17.6 13.4248 17.6 14.3V15.4H18.7V20.9C18.7 21.1917 18.5841 21.4715 18.3778 21.6778C18.1715 21.8841 17.8917 22 17.6 22H11C10.7083 22 10.4285 21.8841 10.2222 21.6778C10.0159 21.4715 9.9 21.1917 9.9 20.9V15.4H11V14.3C11 13.4248 11.3477 12.5854 11.9665 11.9665C12.5854 11.3477 13.4248 11 14.3 11ZM16.5 17.6H12.1V19.8H16.5V17.6ZM14.3 13.2C13.7412 13.2 13.2 13.695 13.2 14.3V15.4H15.4V14.3C15.4 14.0083 15.2841 13.7285 15.0778 13.5222C14.8715 13.3159 14.5917 13.2 14.3 13.2Z" fill="#18A6E3"/>
</svg>
