<svg width="67" height="20" viewBox="0 0 67 20" fill="none" xmlns="http://www.w3.org/2000/svg">
<g style="mix-blend-mode:luminosity" clip-path="url(#clip0)">
<path d="M24.2542 4.21606C23.2925 4.21606 22.5082 4.49721 21.9311 5.07429C21.3541 5.65138 21.0729 6.40601 21.0729 7.36779V8.15206H19.682V10.0165H21.0729V15.8021H23.2185V10.0165H24.9941V8.15206H23.2185V7.30863C23.2185 6.58356 23.7512 6.09527 24.5058 6.09527C24.6686 6.09527 24.8313 6.11007 25.0089 6.12487V4.26046C24.7869 4.23086 24.5354 4.21606 24.2542 4.21606Z" fill="#101010"/>
<path d="M27.8472 4.30496H25.6868V15.8022H27.8472V4.30496Z" fill="#101010"/>
<path d="M30.4653 4.34925C29.3852 4.29007 28.7193 5.82894 29.5479 6.56878C30.0362 7.0571 30.8944 7.0571 31.3827 6.56878C31.6343 6.31723 31.7675 6.00649 31.7675 5.65139C31.7675 4.92632 31.1904 4.34925 30.4653 4.34925ZM31.5455 8.15207H29.3852V15.8021H31.5455V8.15207Z" fill="#101010"/>
<path d="M36.3538 8.00412C35.2736 8.00412 34.3858 8.37406 33.6903 9.09909C33.0097 9.82416 32.6694 10.7859 32.6694 11.9845C32.6694 13.183 33.0097 14.1448 33.6903 14.8699C34.3858 15.5949 35.2736 15.9649 36.3538 15.9649C37.3156 15.9649 38.0258 15.6985 38.5142 15.151V19.5753H40.6597V8.15211H38.6324V8.95114C38.159 8.31486 37.4044 8.00412 36.3538 8.00412ZM36.7089 9.85372C37.7891 9.85372 38.5142 10.6084 38.5142 11.8069V12.1621C38.5142 13.3606 37.7891 14.1153 36.7089 14.1153C35.5991 14.1153 34.8593 13.331 34.8593 11.9845C34.8593 10.638 35.5991 9.85372 36.7089 9.85372Z" fill="#101010"/>
<path d="M46.5068 8.00412C45.4709 8.00412 44.7162 8.31486 44.2428 8.95114V8.15211H42.2007V19.5753H44.3613V15.151C44.8495 15.6985 45.5747 15.9649 46.5068 15.9649C47.6016 15.9649 48.4895 15.5949 49.1702 14.8699C49.8656 14.1448 50.2058 13.183 50.2058 11.9845C50.2058 10.7859 49.8656 9.82416 49.1702 9.09909C48.4895 8.37406 47.6016 8.00412 46.5068 8.00412ZM46.1663 9.85372C47.2762 9.85372 48.0161 10.638 48.0161 11.9845C48.0161 13.331 47.2762 14.1153 46.1663 14.1153C45.0862 14.1153 44.3613 13.3606 44.3613 12.1621V11.8069C44.3613 10.6084 45.0862 9.85372 46.1663 9.85372Z" fill="#101010"/>
<path d="M54.3069 8.00412C53.3748 8.00412 52.6054 8.28526 51.9987 8.84755C51.4067 9.39503 51.1108 10.0313 51.1108 10.7415L53.2713 10.8303C53.2713 10.2829 53.6413 9.82416 54.3367 9.82416C55.0026 9.82416 55.3281 10.2237 55.3281 11.0079V11.3038L53.9667 11.3778C51.9247 11.4666 50.9039 12.2361 50.9039 13.7009C50.9039 15.1658 51.8654 15.9649 53.4488 15.9649C54.248 15.9649 54.8988 15.6985 55.4021 15.1806V15.8021H57.4883V11.0819C57.4883 9.06949 56.3787 8.00412 54.3069 8.00412ZM55.3281 13.0499C55.3281 13.8341 54.7656 14.2928 53.952 14.2928C53.36 14.2928 53.0641 14.0561 53.0641 13.5974C53.0641 13.0943 53.434 12.8279 54.174 12.7983L55.3281 12.7243V13.0499Z" fill="#101010"/>
<path d="M66.1557 8.1521H63.7584L62.0124 12.7095L60.2516 8.1521H57.8694L60.8583 15.1214L58.905 19.5753H61.2577L66.1557 8.1521Z" fill="#101010"/>
<path fill-rule="evenodd" clip-rule="evenodd" d="M0.815796 2.19653C0.815796 1.16866 1.59833 0.518228 2.56376 0.743781L13.0649 3.19715C14.0302 3.42269 14.8128 4.15656 14.8128 4.83808V15.1971C14.8128 15.8778 14.0303 16.6125 13.0649 16.8381L2.56376 19.2914C1.59838 19.517 0.815796 18.8677 0.815796 17.8386V2.19653ZM3.79017 5.99681C3.79017 5.16687 4.47187 4.59209 5.31113 4.71274L9.87547 5.36895C10.7155 5.48972 11.3964 6.12257 11.3964 6.78282C11.3964 7.44288 10.7147 7.9351 9.87547 7.88228L5.31113 7.59521C4.47113 7.54236 3.79017 6.82691 3.79017 5.99681ZM3.70922 10.0176C3.70922 9.15854 4.41485 8.49062 5.28357 8.52577L10.0082 8.7168C10.8777 8.75198 11.5826 9.3342 11.5826 10.0176C11.5826 10.7008 10.8769 11.2832 10.0082 11.3184L5.28357 11.5094C4.41408 11.5446 3.70922 10.8769 3.70922 10.0176ZM5.53979 15.6266C6.5061 15.479 7.28943 14.656 7.28943 13.7883C7.28943 12.9206 6.5061 12.2664 5.53979 12.3272C4.5735 12.388 3.79017 13.211 3.79017 14.1656C3.79017 15.1201 4.5735 15.7742 5.53979 15.6266Z" fill="#101010"/>
</g>
<defs>
<clipPath id="clip0">
<rect width="65.6892" height="18.8762" fill="white" transform="translate(0.815796 0.699097)"/>
</clipPath>
</defs>
</svg>
