<svg width="40" height="40" viewBox="0 0 40 40" fill="none" xmlns="http://www.w3.org/2000/svg">
<path d="M0 36H40V40H0V36ZM4 20H8V34H4V20ZM14 20H18V34H14V20ZM22 20H26V34H22V20ZM32 20H36V34H32V20ZM0 10L20 0L40 10V18H0V10ZM4 12.472V14H36V12.472L20 4.472L4 12.472ZM20 12C19.4696 12 18.9609 11.7893 18.5858 11.4142C18.2107 11.0391 18 10.5304 18 10C18 9.46957 18.2107 8.96086 18.5858 8.58579C18.9609 8.21071 19.4696 8 20 8C20.5304 8 21.0391 8.21071 21.4142 8.58579C21.7893 8.96086 22 9.46957 22 10C22 10.5304 21.7893 11.0391 21.4142 11.4142C21.0391 11.7893 20.5304 12 20 12Z" fill="#18A6E3"/>
</svg>
