<svg width="18" height="22" viewBox="0 0 18 22" fill="none" xmlns="http://www.w3.org/2000/svg">
<path d="M1.10491 19.8H16.5737V22H1.10491V19.8ZM8.83929 17.6C6.49496 17.6 4.24665 16.6729 2.58897 15.0225C0.931279 13.3722 0 11.1339 0 8.8C0 6.46609 0.931279 4.22778 2.58897 2.57746C4.24665 0.92714 6.49496 0 8.83929 0C11.1836 0 13.4319 0.92714 15.0896 2.57746C16.7473 4.22778 17.6786 6.46609 17.6786 8.8C17.6786 11.1339 16.7473 13.3722 15.0896 15.0225C13.4319 16.6729 11.1836 17.6 8.83929 17.6ZM8.83929 15.4C10.5975 15.4 12.2838 14.7046 13.527 13.4669C14.7703 12.2292 15.4688 10.5504 15.4688 8.8C15.4688 7.04957 14.7703 5.37084 13.527 4.1331C12.2838 2.89536 10.5975 2.2 8.83929 2.2C7.08104 2.2 5.39481 2.89536 4.15155 4.1331C2.90828 5.37084 2.20982 7.04957 2.20982 8.8C2.20982 10.5504 2.90828 12.2292 4.15155 13.4669C5.39481 14.7046 7.08104 15.4 8.83929 15.4Z" fill="#18A6E3"/>
</svg>
