<svg width="26" height="32" viewBox="0 0 26 32" fill="none" xmlns="http://www.w3.org/2000/svg">
<path d="M1.60714 28.8H24.1071V32H1.60714V28.8ZM12.8571 25.6C9.44722 25.6 6.17695 24.2514 3.76577 21.851C1.35459 19.4505 0 16.1948 0 12.8C0 9.40523 1.35459 6.1495 3.76577 3.74903C6.17695 1.34857 9.44722 0 12.8571 0C16.2671 0 19.5373 1.34857 21.9485 3.74903C24.3597 6.1495 25.7143 9.40523 25.7143 12.8C25.7143 16.1948 24.3597 19.4505 21.9485 21.851C19.5373 24.2514 16.2671 25.6 12.8571 25.6ZM12.8571 22.4C15.4146 22.4 17.8673 21.3886 19.6757 19.5882C21.4841 17.7879 22.5 15.3461 22.5 12.8C22.5 10.2539 21.4841 7.81212 19.6757 6.01178C17.8673 4.21143 15.4146 3.2 12.8571 3.2C10.2997 3.2 7.847 4.21143 6.03861 6.01178C4.23023 7.81212 3.21429 10.2539 3.21429 12.8C3.21429 15.3461 4.23023 17.7879 6.03861 19.5882C7.847 21.3886 10.2997 22.4 12.8571 22.4Z" fill="#18A6E3"/>
</svg>
