<svg width="8" height="8" viewBox="0 0 8 8" fill="none" xmlns="http://www.w3.org/2000/svg">
    <path d="M6.94595 6.00333C7.20657 6.26407 7.20657 6.68533 6.94595 6.94608C6.81595 7.07608 6.64529 7.14139 6.47452 7.14139C6.30386 7.14139 6.13321 7.07608 6.0032 6.94608L3.99991 4.94266L1.99661 6.94608C1.86661 7.07608 1.69595 7.14139 1.5253 7.14139C1.35452 7.14139 1.18387 7.07608 1.05386 6.94608C0.793243 6.68533 0.793243 6.26407 1.05386 6.00333L3.05728 4.00003L1.05386 1.99673C0.793243 1.73599 0.793243 1.31473 1.05386 1.05399C1.31461 0.793365 1.73587 0.793365 1.99661 1.05399L3.99991 3.0574L6.0032 1.05399C6.26395 0.793365 6.68521 0.793365 6.94595 1.05399C7.20657 1.31473 7.20657 1.73599 6.94595 1.99673L4.94254 4.00003L6.94595 6.00333Z" fill="#FAFAFA"/>
</svg>