<svg width="44" height="40" viewBox="0 0 44 40" fill="none" xmlns="http://www.w3.org/2000/svg">
<path d="M23.8505 0V2.69053L34.3768 6.20211L42.0232 3.65474L43.3558 7.64632L36.9726 9.77474L43.4905 27.6947C41.1916 30.0884 37.9558 31.5789 34.3768 31.5789C30.7958 31.5789 27.5621 30.0884 25.2632 27.6947L31.7768 9.77474L23.8505 7.13053V35.7895H32.2716V40H11.2189V35.7895H19.64V7.13053L11.7074 9.77474L18.2253 27.6947C15.9284 30.0884 12.6926 31.5789 9.11368 31.5789C5.53263 31.5789 2.29895 30.0884 0 27.6947L6.51368 9.77474L0.134737 7.64842L1.46737 3.65263L9.11368 6.2L19.64 2.69053V0H23.8505ZM34.3768 14.9537L30.2547 26.2926C31.4905 26.9895 32.901 27.3684 34.3768 27.3684C35.8505 27.3684 37.261 26.9895 38.4989 26.2947L34.3768 14.9516V14.9537ZM9.11368 14.9537L4.99158 26.2926C6.22737 26.9895 7.63789 27.3684 9.11368 27.3684C10.5874 27.3684 11.9979 26.9895 13.2358 26.2947L9.11368 14.9516V14.9537Z" fill="#634E47"/>
</svg>
