<svg width="103" height="24" viewBox="0 0 103 24" fill="none" xmlns="http://www.w3.org/2000/svg">
<path fill-rule="evenodd" clip-rule="evenodd" d="M15.6073 22.0494L28.3282 0.018477V0C27.6583 0.99114 26.5241 1.64333 25.2388 1.64333H3.72609C1.66967 1.64333 2.09808e-05 3.31298 2.09808e-05 5.36952C2.09808e-05 6.05371 0.184774 6.69502 0.507185 7.24638L9.05503 22.0494C9.68633 23.2108 10.9173 24 12.3312 24C13.745 24 14.976 23.2108 15.6073 22.0494Z" fill="#007499"/>
<path fill-rule="evenodd" clip-rule="evenodd" d="M4.78543 14.6567C4.47803 14.1149 4.30249 13.4887 4.30249 12.8219C4.30249 10.7654 5.97209 9.09577 8.02858 9.09577H10.1799L7.00215 3.5942C6.37088 2.43269 5.13993 1.64359 3.72608 1.64359C1.66959 1.64359 -1.14441e-05 3.31319 -1.14441e-05 5.36968C-1.14441e-05 6.05383 0.18484 6.69523 0.507148 7.24659L4.78543 14.6567Z" fill="#007499"/>
<path fill-rule="evenodd" clip-rule="evenodd" d="M13.3587 14.6007L10.1798 9.09482H8.02325C5.96675 9.09482 4.30243 10.7644 4.30243 12.8209C4.30243 13.5078 4.48863 14.1513 4.81332 14.7041L9.05496 22.0486C8.76805 21.5206 8.60503 20.9158 8.60503 20.2731C8.60503 18.2166 10.2746 16.547 12.3311 16.547H16.6337C15.2199 16.547 13.9889 15.7579 13.3576 14.5964L13.3587 14.6007Z" fill="#00ACE6"/>
<path fill-rule="evenodd" clip-rule="evenodd" d="M15.6072 22.0491L19.82 14.7529C19.1662 15.8285 17.9833 16.5475 16.6337 16.5475H12.3311C10.2746 16.5475 8.605 18.2171 8.605 20.2736C8.605 22.3301 10.2746 23.9997 12.3311 23.9997C13.7449 23.9997 14.9759 23.2106 15.6072 22.0491Z" fill="#66D9FF"/>
<path fill-rule="evenodd" clip-rule="evenodd" d="M19.8768 14.6572C19.2363 15.7862 18.0233 16.5485 16.6337 16.5485C15.2198 16.5485 13.9889 15.7594 13.3575 14.5979L10.1798 9.0963H20.9361C22.2857 9.0963 23.4687 8.37726 24.1224 7.30167L19.8768 14.6572Z" fill="#00BFFF"/>
<path fill-rule="evenodd" clip-rule="evenodd" d="M6.91236 3.43822C6.25854 2.36262 5.07561 1.64359 3.72604 1.64359H12.3311C13.6807 1.64359 14.8636 2.36262 15.5175 3.43822L17.6851 7.1905C18.3236 8.32717 19.5408 9.09578 20.9361 9.09578H10.1798L6.91236 3.43822Z" fill="#0086B3"/>
<path fill-rule="evenodd" clip-rule="evenodd" d="M12.3312 1.64333C13.6807 1.64333 14.8636 2.36241 15.5175 3.43796L17.6853 7.19035C18.3237 8.32688 19.5409 9.0956 20.9362 9.0956C22.2858 9.0956 23.4687 8.37651 24.1226 7.30097L28.3282 0.018477V0C27.6582 0.99114 26.5241 1.64333 25.2388 1.64333H12.3312Z" fill="#0099CC"/>
<path d="M36.2441 19.7406H38.5828V10.8676L42.555 16.3015H42.8301L46.7851 11.0396V19.7406H49.1409V6.92981H46.9055L42.7441 12.7076L38.4796 6.92981H36.2441V19.7406Z" fill="#101010"/>
<path d="M52.5642 23.5409C53.4469 23.5409 54.1806 23.2886 54.7653 22.7842C55.3614 22.2913 55.8371 21.592 56.1925 20.6864L60.2679 10.3861H57.8261L55.4187 16.8345L52.9941 10.3861H50.5695L54.2666 19.7406L54.0602 20.2393C53.8768 20.629 53.6647 20.9443 53.424 21.185C53.1947 21.4258 52.8221 21.5462 52.3063 21.5462C52.1228 21.5462 51.928 21.529 51.7216 21.4946C51.5153 21.4716 51.3318 21.4372 51.1714 21.3914V23.2829C51.3662 23.3746 51.584 23.4377 51.8248 23.4721C52.0655 23.5179 52.312 23.5409 52.5642 23.5409Z" fill="#101010"/>
<path d="M61.7198 19.7406H64.0585V16.1467L65.778 14.1004L69.2172 19.7406H71.9685L67.3772 12.1917L71.8137 6.92981H68.8733L64.0585 12.6216V6.92981H61.7198V19.7406Z" fill="#101010"/>
<path d="M77.328 19.947C78.2795 19.947 79.1107 19.7349 79.8214 19.3107C80.5436 18.8751 81.048 18.3248 81.3346 17.6599L79.5119 16.7657C79.3055 17.1211 79.0189 17.4135 78.6521 17.6427C78.2967 17.8605 77.8611 17.9694 77.3452 17.9694C76.6689 17.9694 76.1014 17.7631 75.6429 17.3504C75.1843 16.9377 74.9206 16.3874 74.8519 15.6996H81.5926C81.6384 15.5735 81.6671 15.4302 81.6785 15.2697C81.7015 15.0978 81.7129 14.9258 81.7129 14.7539C81.7129 13.917 81.5353 13.1547 81.1799 12.4668C80.8245 11.779 80.3086 11.2287 79.6323 10.816C78.9559 10.3919 78.1305 10.1798 77.1561 10.1798C76.2848 10.1798 75.4938 10.3919 74.7831 10.816C74.0838 11.2402 73.5278 11.8191 73.1151 12.5528C72.7139 13.275 72.5132 14.1061 72.5132 15.0462C72.5132 15.9518 72.7139 16.7772 73.1151 17.5224C73.5163 18.2675 74.078 18.8579 74.8003 19.2935C75.5225 19.7291 76.3651 19.947 77.328 19.947ZM77.1561 12.0369C77.7522 12.0369 78.2451 12.2204 78.6349 12.5872C79.0361 12.9426 79.2597 13.4069 79.3055 13.98H74.9034C75.0295 13.361 75.2932 12.8853 75.6944 12.5528C76.1071 12.2089 76.5944 12.0369 77.1561 12.0369Z" fill="#101010"/>
<path d="M84.5813 23.5409C85.464 23.5409 86.1977 23.2886 86.7823 22.7842C87.3784 22.2913 87.8542 21.592 88.2096 20.6864L92.2849 10.3861H89.8432L87.4358 16.8345L85.0112 10.3861H82.5866L86.2836 19.7406L86.0773 20.2393C85.8939 20.629 85.6818 20.9443 85.441 21.185C85.2118 21.4258 84.8392 21.5462 84.3233 21.5462C84.1399 21.5462 83.945 21.529 83.7387 21.4946C83.5323 21.4716 83.3489 21.4372 83.1884 21.3914V23.2829C83.3833 23.3746 83.6011 23.4377 83.8419 23.4721C84.0826 23.5179 84.3291 23.5409 84.5813 23.5409Z" fill="#101010"/>
</svg>
