<svg width="30" height="40" viewBox="0 0 19 20" fill="none" xmlns="http://www.w3.org/2000/svg">
<path fill-rule="evenodd" clip-rule="evenodd" d="M18.0502 4.9363C18.1518 4.38359 17.971 3.81673 17.5686 3.4249C15.7287 1.63353 12.6397 0 9.03689 0C5.35964 0 2.42545 1.55301 0.533338 3.32434C0.193055 3.64289 0 4.08812 0 4.55407C0 4.55491 1.97179 15.191 1.97179 15.191C1.97196 15.1915 1.97196 15.1918 1.97196 15.1921C2.05838 15.6509 2.33111 16.0531 2.72513 16.3031L8.13985 19.738C8.68852 20.0858 9.38813 20.0875 9.93831 19.742L15.4069 16.3072C15.8065 16.0562 16.0824 15.6492 16.1677 15.1849L18.0502 4.9363ZM17.1555 4.77189C17.2022 4.51768 17.1191 4.25692 16.934 4.07667C15.2312 2.41888 12.3713 0.909668 9.03689 0.909668C5.62883 0.909668 2.90859 2.34678 1.15495 3.98839C0.998449 4.13495 0.909673 4.33979 0.909673 4.55407C0.909673 4.55491 2.86596 15.0239 2.86596 15.0239C2.90572 15.2349 3.03122 15.4201 3.21248 15.535L8.6272 18.9698C8.87955 19.1298 9.20147 19.1305 9.4545 18.9717L14.9231 15.5368C15.1069 15.4214 15.2338 15.2341 15.273 15.0207L17.1555 4.77189Z" fill="#00ACE6"/>
<path fill-rule="evenodd" clip-rule="evenodd" d="M9.05331 18.3077L9.83663 17.8158C9.01338 16.2674 8.70443 14.5462 8.68405 12.412V12.4028C8.67478 12.2192 8.80955 12.0704 8.98407 12.0617C9.15859 12.0531 9.30734 12.1877 9.3161 12.3622C9.41684 14.3823 9.77194 15.9842 10.5118 17.3916L11.2945 16.9001C10.6334 15.6151 10.3147 14.1532 10.2231 12.317C10.1894 11.6419 9.61393 11.121 8.93875 11.1547C8.26644 11.1882 7.74726 11.7589 7.77606 12.4304C7.79897 14.7551 8.14128 16.6247 9.05331 18.3077ZM6.6442 16.7902L7.86535 17.5648C7.26497 16.017 7.00234 14.3488 7.05001 12.5702L7.04951 12.5355C6.99577 11.4567 7.82795 10.5373 8.90658 10.4836C9.9751 10.4303 10.9973 11.2323 10.9584 12.3015C10.9006 13.8849 11.1558 15.3247 11.781 16.5945L12.5618 16.1041C12.0303 14.9851 11.8153 13.7208 11.8659 12.3346C11.924 10.744 10.4512 9.49723 8.86143 9.57657C7.28754 9.6549 6.07229 10.9921 6.14169 12.5643C6.10362 14.0456 6.26618 15.4557 6.6442 16.7902ZM4.8877 15.6761L5.9547 16.3529C5.73335 15.3917 5.58309 14.4125 5.49819 13.4423C5.47629 13.1925 5.25577 13.0077 5.00612 13.0294C4.75647 13.0513 4.5715 13.2719 4.5934 13.5215C4.65624 14.2386 4.75361 14.96 4.8877 15.6761ZM13.2501 15.6719L14.0285 15.1828C13.7172 14.4271 13.5371 13.4826 13.474 12.2153C13.3554 9.83684 11.3965 7.98279 9.04539 7.96275C8.79473 7.96056 8.58954 8.16238 8.58752 8.41304C8.58533 8.66354 8.78697 8.86872 9.03764 8.87091C10.9116 8.88691 12.4723 10.365 12.5668 12.2604C12.6403 13.7319 12.8702 14.8115 13.2501 15.6719ZM3.03214 11.7001L3.63016 14.8783L4.01222 15.1207C3.90879 14.3565 3.85152 13.5528 3.85809 12.7208C3.881 9.86951 5.89962 7.43346 8.74756 7.29162C9.80833 7.23873 10.8107 7.51112 11.6577 8.02137C11.8723 8.15075 12.1516 8.08135 12.2809 7.86674C12.4102 7.65212 12.3409 7.37282 12.1263 7.24344C11.1299 6.64306 9.95051 6.32232 8.70224 6.38448C5.71246 6.53356 3.4799 8.82155 3.03214 11.7001ZM14.5484 14.6881L15.047 11.973C14.9429 10.6288 14.4087 9.42142 13.588 8.47385C13.4239 8.28433 13.1369 8.26379 12.9474 8.42787C12.758 8.59194 12.7375 8.87899 12.9015 9.06851C13.6264 9.90523 14.0882 10.9805 14.15 12.1701C14.1651 13.237 14.3097 14.0434 14.5484 14.6881ZM7.39434 8.26142C5.88867 8.84193 4.7878 10.2098 4.56864 11.8373C4.53512 12.0857 4.70964 12.3145 4.95811 12.348C5.20642 12.3814 5.43518 12.2069 5.4687 11.9586C5.64339 10.6614 6.52106 9.57152 7.72114 9.10877C7.95496 9.01864 8.07154 8.75552 7.98141 8.5217C7.89129 8.28788 7.62816 8.17113 7.39434 8.26142ZM15.374 10.193L15.6587 8.64315C14.6439 6.86761 12.9442 5.54759 10.9388 5.02402C10.6964 4.96068 10.4481 5.10622 10.3848 5.34863C10.3215 5.59121 10.467 5.83951 10.7094 5.90268C12.8714 6.46718 14.6302 8.08202 15.374 10.193ZM2.43799 8.54292L2.72757 10.0816C3.19133 8.79964 3.98173 7.72842 5.01572 6.9643C5.2172 6.81539 5.25999 6.53087 5.1109 6.32922C4.96198 6.12775 4.67746 6.08495 4.47582 6.23387C3.65038 6.84402 2.95886 7.62601 2.43799 8.54292ZM15.8266 7.72876L16.048 6.52413C15.4751 5.84272 14.8058 5.24689 14.0625 4.75651C13.8535 4.61837 13.5715 4.67615 13.4335 4.88537C13.2954 5.09443 13.3532 5.37642 13.5624 5.51439C14.4497 6.09995 15.22 6.85211 15.8266 7.72876ZM2.0406 6.43063L2.2633 7.61405C3.207 6.29722 4.52905 5.26356 6.0792 4.67901C6.31369 4.59057 6.43228 4.32829 6.34384 4.09379C6.2554 3.8593 5.99311 3.74071 5.75862 3.82915C4.30517 4.37731 3.03248 5.28142 2.0406 6.43063ZM8.99435 4.77706C8.87104 4.77723 8.74722 4.78042 8.62273 4.78665C7.71542 4.8318 6.86387 5.02149 6.08543 5.33516C5.85296 5.42882 5.74026 5.69363 5.83392 5.92611C5.92758 6.15858 6.1924 6.27127 6.42487 6.17761C7.11302 5.90033 7.86602 5.73373 8.66787 5.69363C8.77787 5.68824 8.8872 5.68538 8.9962 5.68521C9.24686 5.68471 9.44985 5.48088 9.44935 5.23021C9.44884 4.97955 9.24501 4.77656 8.99435 4.77706ZM16.1964 5.71638L16.396 4.62966C14.9001 3.2131 13.0016 2.22493 10.9043 1.84894C10.6577 1.80463 10.4215 1.96905 10.3772 2.21567C10.3329 2.46246 10.4973 2.69863 10.7441 2.74276C12.8685 3.12365 14.7699 4.191 16.1964 5.71638ZM1.68701 4.55116L1.88916 5.62592C2.35124 5.14346 2.86216 4.70731 3.41454 4.32593C3.49253 4.27219 3.5712 4.21963 3.65054 4.16808C3.86095 4.03163 3.92092 3.75014 3.78447 3.5399C3.64802 3.32967 3.3667 3.26971 3.15646 3.40616C3.06954 3.46242 2.98362 3.51986 2.89855 3.57865C2.47101 3.87396 2.06604 4.19908 1.68701 4.55116ZM12.5606 3.95381C11.33 3.43648 9.96752 3.18009 8.54608 3.25084C8.18558 3.26886 7.83081 3.30744 7.48312 3.36539C7.23582 3.40649 7.06871 3.64065 7.10981 3.88794C7.15109 4.13507 7.38524 4.30235 7.63237 4.26124C7.94604 4.20885 8.26611 4.17414 8.5914 4.15797C9.87201 4.09413 11.0999 4.32491 12.2087 4.79103C12.4396 4.88823 12.7061 4.77941 12.8033 4.54846C12.9004 4.31733 12.7917 4.05101 12.5606 3.95381ZM4.93351 3.46562C6.02933 2.96816 7.23532 2.66477 8.50953 2.60127C8.84408 2.58459 9.17577 2.58476 9.50342 2.60127C9.75375 2.61373 9.96719 2.42068 9.97982 2.17035C9.99229 1.92003 9.79923 1.70676 9.54891 1.69412C9.19127 1.67627 8.82943 1.67593 8.46421 1.69412C7.07242 1.76353 5.75508 2.09522 4.55803 2.63866C4.32977 2.74243 4.22869 3.0118 4.33229 3.23989C4.43589 3.46815 4.70525 3.56922 4.93351 3.46562Z" fill="#00ACE6"/>
</svg>