<svg width="39" height="40" viewBox="0 0 39 40" fill="none" xmlns="http://www.w3.org/2000/svg">
<path d="M3.80965 9.79516V34.2227L13.4576 30.0892L24.8866 35.8037L34.2869 31.7711V7.34555L36.7689 6.28266C36.9138 6.22053 37.0719 6.19536 37.229 6.2094C37.386 6.22345 37.5371 6.27627 37.6687 6.36312C37.8004 6.44998 37.9083 6.56816 37.983 6.70705C38.0577 6.84593 38.0967 7.00119 38.0965 7.15888V34.2855L24.7628 40L13.3338 34.2855L1.32766 39.4305C1.18273 39.4926 1.02464 39.5178 0.867584 39.5037C0.710524 39.4897 0.559408 39.4368 0.4278 39.35C0.296191 39.2631 0.188208 39.145 0.113541 39.0061C0.0388741 38.8672 -0.000139922 38.7119 3.77061e-07 38.5542V11.4276L3.80965 9.79516ZM27.1305 19.5098L19.0483 27.5901L10.9661 19.5098C9.36791 17.9113 8.2796 15.8749 7.83877 13.6579C7.39794 11.441 7.62438 9.1431 8.48947 7.05484C9.35456 4.96658 10.8194 3.18174 12.6989 1.92599C14.5783 0.670248 16.7879 0 19.0483 0C21.3086 0 23.5182 0.670248 25.3977 1.92599C27.2771 3.18174 28.742 4.96658 29.6071 7.05484C30.4722 9.1431 30.6986 11.441 30.2578 13.6579C29.8169 15.8749 28.7286 17.9113 27.1305 19.5098ZM19.0483 22.2032L24.4351 16.8144C25.5009 15.749 26.2268 14.3913 26.521 12.9133C26.8152 11.4352 26.6644 9.9031 26.0878 8.51071C25.5112 7.11833 24.5346 5.92823 23.2816 5.0909C22.0285 4.25358 20.5553 3.80666 19.0483 3.80666C17.5412 3.80666 16.068 4.25358 14.815 5.0909C13.5619 5.92823 12.5853 7.11833 12.0087 8.51071C11.4321 9.9031 11.2814 11.4352 11.5755 12.9133C11.8697 14.3913 12.5956 15.749 13.6614 16.8144L19.0483 22.2032Z" fill="#3849E9"/>
</svg>
