<svg width="294" height="42" viewBox="0 0 294 42" fill="none" xmlns="http://www.w3.org/2000/svg">
        <circle cx="20.5" cy="20.5" r="20.5" fill="#18A6E3"/>
        <path d="M26.9171 19.1433L23.2957 17.0308C22.4877 16.5578 21.166 15.7873 20.3564 15.3162L16.6022 13.2036C15.7944 12.7307 15 13.11 15 14.0471V25.9541C15 26.8879 15.7944 27.2689 16.6025 26.7978L20.2903 24.6853C21.1 24.2142 22.4556 23.4437 23.2636 22.9707L26.9021 20.8582C27.7083 20.3852 27.7235 19.6144 26.9171 19.1433Z" fill="white"/>
        <path d="M82.5 8C81.6716 8 81 8.40926 81 8.91406V38.2859C81 38.7907 81.6716 39.2 82.5 39.2C83.3284 39.2 84 38.7907 84 38.2859V8.91406C84 8.40926 83.3284 8 82.5 8Z" fill="black"/>
        <path d="M88.5 13C87.6716 13 87 13.4093 87 13.9141V33.8903C87 34.3951 87.6716 34.8044 88.5 34.8044C89.3284 34.8044 90 34.3951 90 33.8903V13.9141C90 13.4093 89.3284 13 88.5 13Z" fill="black"/>
        <path d="M94.5 17C93.6716 17 93 17.4093 93 17.9141V29.5611C93 30.0659 93.6716 30.4752 94.5 30.4752C95.3284 30.4752 96 30.0659 96 29.5611V17.9141C96 17.4092 95.3284 17 94.5 17Z" fill="black"/>
        <path d="M100.5 19C99.6716 19 99 19.4093 99 19.9141V27.0771C99 27.5819 99.6716 27.9912 100.5 27.9912C101.328 27.9912 102 27.5819 102 27.0771V19.9141C102 19.4093 101.328 19 100.5 19Z" fill="black"/>
        <path d="M106.5 21C105.672 21 105 21.4093 105 21.9141V25.4209C105 25.9257 105.672 26.335 106.5 26.335C107.328 26.335 108 25.9257 108 25.4209V21.9141C108 21.4093 107.328 21 106.5 21Z" fill="black"/>
        <path d="M76.5 13C75.6716 13 75 13.4093 75 13.9141V33.8903C75 34.3951 75.6716 34.8044 76.5 34.8044C77.3284 34.8044 78 34.3951 78 33.8903V13.9141C78 13.4093 77.3284 13 76.5 13Z" fill="black"/>
        <path d="M70.5 17C69.6716 17 69 17.4093 69 17.9141V29.5611C69 30.0659 69.6716 30.4752 70.5 30.4752C71.3284 30.4752 72 30.0659 72 29.5611V17.9141C72 17.4092 71.3284 17 70.5 17Z" fill="black"/>
        <path d="M64.5 19C63.6716 19 63 19.4093 63 19.9141V27.0771C63 27.5819 63.6716 27.9912 64.5 27.9912C65.3284 27.9912 66 27.5819 66 27.0771V19.9141C66 19.4093 65.3284 19 64.5 19Z" fill="black"/>
        <path d="M58.5 21C57.6716 21 57 21.4093 57 21.9141V25.4209C57 25.9257 57.6716 26.335 58.5 26.335C59.3284 26.335 60 25.9257 60 25.4209V21.9141C60 21.4093 59.3284 21 58.5 21Z" fill="black"/>
        <path d="M136.5 14C135.672 14 135 14.2492 135 14.5566V32.4434C135 32.7508 135.672 33 136.5 33C137.328 33 138 32.7508 138 32.4434V14.5566C138 14.2492 137.328 14 136.5 14Z" fill="black"/>
        <path d="M142.5 5C141.672 5 141 5.69447 141 6.55108V40.4489C141 41.3055 141.672 42 142.5 42C143.328 42 144 41.3055 144 40.4489V6.55108C144 5.69447 143.328 5 142.5 5Z" fill="black"/>
        <path d="M148.5 11C147.672 11 147 11.7896 147 12.7637V35.2363C147 36.2104 147.672 37 148.5 37C149.328 37 150 36.2104 150 35.2363V12.7637C150 11.7895 149.328 11 148.5 11Z" fill="black"/>
        <path d="M154.5 19C153.672 19 153 19.4093 153 19.9141V27.0771C153 27.5819 153.672 27.9912 154.5 27.9912C155.328 27.9912 156 27.5819 156 27.0771V19.9141C156 19.4093 155.328 19 154.5 19Z" fill="black"/>
        <path d="M160.5 21C159.672 21 159 21.4093 159 21.9141V25.4209C159 25.9257 159.672 26.335 160.5 26.335C161.328 26.335 162 25.9257 162 25.4209V21.9141C162 21.4093 161.328 21 160.5 21Z" fill="black"/>
        <path d="M130.5 13C129.672 13 129 13.4093 129 13.9141V33.8903C129 34.3951 129.672 34.8044 130.5 34.8044C131.328 34.8044 132 34.3951 132 33.8903V13.9141C132 13.4093 131.328 13 130.5 13Z" fill="black"/>
        <path d="M124.5 17C123.672 17 123 17.4093 123 17.9141V29.5611C123 30.0659 123.672 30.4752 124.5 30.4752C125.328 30.4752 126 30.0659 126 29.5611V17.9141C126 17.4092 125.328 17 124.5 17Z" fill="black"/>
        <path d="M118.5 19C117.672 19 117 19.4093 117 19.9141V27.0771C117 27.5819 117.672 27.9912 118.5 27.9912C119.328 27.9912 120 27.5819 120 27.0771V19.9141C120 19.4093 119.328 19 118.5 19Z" fill="black"/>
        <path d="M112.5 21C111.672 21 111 21.4093 111 21.9141V25.4209C111 25.9257 111.672 26.335 112.5 26.335C113.328 26.335 114 25.9257 114 25.4209V21.9141C114 21.4093 113.328 21 112.5 21Z" fill="black"/>
        <path d="M190.5 15C189.672 15 189 15.2361 189 15.5273V32.4727C189 32.7639 189.672 33 190.5 33C191.328 33 192 32.7639 192 32.4727V15.5273C192 15.2361 191.328 15 190.5 15Z" fill="black"/>
        <path d="M196.5 13C195.672 13 195 13.4093 195 13.9141V33.8903C195 34.3951 195.672 34.8044 196.5 34.8044C197.328 34.8044 198 34.3951 198 33.8903V13.9141C198 13.4093 197.328 13 196.5 13Z" fill="black"/>
        <path d="M202.5 17C201.672 17 201 17.4093 201 17.9141V29.5611C201 30.0659 201.672 30.4752 202.5 30.4752C203.328 30.4752 204 30.0659 204 29.5611V17.9141C204 17.4092 203.328 17 202.5 17Z" fill="black"/>
        <path d="M208.5 19C207.672 19 207 19.4093 207 19.9141V27.0771C207 27.5819 207.672 27.9912 208.5 27.9912C209.328 27.9912 210 27.5819 210 27.0771V19.9141C210 19.4093 209.328 19 208.5 19Z" fill="black"/>
        <path d="M214.5 21C213.672 21 213 21.4093 213 21.9141V25.4209C213 25.9257 213.672 26.335 214.5 26.335C215.328 26.335 216 25.9257 216 25.4209V21.9141C216 21.4093 215.328 21 214.5 21Z" fill="black"/>
        <path d="M184.5 13C183.672 13 183 13.4093 183 13.9141V33.8903C183 34.3951 183.672 34.8044 184.5 34.8044C185.328 34.8044 186 34.3951 186 33.8903V13.9141C186 13.4093 185.328 13 184.5 13Z" fill="black"/>
        <path d="M178.5 17C177.672 17 177 17.4093 177 17.9141V29.5611C177 30.0659 177.672 30.4752 178.5 30.4752C179.328 30.4752 180 30.0659 180 29.5611V17.9141C180 17.4092 179.328 17 178.5 17Z" fill="black"/>
        <path d="M172.5 19C171.672 19 171 19.4093 171 19.9141V27.0771C171 27.5819 171.672 27.9912 172.5 27.9912C173.328 27.9912 174 27.5819 174 27.0771V19.9141C174 19.4093 173.328 19 172.5 19Z" fill="black"/>
        <path d="M166.5 21C165.672 21 165 21.4093 165 21.9141V25.4209C165 25.9257 165.672 26.335 166.5 26.335C167.328 26.335 168 25.9257 168 25.4209V21.9141C168 21.4093 167.328 21 166.5 21Z" fill="black"/>
        <path d="M244.5 16C243.672 16 243 16.2099 243 16.4688V31.5312C243 31.7901 243.672 32 244.5 32C245.328 32 246 31.7901 246 31.5312V16.4688C246 16.2099 245.328 16 244.5 16Z" fill="black"/>
        <path d="M250.5 13C249.672 13 249 13.4093 249 13.9141V33.8903C249 34.3951 249.672 34.8044 250.5 34.8044C251.328 34.8044 252 34.3951 252 33.8903V13.9141C252 13.4093 251.328 13 250.5 13Z" fill="black"/>
        <path d="M256.5 17C255.672 17 255 17.4093 255 17.9141V29.5611C255 30.0659 255.672 30.4752 256.5 30.4752C257.328 30.4752 258 30.0659 258 29.5611V17.9141C258 17.4092 257.328 17 256.5 17Z" fill="black"/>
        <path d="M262.5 19C261.672 19 261 19.4093 261 19.9141V27.0771C261 27.5819 261.672 27.9912 262.5 27.9912C263.328 27.9912 264 27.5819 264 27.0771V19.9141C264 19.4093 263.328 19 262.5 19Z" fill="black"/>
        <path d="M268.5 21C267.672 21 267 21.4093 267 21.9141V25.4209C267 25.9257 267.672 26.335 268.5 26.335C269.328 26.335 270 25.9257 270 25.4209V21.9141C270 21.4093 269.328 21 268.5 21Z" fill="black"/>
        <path d="M274.5 21C273.672 21 273 21.4093 273 21.9141V25.4209C273 25.9257 273.672 26.335 274.5 26.335C275.328 26.335 276 25.9257 276 25.4209V21.9141C276 21.4093 275.328 21 274.5 21Z" fill="black"/>
        <path d="M280.5 21C279.672 21 279 21.4093 279 21.9141V25.4209C279 25.9257 279.672 26.335 280.5 26.335C281.328 26.335 282 25.9257 282 25.4209V21.9141C282 21.4093 281.328 21 280.5 21Z" fill="black"/>
        <path d="M286.5 21C285.672 21 285 21.4093 285 21.9141V25.4209C285 25.9257 285.672 26.335 286.5 26.335C287.328 26.335 288 25.9257 288 25.4209V21.9141C288 21.4093 287.328 21 286.5 21Z" fill="black"/>
        <path d="M292.5 21C291.672 21 291 21.4093 291 21.9141V25.4209C291 25.9257 291.672 26.335 292.5 26.335C293.328 26.335 294 25.9257 294 25.4209V21.9141C294 21.4093 293.328 21 292.5 21Z" fill="black"/>
        <path d="M238.5 13C237.672 13 237 13.4093 237 13.9141V33.8903C237 34.3951 237.672 34.8044 238.5 34.8044C239.328 34.8044 240 34.3951 240 33.8903V13.9141C240 13.4093 239.328 13 238.5 13Z" fill="black"/>
        <path d="M232.5 17C231.672 17 231 17.4093 231 17.9141V29.5611C231 30.0659 231.672 30.4752 232.5 30.4752C233.328 30.4752 234 30.0659 234 29.5611V17.9141C234 17.4092 233.328 17 232.5 17Z" fill="black"/>
        <path d="M226.5 19C225.672 19 225 19.4093 225 19.9141V27.0771C225 27.5819 225.672 27.9912 226.5 27.9912C227.328 27.9912 228 27.5819 228 27.0771V19.9141C228 19.4093 227.328 19 226.5 19Z" fill="black"/>
        <path d="M220.5 21C219.672 21 219 21.4093 219 21.9141V25.4209C219 25.9257 219.672 26.335 220.5 26.335C221.328 26.335 222 25.9257 222 25.4209V21.9141C222 21.4093 221.328 21 220.5 21Z" fill="black"/>
</svg>