<svg width="32" height="32" viewBox="0 0 32 32" fill="none" xmlns="http://www.w3.org/2000/svg">
<path d="M16 0C24.8368 0 32 7.1632 32 16C32 24.8368 24.8368 32 16 32C7.1632 32 0 24.8368 0 16C0 7.1632 7.1632 0 16 0ZM16 3.2C8.9312 3.2 3.2 8.9312 3.2 16C3.2 23.0688 8.9312 28.8 16 28.8C23.0688 28.8 28.8 23.0688 28.8 16C28.8 8.9312 23.0688 3.2 16 3.2ZM22.1328 8.5392C22.512 8.2736 23.0272 8.3184 23.3536 8.6464C23.68 8.9728 23.7216 9.488 23.4544 9.8624C19.9664 14.736 18.0464 17.3472 17.6976 17.6976C16.76 18.6336 15.24 18.6336 14.3024 17.6976C13.3664 16.76 13.3664 15.24 14.3024 14.3024C14.9008 13.7056 17.5104 11.784 22.1328 8.5392ZM24.8 14.4C25.6832 14.4 26.4 15.1168 26.4 16C26.4 16.8832 25.6832 17.6 24.8 17.6C23.9168 17.6 23.2 16.8832 23.2 16C23.2 15.1168 23.9168 14.4 24.8 14.4ZM7.2 14.4C8.0832 14.4 8.8 15.1168 8.8 16C8.8 16.8832 8.0832 17.6 7.2 17.6C6.3168 17.6 5.6 16.8832 5.6 16C5.6 15.1168 6.3168 14.4 7.2 14.4ZM10.9088 8.6464C11.5328 9.2704 11.5328 10.2832 10.9088 10.9088C10.2848 11.5328 9.2704 11.5328 8.6464 10.9088C8.0224 10.2848 8.0224 9.2704 8.6464 8.6464C9.2704 8.0224 10.2832 8.0224 10.9088 8.6464ZM16 5.6C16.8832 5.6 17.6 6.3168 17.6 7.2C17.6 8.0832 16.8832 8.8 16 8.8C15.1168 8.8 14.4 8.0832 14.4 7.2C14.4 6.3168 15.1168 5.6 16 5.6Z" fill="#18A6E3"/>
</svg>
