<svg width="43" height="32" viewBox="0 0 43 32" fill="none" xmlns="http://www.w3.org/2000/svg">
    <path d="M2.66667 8H0V10.6667H2.66667V8Z" fill="url(#paint0_linear)"/>
    <path d="M2.66667 13.3334H0V16H2.66667V13.3334Z" fill="url(#paint1_linear)"/>
    <path d="M37.3333 5.33333V0H0V5.33333H2.66667V2.66667H34.6667V24H21.3333V21.3333C21.3317 18.4183 19.7445 15.7348 17.1907 14.3293C19.2248 12.199 19.1468 8.823 17.0164 6.78892C14.8861 4.75475 11.5101 4.83275 9.47592 6.96308C7.50792 9.02417 7.50792 12.2683 9.47592 14.3293C6.92217 15.7348 5.335 18.4183 5.33333 21.3333V24H2.66667V18.6667H0V26.6667H5.33333V32H42.6667V5.33333H37.3333ZM13.3333 8C14.8061 8 16 9.19392 16 10.6667C16 12.1394 14.8061 13.3333 13.3333 13.3333C11.8606 13.3333 10.6667 12.1394 10.6667 10.6667C10.6667 9.19392 11.8606 8 13.3333 8ZM8 21.3333C8 18.3878 10.3878 16 13.3333 16C16.2788 16 18.6667 18.3878 18.6667 21.3333V24H8V21.3333ZM40 29.3333H8V26.6667H37.3333V8H40V29.3333Z" fill="url(#paint2_linear)"/>
    <path d="M32 9.33337H24V12H32V9.33337Z" fill="url(#paint3_linear)"/>
    <path d="M26.6667 14.6666H24V17.3333H26.6667V14.6666Z" fill="url(#paint4_linear)"/>
    <path d="M31.9997 14.6666H29.333V17.3333H31.9997V14.6666Z" fill="url(#paint5_linear)"/>
    <defs>
    <linearGradient id="paint0_linear" x1="1.33333" y1="8" x2="1.33333" y2="10.6667" gradientUnits="userSpaceOnUse">
    <stop stop-color="#008ADB"/>
    <stop offset="1" stop-color="#00A8B3"/>
    </linearGradient>
    <linearGradient id="paint1_linear" x1="1.33333" y1="13.3334" x2="1.33333" y2="16" gradientUnits="userSpaceOnUse">
    <stop stop-color="#008ADB"/>
    <stop offset="1" stop-color="#00A8B3"/>
    </linearGradient>
    <linearGradient id="paint2_linear" x1="21.3333" y1="0" x2="21.3333" y2="32" gradientUnits="userSpaceOnUse">
    <stop stop-color="#008ADB"/>
    <stop offset="1" stop-color="#00A8B3"/>
    </linearGradient>
    <linearGradient id="paint3_linear" x1="28" y1="9.33337" x2="28" y2="12" gradientUnits="userSpaceOnUse">
    <stop stop-color="#008ADB"/>
    <stop offset="1" stop-color="#00A8B3"/>
    </linearGradient>
    <linearGradient id="paint4_linear" x1="25.3333" y1="14.6666" x2="25.3333" y2="17.3333" gradientUnits="userSpaceOnUse">
    <stop stop-color="#008ADB"/>
    <stop offset="1" stop-color="#00A8B3"/>
    </linearGradient>
    <linearGradient id="paint5_linear" x1="30.6663" y1="14.6666" x2="30.6663" y2="17.3333" gradientUnits="userSpaceOnUse">
    <stop stop-color="#008ADB"/>
    <stop offset="1" stop-color="#00A8B3"/>
    </linearGradient>
    </defs>
</svg>