<svg width="22" height="22" viewBox="0 0 22 22" fill="none" xmlns="http://www.w3.org/2000/svg">
<path d="M11 0C17.0753 0 22 4.9247 22 11C22 17.0753 17.0753 22 11 22C4.9247 22 0 17.0753 0 11C0 4.9247 4.9247 0 11 0ZM11 2.2C6.1402 2.2 2.2 6.1402 2.2 11C2.2 15.8598 6.1402 19.8 11 19.8C15.8598 19.8 19.8 15.8598 19.8 11C19.8 6.1402 15.8598 2.2 11 2.2ZM15.2163 5.8707C15.477 5.6881 15.8312 5.7189 16.0556 5.9444C16.28 6.1688 16.3086 6.523 16.1249 6.7804C13.7269 10.131 12.4069 11.9262 12.1671 12.1671C11.5225 12.8106 10.4775 12.8106 9.8329 12.1671C9.1894 11.5225 9.1894 10.4775 9.8329 9.8329C10.2443 9.4226 12.0384 8.1015 15.2163 5.8707ZM17.05 9.9C17.6572 9.9 18.15 10.3928 18.15 11C18.15 11.6072 17.6572 12.1 17.05 12.1C16.4428 12.1 15.95 11.6072 15.95 11C15.95 10.3928 16.4428 9.9 17.05 9.9ZM4.95 9.9C5.5572 9.9 6.05 10.3928 6.05 11C6.05 11.6072 5.5572 12.1 4.95 12.1C4.3428 12.1 3.85 11.6072 3.85 11C3.85 10.3928 4.3428 9.9 4.95 9.9ZM7.4998 5.9444C7.9288 6.3734 7.9288 7.0697 7.4998 7.4998C7.0708 7.9288 6.3734 7.9288 5.9444 7.4998C5.5154 7.0708 5.5154 6.3734 5.9444 5.9444C6.3734 5.5154 7.0697 5.5154 7.4998 5.9444ZM11 3.85C11.6072 3.85 12.1 4.3428 12.1 4.95C12.1 5.5572 11.6072 6.05 11 6.05C10.3928 6.05 9.9 5.5572 9.9 4.95C9.9 4.3428 10.3928 3.85 11 3.85Z" fill="#18A6E3"/>
</svg>
