<svg width="34" height="42" viewBox="0 0 34 42" fill="none" xmlns="http://www.w3.org/2000/svg">
<path d="M33.2724 13.5675L29.9911 10.2862C29.7604 10.0555 29.4474 9.92578 29.1211 9.92578H25.4297V3.69141C25.4297 1.65596 23.7737 0 21.7383 0H3.69141C1.65596 0 0 1.65596 0 3.69141V38.3086C0 40.344 1.65596 42 3.69141 42H21.7383C23.7737 42 25.4297 40.344 25.4297 38.3086V31.6477C27.7535 30.5565 29.7298 28.8718 31.1776 26.7332C32.7838 24.3609 33.6328 21.5925 33.6328 18.7275V14.4375C33.6328 14.1112 33.5031 13.7982 33.2724 13.5675ZM15.9295 2.46094L15.1092 4.92188H10.3204L9.50012 2.46094H15.9295ZM22.9688 38.3086C22.9688 38.9871 22.4168 39.5391 21.7383 39.5391H3.69141C3.01293 39.5391 2.46094 38.9871 2.46094 38.3086V3.69141C2.46094 3.01293 3.01293 2.46094 3.69141 2.46094H6.90605L8.26621 6.5415C8.4338 7.04394 8.90392 7.38281 9.43359 7.38281H15.9961C16.5258 7.38281 16.9959 7.04394 17.1634 6.5415L18.5236 2.46094H21.7383C22.4168 2.46094 22.9688 3.01293 22.9688 3.69141V9.92578H19.2773C18.951 9.92578 18.6381 10.0555 18.4073 10.2862L15.1261 13.5675C14.8953 13.7982 14.7656 14.1112 14.7656 14.4375V18.7275C14.7656 21.5925 15.6146 24.3609 17.2208 26.7333C18.6687 28.8719 20.645 30.5566 22.9688 31.6477V38.3086ZM31.1719 18.7275C31.1719 23.4223 28.4513 27.6009 24.1992 29.5075C19.9471 27.6009 17.2266 23.4223 17.2266 18.7275V14.9472L19.787 12.3867H28.6114L31.1719 14.9472V18.7275Z" fill="url(#paint0_linear)"/>
<path d="M26.8093 17.3292L23.039 21.0994L21.5888 19.6493C21.1084 19.1688 20.3292 19.1688 19.8487 19.6493C19.3681 20.1299 19.3681 20.9089 19.8487 21.3895L22.1689 23.7096C22.4091 23.9499 22.724 24.0701 23.0389 24.0701C23.3537 24.0701 23.6687 23.95 23.9089 23.7096L28.5492 19.0693C29.0298 18.5887 29.0298 17.8097 28.5492 17.3292C28.0689 16.8486 27.2897 16.8486 26.8093 17.3292Z" fill="url(#paint1_linear)"/>
<path d="M15.1758 34.6172H10.2539C9.57436 34.6172 9.02344 35.1681 9.02344 35.8477C9.02344 36.5272 9.57436 37.0781 10.2539 37.0781H15.1758C15.8553 37.0781 16.4062 36.5272 16.4062 35.8477C16.4062 35.1681 15.8553 34.6172 15.1758 34.6172Z" fill="url(#paint2_linear)"/>
<defs>
<linearGradient id="paint0_linear" x1="16.8164" y1="0" x2="16.8164" y2="42" gradientUnits="userSpaceOnUse">
<stop stop-color="#008ADB"/>
<stop offset="1" stop-color="#00A8B3"/>
</linearGradient>
<linearGradient id="paint1_linear" x1="24.199" y1="16.9688" x2="24.199" y2="24.0701" gradientUnits="userSpaceOnUse">
<stop stop-color="#008ADB"/>
<stop offset="1" stop-color="#00A8B3"/>
</linearGradient>
<linearGradient id="paint2_linear" x1="12.7148" y1="34.6172" x2="12.7148" y2="37.0781" gradientUnits="userSpaceOnUse">
<stop stop-color="#008ADB"/>
<stop offset="1" stop-color="#00A8B3"/>
</linearGradient>
</defs>
</svg>
