<svg width="35" height="42" viewBox="0 0 35 42" fill="none" xmlns="http://www.w3.org/2000/svg">
<path d="M26.6875 35.875H1.3125C0.588 35.875 0 35.287 0 34.5625C0 33.838 0.588 33.25 1.3125 33.25H26.6875C27.412 33.25 28 33.838 28 34.5625C28 35.287 27.412 35.875 26.6875 35.875Z" fill="url(#paint0_linear)"/>
<path d="M23.1875 42H4.8125C2.15775 42 0 39.8423 0 37.1875V4.8125C0 2.15775 2.15775 0 4.8125 0H23.1875C25.396 0 27.314 1.4945 27.8547 3.633C28.0332 4.33475 27.6063 5.04875 26.9045 5.22725C26.201 5.404 25.487 4.97875 25.3102 4.277C25.0635 3.304 24.192 2.625 23.1875 2.625H4.8125C3.60675 2.625 2.625 3.60675 2.625 4.8125V37.1875C2.625 38.3932 3.60675 39.375 4.8125 39.375H23.1875C24.3932 39.375 25.375 38.3932 25.375 37.1875V32.8125C25.375 32.088 25.963 31.5 26.6875 31.5C27.412 31.5 28 32.088 28 32.8125V37.1875C28 39.8423 25.8423 42 23.1875 42Z" fill="url(#paint1_linear)"/>
<path d="M31.9375 28H22.3125C20.6238 28 19.25 26.6263 19.25 24.9375V18.8125C19.25 17.1238 20.6238 15.75 22.3125 15.75H31.9375C33.6263 15.75 35 17.1238 35 18.8125V24.9375C35 26.6263 33.6263 28 31.9375 28ZM22.3125 18.375C22.071 18.375 21.875 18.571 21.875 18.8125V24.9375C21.875 25.179 22.071 25.375 22.3125 25.375H31.9375C32.179 25.375 32.375 25.179 32.375 24.9375V18.8125C32.375 18.571 32.179 18.375 31.9375 18.375H22.3125Z" fill="url(#paint2_linear)"/>
<path d="M30.1875 18.375H24.0625C23.338 18.375 22.75 17.787 22.75 17.0625V13.125C22.75 10.7135 24.7135 8.75 27.125 8.75C29.5365 8.75 31.5 10.7135 31.5 13.125V17.0625C31.5 17.787 30.912 18.375 30.1875 18.375ZM25.375 15.75H28.875V13.125C28.875 12.1607 28.0893 11.375 27.125 11.375C26.1607 11.375 25.375 12.1607 25.375 13.125V15.75Z" fill="url(#paint3_linear)"/>
<defs>
<linearGradient id="paint0_linear" x1="14" y1="33.25" x2="14" y2="35.875" gradientUnits="userSpaceOnUse">
<stop stop-color="#008ADB"/>
<stop offset="1" stop-color="#00A8B3"/>
</linearGradient>
<linearGradient id="paint1_linear" x1="14" y1="0" x2="14" y2="42" gradientUnits="userSpaceOnUse">
<stop stop-color="#008ADB"/>
<stop offset="1" stop-color="#00A8B3"/>
</linearGradient>
<linearGradient id="paint2_linear" x1="27.125" y1="15.75" x2="27.125" y2="28" gradientUnits="userSpaceOnUse">
<stop stop-color="#008ADB"/>
<stop offset="1" stop-color="#00A8B3"/>
</linearGradient>
<linearGradient id="paint3_linear" x1="27.125" y1="8.75" x2="27.125" y2="18.375" gradientUnits="userSpaceOnUse">
<stop stop-color="#008ADB"/>
<stop offset="1" stop-color="#00A8B3"/>
</linearGradient>
</defs>
</svg>
