<svg width="94" height="19" viewBox="0 0 94 19" fill="none" xmlns="http://www.w3.org/2000/svg">
<g style="mix-blend-mode:luminosity" clip-path="url(#clip0)">
<path d="M25.2756 14.8312V18.1956H23.1655V7.24308H25.2756V7.76708C25.904 7.35849 26.6361 7.13804 27.3857 7.13171C29.7818 7.13171 31.5437 9.03665 31.5437 11.3062C31.5437 13.5757 29.7982 15.4806 27.3857 15.4806C26.6329 15.4819 25.8974 15.2555 25.2756 14.8312ZM25.2756 10.3074V12.244C25.4421 12.5984 25.7007 12.9015 26.0246 13.1216C26.3484 13.3418 26.7254 13.4708 27.1162 13.4952C27.507 13.5196 27.8971 13.4385 28.2458 13.2604C28.5945 13.0823 28.8889 12.8137 29.0982 12.4828C29.3075 12.1519 29.4239 11.7708 29.4354 11.3794C29.4468 10.988 29.3528 10.6008 29.1633 10.2582C28.9737 9.91556 28.6955 9.63023 28.3578 9.43204C28.0202 9.23384 27.6354 9.13008 27.2439 9.13161C26.839 9.12589 26.4406 9.23282 26.093 9.44045C25.7455 9.64808 25.4625 9.94823 25.2756 10.3074Z" fill="#101010"/>
<path d="M32.6867 5.0357C32.6798 4.87597 32.7056 4.71652 32.7626 4.56716C32.8197 4.41779 32.9066 4.28166 33.0182 4.16714C33.1297 4.05262 33.2635 3.96213 33.4113 3.90123C33.5592 3.84033 33.7179 3.81031 33.8777 3.81302C34.0398 3.81021 34.2008 3.8398 34.3512 3.90006C34.5017 3.96031 34.6386 4.05002 34.7539 4.16392C34.8692 4.27782 34.9606 4.4136 35.0227 4.56331C35.0849 4.71301 35.1165 4.87362 35.1156 5.0357C35.1122 5.36166 34.9803 5.67311 34.7485 5.90229C34.5166 6.13148 34.2037 6.25987 33.8777 6.25954C33.7187 6.25881 33.5615 6.2264 33.4152 6.16423C33.2689 6.10205 33.1364 6.01135 33.0255 5.89742C32.9147 5.78348 32.8276 5.6486 32.7694 5.50065C32.7112 5.3527 32.6831 5.19464 32.6867 5.0357ZM32.8145 7.24308H34.9574V15.354H32.8145V7.24308Z" fill="#101010"/>
<path d="M36.2258 11.2757C36.2215 10.7298 36.3264 10.1886 36.5343 9.68377C36.7422 9.17898 37.0489 8.72085 37.4364 8.3363C37.8239 7.95175 38.2844 7.64854 38.7907 7.4445C39.2971 7.24046 39.8391 7.13971 40.385 7.14817C41.1313 7.14854 41.8659 7.33381 42.5232 7.68741V7.24312H44.6192V14.8933C44.6192 17.0034 42.7928 18.1476 40.5081 18.1476C39.0158 18.1476 37.5868 17.7033 36.6501 16.9753L37.5235 15.4678C38.4136 16.038 39.451 16.3359 40.5081 16.3247C41.984 16.3247 42.4447 15.7386 42.508 14.7855C41.8722 15.1922 41.1349 15.4119 40.3803 15.4197C37.9514 15.4174 36.2258 13.6085 36.2258 11.2757ZM42.5232 12.1795V10.3707C42.3459 9.99332 42.0655 9.67374 41.7143 9.44889C41.3631 9.22404 40.9555 9.10309 40.5386 9.09999C40.2506 9.09721 39.965 9.15136 39.698 9.25934C39.4311 9.36732 39.1881 9.527 38.9831 9.72919C38.7781 9.93138 38.615 10.1721 38.5034 10.4375C38.3917 10.7029 38.3336 10.9878 38.3323 11.2757C38.3323 12.5289 39.2842 13.4022 40.5233 13.4022C40.9391 13.4131 41.3491 13.3034 41.704 13.0864C42.0588 12.8695 42.3433 12.5545 42.5232 12.1795Z" fill="#101010"/>
<path d="M45.8911 11.2757C45.8868 10.7298 45.9917 10.1886 46.1996 9.68377C46.4075 9.17898 46.7142 8.72085 47.1017 8.3363C47.4892 7.95175 47.9497 7.64854 48.4561 7.4445C48.9624 7.24046 49.5045 7.13971 50.0503 7.14817C50.7982 7.14791 51.5345 7.33319 52.1932 7.68741V7.24312H54.2881V14.8933C54.2881 17.0034 52.4629 18.1476 50.1781 18.1476C48.6858 18.1476 47.2568 17.7033 46.3202 16.9753L47.1935 15.4678C48.0836 16.0382 49.121 16.3361 50.1781 16.3247C51.654 16.3247 52.1147 15.7386 52.178 14.7855C51.5422 15.192 50.8049 15.4117 50.0503 15.4197C47.6214 15.4174 45.8911 13.6085 45.8911 11.2757ZM52.1932 12.1795V10.3707C52.0158 9.99341 51.7354 9.67391 51.3842 9.44907C51.0331 9.22424 50.6255 9.10323 50.2086 9.09999C49.9206 9.09721 49.635 9.15136 49.3681 9.25934C49.1011 9.36732 48.8582 9.527 48.6531 9.72919C48.4481 9.93138 48.2851 10.1721 48.1734 10.4375C48.0617 10.7029 48.0036 10.9878 48.0024 11.2757C48.0024 12.5289 48.9543 13.4022 50.1933 13.4022C50.6091 13.4129 51.019 13.3032 51.3739 13.0863C51.7287 12.8693 52.0132 12.5544 52.1932 12.1795Z" fill="#101010"/>
<path d="M57.3664 7.24307L59.4941 12.6554L61.6839 7.24307H63.9112L59.2397 18.1956H57.2562L58.4285 15.2755L55.0184 7.24307H57.3664Z" fill="#101010"/>
<path d="M63.5069 7.24307H65.7764L67.8443 12.7199L69.8922 7.24307H72.1195L68.8653 15.354H66.7306L63.5069 7.24307Z" fill="#101010"/>
<path d="M72.2696 11.2428C72.2696 8.95809 73.9037 7.06839 76.4593 7.06839C78.8249 7.06839 80.622 8.84672 80.6654 11.1831C80.6818 11.384 80.6818 11.5859 80.6654 11.7868H74.2695C74.3328 12.9297 75.4277 13.6753 76.6023 13.6753C77.5706 13.6753 78.1415 13.4057 78.8085 12.8547L79.9679 14.0774C79.0301 15.0609 78.0923 15.5216 76.6023 15.5216C73.8568 15.5134 72.2696 13.4655 72.2696 11.2428ZM74.3797 10.2745H78.4756C78.2693 9.51374 77.5378 8.84672 76.4276 8.84672C75.1417 8.84672 74.6024 9.49733 74.3797 10.2745Z" fill="#101010"/>
<path d="M81.1084 14.4818L82.1459 12.7985C83.077 13.4191 84.1686 13.7555 85.2875 13.7667C86.352 13.7667 86.8912 13.4971 86.8912 13.0376C86.8912 12.7351 86.6368 12.5136 86.0976 12.4022L83.8703 11.9263C82.2361 11.5746 81.4894 10.7997 81.4894 9.53017C81.4894 8.18088 82.6323 7.05316 84.998 7.05316C86.4258 7.05316 87.6942 7.46697 88.5687 8.00622L87.6004 9.62512C86.8865 9.24413 85.9346 8.83149 84.9335 8.83149C84.0297 8.83149 83.5057 9.05422 83.5057 9.46569C83.5057 9.73649 83.6968 9.91115 84.2196 10.0061L86.0952 10.3578C88.1268 10.754 88.9087 11.659 88.9087 12.8817C88.9087 14.6401 87.1503 15.5638 85.2254 15.5638C83.7793 15.5918 82.3539 15.2172 81.1084 14.4818Z" fill="#101010"/>
<path d="M89.3306 7.24304H90.5369V5.00518L92.647 3.64066V7.24304H93.8849V9.08467H92.6481V15.3551H90.5381V9.08467H89.3295V7.24304H89.3306Z" fill="#101010"/>
<path d="M17.8821 8.54822C17.8469 8.03336 17.7625 7.52306 17.6301 7.02428C17.0263 4.79696 15.7544 3.04442 13.8155 1.79361C12.5942 0.999341 11.1914 0.527843 9.73835 0.423228C9.12787 0.378638 8.51446 0.395132 7.90726 0.472463C7.26758 0.557131 6.63879 0.710005 6.03163 0.928476C4.41485 1.51168 3.00379 2.55472 1.97201 3.92932C0.940223 5.30393 0.332717 6.95013 0.224213 8.66545C0.204285 8.98079 0.204285 9.29848 0.204285 9.61499V17.3098C0.204285 17.5097 0.283699 17.7014 0.425058 17.8428C0.566418 17.9841 0.758142 18.0635 0.958054 18.0635H3.93093C4.11697 18.0624 4.29613 17.993 4.43442 17.8685C4.57271 17.7441 4.66051 17.5732 4.68118 17.3883C4.70074 17.3161 4.71099 17.2416 4.71166 17.1667V16.9886C4.70991 16.9749 4.70991 16.9612 4.71166 16.9475V16.9276C4.73194 16.933 4.75102 16.9421 4.76793 16.9546C5.87992 17.5695 7.11144 17.9373 8.37852 18.0331C8.88603 18.0706 9.3958 18.0655 9.90247 18.0178C11.0952 17.908 12.2528 17.5551 13.304 16.9809C14.3552 16.4067 15.2777 15.6234 16.0147 14.6792C17.0652 13.3577 17.708 11.7589 17.8645 10.078C17.9175 9.56973 17.9234 9.05761 17.8821 8.54822ZM10.6375 13.4647C10.6322 13.4918 10.6176 13.5162 10.5962 13.5336C10.5747 13.5509 10.5478 13.5602 10.5203 13.5597H7.58958C7.56199 13.5602 7.53511 13.5509 7.51366 13.5336C7.49222 13.5162 7.47759 13.4918 7.47235 13.4647V13.446V13.3369C7.47171 13.2024 7.48666 13.0683 7.5169 12.9372C7.53566 12.8927 7.54738 12.8399 7.56613 12.7907C7.58489 12.7414 7.60365 12.6957 7.6224 12.6476C7.64116 12.5996 7.67164 12.5562 7.69743 12.5152L7.73963 12.4519C7.76718 12.4109 7.79733 12.3718 7.8299 12.3347C7.86389 12.2925 7.89789 12.2561 7.93188 12.2174C8.10825 12.044 8.32257 11.9139 8.55787 11.8376C8.35517 11.7272 8.19495 11.5526 8.10246 11.3411C8.00997 11.1296 7.99045 10.8934 8.047 10.6697C8.10355 10.4459 8.23294 10.2473 8.41478 10.1052C8.59663 9.96303 8.8206 9.88544 9.0514 9.88461C9.32696 9.8867 9.59077 9.99651 9.78641 10.1906C9.89967 10.3046 9.98494 10.4433 10.0355 10.5958C10.0861 10.7483 10.1006 10.9105 10.0779 11.0695C10.0551 11.2286 9.9958 11.3802 9.90455 11.5125C9.8133 11.6448 9.6926 11.754 9.55196 11.8318C9.86852 11.9361 10.144 12.1379 10.3389 12.4082C10.5339 12.6786 10.6384 13.0036 10.6375 13.3369C10.6375 13.3791 10.6375 13.4249 10.6375 13.4647ZM15.69 7.08054H2.42456C2.3997 7.08037 2.37523 7.07431 2.35317 7.06283C2.3311 7.05136 2.31208 7.03482 2.29766 7.01456C2.28324 6.9943 2.27384 6.97091 2.27022 6.94631C2.2666 6.92171 2.26888 6.8966 2.27686 6.87305C2.77183 5.47031 3.68972 4.25564 4.904 3.39645C6.11828 2.53727 7.56917 2.07588 9.05667 2.07588C10.5442 2.07588 11.9951 2.53727 13.2093 3.39645C14.4236 4.25564 15.3415 5.47031 15.8365 6.87305C15.8444 6.89651 15.8467 6.92151 15.8432 6.94603C15.8396 6.97054 15.8303 6.99386 15.816 7.01409C15.8017 7.03432 15.7829 7.05089 15.761 7.06244C15.7391 7.07399 15.7147 7.08019 15.69 7.08054Z" fill="#101010"/>
</g>
<defs>
<clipPath id="clip0">
<rect width="93.6819" height="17.7974" fill="white" transform="translate(0.204285 0.398193)"/>
</clipPath>
</defs>
</svg>
