<svg width="153" height="44" viewBox="0 0 153 44" fill="none" xmlns="http://www.w3.org/2000/svg">
<path d="M147.08 44H6.24869C3.1518 44 0.615417 41.5236 0.615417 38.5V5.50001C0.615417 2.47638 3.1518 7.04954e-06 6.24869 7.04954e-06H147.08C150.177 7.04954e-06 152.714 2.47638 152.714 5.50001V38.5C152.714 41.5236 150.177 44 147.08 44Z" fill="black"/>
<path d="M147.08 0.881381C149.689 0.881381 151.811 2.9535 151.811 5.50001V38.5C151.811 41.0465 149.689 43.1186 147.08 43.1186H6.24869C3.64048 43.1186 1.51815 41.0465 1.51815 38.5V5.50001C1.51815 2.9535 3.64048 0.881381 6.24869 0.881381H147.08ZM147.08 7.04954e-06H6.24869C3.1518 7.04954e-06 0.615417 2.47638 0.615417 5.50001V38.5C0.615417 41.5236 3.1518 44 6.24869 44H147.08C150.177 44 152.714 41.5236 152.714 38.5V5.50001C152.714 2.47638 150.177 7.04954e-06 147.08 7.04954e-06Z" fill="#A6A6A6"/>
<path d="M54.0385 11.2681C54.0385 12.1866 53.7568 12.9223 53.2019 13.4709C52.564 14.1213 51.7331 14.4485 50.7149 14.4485C49.7417 14.4485 48.9108 14.1158 48.2292 13.4599C47.5461 12.7944 47.2053 11.9776 47.2053 11C47.2053 10.0224 47.5461 9.20564 48.2292 8.54564C48.9108 7.88426 49.7417 7.55151 50.7149 7.55151C51.1993 7.55151 51.6612 7.64914 52.102 7.83064C52.5414 8.01351 52.8991 8.26101 53.1583 8.56626L52.5696 9.14651C52.1175 8.62539 51.5021 8.36826 50.7149 8.36826C50.0051 8.36826 49.3896 8.61026 48.8671 9.09839C48.3503 9.58789 48.0912 10.2218 48.0912 11C48.0912 11.7783 48.3503 12.4176 48.8671 12.9071C49.3896 13.3898 50.0051 13.6373 50.7149 13.6373C51.4683 13.6373 52.102 13.3898 52.602 12.9016C52.9315 12.5785 53.1189 12.133 53.1681 11.5638H50.7149V10.769H53.9878C54.0272 10.9409 54.0385 11.1073 54.0385 11.2681Z" fill="white" stroke="white" stroke-width="0.16" stroke-miterlimit="10"/>
<path d="M59.231 8.51263H56.1566V10.6026H58.9282V11.3974H56.1566V13.4874H59.231V14.2973H55.2863V7.70276H59.231V8.51263Z" fill="white" stroke="white" stroke-width="0.16" stroke-miterlimit="10"/>
<path d="M62.8954 14.2973H62.0251V8.51263H60.1394V7.70276H64.7826V8.51263H62.8954V14.2973Z" fill="white" stroke="white" stroke-width="0.16" stroke-miterlimit="10"/>
<path d="M68.1428 14.2973V7.70276H69.0118V14.2973H68.1428Z" fill="white" stroke="white" stroke-width="0.16" stroke-miterlimit="10"/>
<path d="M72.8635 14.2973H72.0002V8.51263H70.1074V7.70276H74.7563V8.51263H72.8635V14.2973Z" fill="white" stroke="white" stroke-width="0.16" stroke-miterlimit="10"/>
<path d="M83.547 13.4489C82.8809 14.1158 82.0556 14.4485 81.0712 14.4485C80.0811 14.4485 79.2558 14.1158 78.5897 13.4489C77.925 12.7834 77.594 11.9666 77.594 11C77.594 10.0334 77.925 9.21664 78.5897 8.55114C79.2558 7.88426 80.0811 7.55151 81.0712 7.55151C82.0499 7.55151 82.8752 7.88426 83.5414 8.55664C84.2117 9.22764 84.5427 10.0389 84.5427 11C84.5427 11.9666 84.2117 12.7834 83.547 13.4489ZM79.2333 12.8961C79.7347 13.3898 80.3445 13.6373 81.0712 13.6373C81.7922 13.6373 82.4077 13.3898 82.9034 12.8961C83.4033 12.4025 83.6568 11.7686 83.6568 11C83.6568 10.2314 83.4033 9.59751 82.9034 9.10389C82.4077 8.61026 81.7922 8.36276 81.0712 8.36276C80.3445 8.36276 79.7347 8.61026 79.2333 9.10389C78.7334 9.59751 78.4799 10.2314 78.4799 11C78.4799 11.7686 78.7334 12.4025 79.2333 12.8961Z" fill="white" stroke="white" stroke-width="0.16" stroke-miterlimit="10"/>
<path d="M85.7637 14.2973V7.70276H86.8199L90.1041 12.8315H90.1422L90.1041 11.5638V7.70276H90.9731V14.2973H90.0661L86.627 8.91551H86.589L86.627 10.1888V14.2973H85.7637Z" fill="white" stroke="white" stroke-width="0.16" stroke-miterlimit="10"/>
<path d="M77.38 23.9278C74.7337 23.9278 72.572 25.894 72.572 28.6069C72.572 31.2978 74.7337 33.2847 77.38 33.2847C80.0318 33.2847 82.1936 31.2978 82.1936 28.6069C82.1936 25.894 80.0318 23.9278 77.38 23.9278ZM77.38 31.4422C75.928 31.4422 74.6788 30.272 74.6788 28.6069C74.6788 26.9198 75.928 25.7703 77.38 25.7703C78.8319 25.7703 80.0867 26.9198 80.0867 28.6069C80.0867 30.272 78.8319 31.4422 77.38 31.4422ZM66.8894 23.9278C64.2375 23.9278 62.0814 25.894 62.0814 28.6069C62.0814 31.2978 64.2375 33.2847 66.8894 33.2847C69.5399 33.2847 71.6974 31.2978 71.6974 28.6069C71.6974 25.894 69.5399 23.9278 66.8894 23.9278ZM66.8894 31.4422C65.436 31.4422 64.1826 30.272 64.1826 28.6069C64.1826 26.9198 65.436 25.7703 66.8894 25.7703C68.3414 25.7703 69.5906 26.9198 69.5906 28.6069C69.5906 30.272 68.3414 31.4422 66.8894 31.4422ZM54.4061 25.3619V27.3502H59.269C59.1268 28.4612 58.7465 29.2779 58.1635 29.8472C57.4537 30.5347 56.3481 31.2978 54.4061 31.2978C51.4134 31.2978 49.07 28.9397 49.07 26.0178C49.07 23.0959 51.4134 20.7378 54.4061 20.7378C56.0242 20.7378 57.2016 21.3552 58.0705 22.1554L59.5056 20.7543C58.2902 19.6213 56.6735 18.7509 54.4061 18.7509C50.3022 18.7509 46.8533 22.011 46.8533 26.0178C46.8533 30.0245 50.3022 33.2847 54.4061 33.2847C56.6242 33.2847 58.2902 32.5752 59.6 31.2442C60.9421 29.9338 61.3603 28.0913 61.3603 26.6035C61.3603 26.1415 61.3209 25.7167 61.2505 25.3619H54.4061ZM105.452 26.9033C105.056 25.8569 103.835 23.9278 101.348 23.9278C98.8836 23.9278 96.8316 25.8239 96.8316 28.6069C96.8316 31.2277 98.8624 33.2847 101.585 33.2847C103.786 33.2847 105.056 31.9743 105.579 31.2112L103.945 30.1483C103.4 30.9265 102.658 31.4422 101.585 31.4422C100.519 31.4422 99.7539 30.965 99.2638 30.0245L105.673 27.4354L105.452 26.9033ZM98.9174 28.4612C98.8624 26.6572 100.352 25.7332 101.42 25.7332C102.256 25.7332 102.966 26.1415 103.203 26.7259L98.9174 28.4612ZM93.708 33H95.8148V19.25H93.708V33ZM90.2576 24.97H90.1872C89.714 24.4228 88.8113 23.9278 87.6677 23.9278C85.268 23.9278 83.0738 25.9848 83.0738 28.622C83.0738 31.2442 85.268 33.2847 87.6677 33.2847C88.8113 33.2847 89.714 32.7855 90.1872 32.2218H90.2576V32.8928C90.2576 34.6817 89.2788 35.6428 87.7001 35.6428C86.4129 35.6428 85.6144 34.7353 85.2848 33.9722L83.4526 34.7188C83.9807 35.959 85.3792 37.4853 87.7001 37.4853C90.1703 37.4853 92.2546 36.0663 92.2546 32.6137V24.2124H90.2576V24.97ZM87.848 31.4422C86.396 31.4422 85.1806 30.2555 85.1806 28.622C85.1806 26.9734 86.396 25.7703 87.848 25.7703C89.2788 25.7703 90.4069 26.9734 90.4069 28.622C90.4069 30.2555 89.2788 31.4422 87.848 31.4422ZM115.316 19.25H110.277V33H112.378V27.7902H115.316C117.649 27.7902 119.938 26.1415 119.938 23.5194C119.938 20.8987 117.644 19.25 115.316 19.25ZM115.371 25.8775H112.378V21.1627H115.371C116.94 21.1627 117.835 22.4345 117.835 23.5194C117.835 24.5837 116.94 25.8775 115.371 25.8775ZM128.36 23.9017C126.841 23.9017 125.263 24.5562 124.614 26.0068L126.478 26.7699C126.88 26.0068 127.617 25.7593 128.398 25.7593C129.488 25.7593 130.593 26.3987 130.61 27.5275V27.6719C130.23 27.4574 129.416 27.1398 128.415 27.1398C126.406 27.1398 124.36 28.2192 124.36 30.2335C124.36 32.076 126.005 33.2627 127.854 33.2627C129.268 33.2627 130.048 32.6398 130.538 31.9152H130.61V32.978H132.64V27.7035C132.64 25.2657 130.775 23.9017 128.36 23.9017ZM128.106 31.4367C127.419 31.4367 126.461 31.1039 126.461 30.272C126.461 29.2078 127.655 28.7994 128.689 28.7994C129.614 28.7994 130.048 28.9988 130.61 29.2614C130.445 30.5347 129.323 31.4367 128.106 31.4367ZM140.033 24.2028L137.618 30.1634H137.546L135.049 24.2028H132.783L136.535 32.5325L134.394 37.1677H136.59L142.371 24.2028H140.033ZM121.093 33H123.2V19.25H121.093V33Z" fill="white"/>
<path d="M12.372 8.29261C12.0411 8.63086 11.8495 9.15748 11.8495 9.83948V34.166C11.8495 34.848 12.0411 35.3746 12.372 35.7129L12.4537 35.7871L26.4158 22.1609V21.8391L12.4537 8.21286L12.372 8.29261Z" fill="url(#paint0_linear)"/>
<path d="M31.0646 26.7052L26.4158 22.1608V21.8391L31.0702 17.2947L31.1745 17.3538L36.6866 20.416C38.2597 21.285 38.2597 22.715 36.6866 23.5895L31.1745 26.6461L31.0646 26.7052Z" fill="url(#paint1_linear)"/>
<path d="M31.1745 26.6461L26.4158 22L12.372 35.7128C12.8945 36.2491 13.7465 36.3137 14.7154 35.7775L31.1745 26.6461Z" fill="url(#paint2_linear)"/>
<path d="M31.1745 17.3539L14.7154 8.2225C13.7465 7.69175 12.8945 7.75638 12.372 8.29263L26.4158 22L31.1745 17.3539Z" fill="url(#paint3_linear)"/>
<defs>
<linearGradient id="paint0_linear" x1="25.1761" y1="34.4193" x2="6.72077" y2="15.5168" gradientUnits="userSpaceOnUse">
<stop stop-color="#00A0FF"/>
<stop offset="0.0066" stop-color="#00A1FF"/>
<stop offset="0.2601" stop-color="#00BEFF"/>
<stop offset="0.5122" stop-color="#00D2FF"/>
<stop offset="0.7604" stop-color="#00DFFF"/>
<stop offset="1" stop-color="#00E3FF"/>
</linearGradient>
<linearGradient id="paint1_linear" x1="38.735" y1="21.9984" x2="11.4735" y2="21.9984" gradientUnits="userSpaceOnUse">
<stop stop-color="#FFE000"/>
<stop offset="0.4087" stop-color="#FFBD00"/>
<stop offset="0.7754" stop-color="#FFA500"/>
<stop offset="1" stop-color="#FF9C00"/>
</linearGradient>
<linearGradient id="paint2_linear" x1="28.5868" y1="19.4743" x2="3.55986" y2="-6.15913" gradientUnits="userSpaceOnUse">
<stop stop-color="#FF3A44"/>
<stop offset="1" stop-color="#C31162"/>
</linearGradient>
<linearGradient id="paint3_linear" x1="8.83691" y1="43.8062" x2="20.0126" y2="32.3598" gradientUnits="userSpaceOnUse">
<stop stop-color="#32A071"/>
<stop offset="0.0685" stop-color="#2DA771"/>
<stop offset="0.4762" stop-color="#15CF74"/>
<stop offset="0.8009" stop-color="#06E775"/>
<stop offset="1" stop-color="#00F076"/>
</linearGradient>
</defs>
</svg>
