<svg width="41" height="42" viewBox="0 0 41 42" fill="none" xmlns="http://www.w3.org/2000/svg">
<path d="M32.8125 13.2953V3.69141C32.8125 1.65596 31.1565 0 29.1211 0H11.0742C9.03874 0 7.38278 1.65596 7.38278 3.69141V8.70138C3.33076 9.28495 0.168128 12.7166 0.00660894 16.886C-0.167133 21.3685 3.10542 25.1369 7.38278 25.7515V38.3086C7.38278 40.344 9.03874 42 11.0742 42H29.1211C31.1565 42 32.8125 40.344 32.8125 38.3086V32.0742H34.8632C36.4464 32.0742 37.7343 30.7862 37.7343 29.2031V28.5821C39.1667 28.0743 40.1953 26.7058 40.1953 25.1016V21.8203C40.1953 17.4887 36.981 13.8942 32.8125 13.2953ZM2.46984 16.8918C2.63596 13.7727 5.15957 11.2492 8.27872 11.0832C11.8223 10.8945 14.7656 13.7233 14.7656 17.2266C14.7656 18.3336 14.4681 19.4189 13.9056 20.3652C13.7323 20.6565 13.687 21.0063 13.7801 21.3321L14.2046 22.8177L12.7189 22.3932C12.3931 22.3001 12.0433 22.3456 11.7521 22.5187C10.8057 23.0815 9.72034 23.3789 8.61325 23.3789C5.10985 23.3789 2.28109 20.4355 2.46984 16.8918ZM30.3515 38.3086C30.3515 38.9871 29.7995 39.5391 29.1211 39.5391H11.0742C10.3957 39.5391 9.84371 38.9871 9.84371 38.3086V25.7513C10.7795 25.6165 11.6878 25.3292 12.5302 24.8988L15.6582 25.7926C16.5863 26.0578 17.4444 25.1997 17.1792 24.2716L16.2855 21.1435C16.9026 19.9356 17.2265 18.5924 17.2265 17.2266C17.2265 12.8949 14.0124 9.2998 9.84371 8.70097V3.69141C9.84371 3.01293 10.3957 2.46094 11.0742 2.46094H29.1211C29.7995 2.46094 30.3515 3.01293 30.3515 3.69141V13.2953C26.1829 13.8942 22.9687 17.4887 22.9687 21.8203V25.1016C22.9687 26.7058 23.9973 28.0743 25.4297 28.5821V29.2031C25.4297 30.7862 26.7176 32.0742 28.3007 32.0742H30.3515V38.3086ZM37.7343 25.1016C37.7343 25.78 37.1824 26.332 36.5039 26.332C35.8243 26.332 35.2734 26.883 35.2734 27.5625V29.2031C35.2734 29.4293 35.0894 29.6133 34.8632 29.6133H32.8125V28.3828C32.8125 27.7033 32.2615 27.1523 31.582 27.1523C30.9024 27.1523 30.3515 27.7033 30.3515 28.3828V29.6133H28.3007C28.0746 29.6133 27.8906 29.4293 27.8906 29.2031V27.5625C27.8906 26.883 27.3397 26.332 26.6601 26.332C25.9816 26.332 25.4297 25.78 25.4297 25.1016V21.8203C25.4297 18.4279 28.1896 15.668 31.582 15.668C34.9744 15.668 37.7343 18.4279 37.7343 21.8203V25.1016Z" fill="url(#paint0_linear)"/>
<path d="M20.0977 37.0781C20.7772 37.0781 21.3281 36.5272 21.3281 35.8477C21.3281 35.1681 20.7772 34.6172 20.0977 34.6172C19.4181 34.6172 18.8672 35.1681 18.8672 35.8477C18.8672 36.5272 19.4181 37.0781 20.0977 37.0781Z" fill="url(#paint1_linear)"/>
<path d="M23.7891 6.15234C23.7891 5.4728 23.2381 4.92188 22.5586 4.92188H17.6367C16.9572 4.92188 16.4062 5.4728 16.4062 6.15234C16.4062 6.83189 16.9572 7.38281 17.6367 7.38281H22.5586C23.2381 7.38281 23.7891 6.83189 23.7891 6.15234Z" fill="url(#paint2_linear)"/>
<path d="M12.3047 17.2266C12.3047 16.547 11.7538 15.9961 11.0742 15.9961H6.15234C5.4728 15.9961 4.92188 16.547 4.92188 17.2266C4.92188 17.9061 5.4728 18.457 6.15234 18.457H11.0742C11.7538 18.457 12.3047 17.9061 12.3047 17.2266Z" fill="url(#paint3_linear)"/>
<path d="M34.043 23.0508C34.7225 23.0508 35.2734 22.4999 35.2734 21.8203C35.2734 21.1407 34.7225 20.5898 34.043 20.5898C33.3634 20.5898 32.8125 21.1407 32.8125 21.8203C32.8125 22.4999 33.3634 23.0508 34.043 23.0508Z" fill="url(#paint4_linear)"/>
<path d="M29.1211 23.0508C29.8007 23.0508 30.3516 22.4999 30.3516 21.8203C30.3516 21.1407 29.8007 20.5898 29.1211 20.5898C28.4415 20.5898 27.8906 21.1407 27.8906 21.8203C27.8906 22.4999 28.4415 23.0508 29.1211 23.0508Z" fill="url(#paint5_linear)"/>
<defs>
<linearGradient id="paint0_linear" x1="20.0976" y1="0" x2="20.0976" y2="42" gradientUnits="userSpaceOnUse">
<stop stop-color="#008ADB"/>
<stop offset="1" stop-color="#00A8B3"/>
</linearGradient>
<linearGradient id="paint1_linear" x1="20.0977" y1="34.6172" x2="20.0977" y2="37.0781" gradientUnits="userSpaceOnUse">
<stop stop-color="#008ADB"/>
<stop offset="1" stop-color="#00A8B3"/>
</linearGradient>
<linearGradient id="paint2_linear" x1="20.0977" y1="4.92188" x2="20.0977" y2="7.38281" gradientUnits="userSpaceOnUse">
<stop stop-color="#008ADB"/>
<stop offset="1" stop-color="#00A8B3"/>
</linearGradient>
<linearGradient id="paint3_linear" x1="8.61328" y1="15.9961" x2="8.61328" y2="18.457" gradientUnits="userSpaceOnUse">
<stop stop-color="#008ADB"/>
<stop offset="1" stop-color="#00A8B3"/>
</linearGradient>
<linearGradient id="paint4_linear" x1="34.043" y1="20.5898" x2="34.043" y2="23.0508" gradientUnits="userSpaceOnUse">
<stop stop-color="#008ADB"/>
<stop offset="1" stop-color="#00A8B3"/>
</linearGradient>
<linearGradient id="paint5_linear" x1="29.1211" y1="20.5898" x2="29.1211" y2="23.0508" gradientUnits="userSpaceOnUse">
<stop stop-color="#008ADB"/>
<stop offset="1" stop-color="#00A8B3"/>
</linearGradient>
</defs>
</svg>
