<svg width="71" height="17" viewBox="0 0 71 17" fill="none" xmlns="http://www.w3.org/2000/svg">
<g style="mix-blend-mode:luminosity" clip-path="url(#clip0)">
<path fill-rule="evenodd" clip-rule="evenodd" d="M8.8536 16.8762C13.4879 16.8762 17.2448 13.1202 17.2448 8.4868C17.2448 3.85346 13.4879 0.0973816 8.8536 0.0973816C4.21928 0.0973816 0.462402 3.85346 0.462402 8.4868C0.462402 13.1202 4.21928 16.8762 8.8536 16.8762ZM11.8819 12.8772C11.0205 13.4752 9.97452 13.8255 8.84683 13.8255C5.90145 13.8255 3.51377 11.4353 3.51377 8.48682C3.51377 5.53833 5.90145 3.14811 8.84683 3.14811C11.7922 3.14811 14.1799 5.53833 14.1799 8.48682C14.1799 9.14502 14.0609 9.7754 13.8433 10.3576C12.9993 10.0512 12.0585 9.95967 11.1971 10.1665C11.54 9.68808 11.7419 9.10151 11.7419 8.46771C11.7419 6.85657 10.4372 5.55049 8.82776 5.55049C7.21831 5.55049 5.91361 6.85657 5.91361 8.46771C5.91361 10.0789 7.21831 11.3849 8.82776 11.3849C9.19874 11.3849 9.55354 11.3155 9.87988 11.189C10.6965 11.6628 11.4005 12.3427 11.8819 12.8772ZM14.6587 12.1532C14.2783 12.7541 13.8071 13.2918 13.2644 13.7471C12.67 12.9629 11.4683 11.7788 10.142 11.0227C11.3675 10.1042 13.266 10.6915 14.6587 12.1532Z" fill="#101010"/>
<g opacity="0.15">
<path opacity="0.15" d="M16.553 5.14569C15.263 2.17826 12.307 0.102113 8.86544 0.0973816C5.38392 0.102169 2.39931 2.22675 1.13361 5.2494C1.89549 5.97263 2.75972 6.58906 3.70234 7.07473C4.32083 4.81147 6.38981 3.14809 8.84689 3.14809C11.285 3.14809 13.3409 4.78588 13.9768 7.02237C14.9249 6.52154 15.792 5.88769 16.553 5.14569Z" fill="#F8F8F8"/>
<path opacity="0.15" d="M11.691 7.92134C11.4355 6.57131 10.2508 5.55042 8.82786 5.55042C7.39812 5.55042 6.20885 6.58114 5.96112 7.9408C6.86421 8.17755 7.81211 8.30362 8.78946 8.30362C9.79324 8.30362 10.766 8.17064 11.691 7.92134Z" fill="#F8F8F8"/>
</g>
<path d="M25.5775 4.16196C24.3907 4.16196 23.4151 4.56843 22.6509 5.36509C21.9032 6.16177 21.5292 7.21858 21.5292 8.53551C21.5292 9.85247 21.9032 10.9093 22.6509 11.7059C23.4151 12.5026 24.3907 12.9091 25.5775 12.9091C26.6344 12.9091 27.4148 12.6164 27.9514 12.0148V16.8762H30.3088V4.32454H28.0813V5.20251C27.5612 4.50339 26.7319 4.16196 25.5775 4.16196ZM25.9677 6.19429C27.1546 6.19429 27.9514 7.02348 27.9514 8.34041V8.73061C27.9514 10.0476 27.1546 10.8768 25.9677 10.8768C24.7483 10.8768 23.9354 10.0151 23.9354 8.53551C23.9354 7.05599 24.7483 6.19429 25.9677 6.19429Z" fill="#101010"/>
<path d="M39.2733 4.32462H36.8995V9.07211C36.8995 10.0476 36.3631 10.698 35.4688 10.698C34.5747 10.698 34.1194 10.1615 34.1194 9.10465V4.32462H31.7456V9.60864C31.7456 11.6735 32.9162 12.9091 34.851 12.9091C35.8753 12.9091 36.607 12.5677 37.0296 11.8848V12.7303H39.2733V4.32462Z" fill="#101010"/>
<path d="M41.9513 0.14605C40.7645 0.0810152 40.033 1.77191 40.9433 2.58483C41.4799 3.12136 42.4228 3.12136 42.9594 2.58483C43.2358 2.30845 43.3822 1.96702 43.3822 1.5768C43.3822 0.780134 42.7481 0.14605 41.9513 0.14605ZM43.1383 4.3245H40.7645V12.7302H43.1383V4.3245Z" fill="#101010"/>
<path d="M52.9774 0.0973816H50.6198V5.05624C50.0995 4.45468 49.3029 4.16202 48.2462 4.16202C47.0592 4.16202 46.0838 4.5685 45.3196 5.36516C44.5716 6.16183 44.1976 7.21864 44.1976 8.53557C44.1976 9.85253 44.5716 10.9093 45.3196 11.706C46.0838 12.5027 47.0592 12.9091 48.2462 12.9091C49.3679 12.9091 50.2785 12.4702 50.75 11.8686V12.7303H52.9774V0.0973816ZM48.6364 6.19435C49.8232 6.19435 50.6198 7.02354 50.6198 8.34047V8.71442C50.6198 10.0639 49.8232 10.8606 48.6364 10.8606C47.4169 10.8606 46.6039 10.0151 46.6039 8.53557C46.6039 7.05605 47.4169 6.19435 48.6364 6.19435Z" fill="#101010"/>
<path d="M57.7797 4.16196C56.7555 4.16196 55.91 4.47087 55.2433 5.08871C54.593 5.69027 54.2679 6.38939 54.2679 7.16979L56.6416 7.26735C56.6416 6.66579 57.0482 6.16177 57.8122 6.16177C58.5439 6.16177 58.9015 6.60074 58.9015 7.46245V7.78762L57.4057 7.86891C55.162 7.96647 54.0403 8.81192 54.0403 10.4215C54.0403 12.0311 55.097 12.9091 56.8368 12.9091C57.7147 12.9091 58.43 12.6164 58.9828 12.0474V12.7302H61.2753V7.54375C61.2753 5.33258 60.0559 4.16196 57.7797 4.16196ZM58.9015 9.70614C58.9015 10.5678 58.2836 11.0719 57.3895 11.0719C56.7393 11.0719 56.4139 10.8117 56.4139 10.3077C56.4139 9.75491 56.8205 9.46227 57.6334 9.42973L58.9015 9.34845V9.70614Z" fill="#101010"/>
<path d="M70.279 4.32462H67.5803L66.0195 6.89348L64.4586 4.32462H61.7597L64.3447 8.48681L61.7271 12.7303H64.426L66.0195 10.1127L67.6289 12.7303H70.3441L67.6778 8.48681L70.279 4.32462Z" fill="#101010"/>
</g>
<defs>
<clipPath id="clip0">
<rect width="69.8932" height="16.7788" fill="white" transform="translate(0.462402 0.0973816)"/>
</clipPath>
</defs>
</svg>
