<svg width="439" height="343" viewBox="0 0 439 343" fill="none" xmlns="http://www.w3.org/2000/svg">
<g clip-path="url(#clip0)">
<path d="M215.55 248.391C160.182 248.391 115.137 203.397 115.137 148.099C115.137 92.7919 160.182 47.7974 215.55 47.7974C270.919 47.7974 315.964 92.7919 315.964 148.099C315.955 203.405 270.91 248.391 215.55 248.391ZM215.55 49.9342C161.36 49.9342 117.276 93.9684 117.276 148.099C117.276 202.229 161.36 246.263 215.55 246.263C269.741 246.263 313.825 202.229 313.825 148.099C313.825 93.9684 269.733 49.9342 215.55 49.9342Z" fill="white"/>
<path d="M192.92 226.261C176.3 221.469 161.334 211.226 150.776 197.41C139.872 183.144 134.113 166.093 134.113 148.099C134.113 103.242 170.644 66.752 215.551 66.752C232.69 66.752 249.085 72.0118 262.969 81.952L261.721 83.6822C248.202 74.0016 232.24 68.8801 215.551 68.8801C171.822 68.8801 136.252 104.41 136.252 148.09C136.252 183.179 159.801 214.479 193.517 224.203L192.92 226.261Z" fill="white"/>
<path d="M215.085 28.1375L214.915 38.7947L219.704 38.8707L219.874 28.2136L215.085 28.1375Z" fill="white"/>
<path d="M211.394 257.302L211.221 267.959L216.01 268.037L216.183 257.38L211.394 257.302Z" fill="white"/>
<path d="M116.315 194.15L106.738 198.849L108.849 203.143L118.427 198.444L116.315 194.15Z" fill="white"/>
<path d="M322.247 93.0539L312.671 97.7542L314.783 102.048L324.36 97.3476L322.247 93.0539Z" fill="white"/>
<path d="M112.849 185.855L102.919 189.754L104.671 194.206L114.601 190.307L112.849 185.855Z" fill="white"/>
<path d="M326.418 101.994L316.489 105.896L318.242 110.348L328.172 106.446L326.418 101.994Z" fill="white"/>
<path d="M110.269 177.951L100.071 181.085L101.479 185.658L111.677 182.524L110.269 177.951Z" fill="white"/>
<path d="M329.598 110.554L319.399 113.688L320.808 118.261L331.006 115.127L329.598 110.554Z" fill="white"/>
<path d="M108.317 169.849L97.9092 172.198L98.9648 176.865L109.372 174.516L108.317 169.849Z" fill="white"/>
<path d="M332.114 119.329L321.707 121.676L322.761 126.342L333.169 123.995L332.114 119.329Z" fill="white"/>
<path d="M106.967 161.647L96.4102 163.198L97.107 167.932L107.664 166.381L106.967 161.647Z" fill="white"/>
<path d="M334.011 128.263L323.454 129.815L324.151 134.549L334.708 132.997L334.011 128.263Z" fill="white"/>
<path d="M106.245 153.357L95.6001 154.102L95.9349 158.874L106.579 158.129L106.245 153.357Z" fill="white"/>
<path d="M335.175 137.327L324.531 138.071L324.865 142.843L335.51 142.099L335.175 137.327Z" fill="white"/>
<path d="M95.4997 144.949L95.4692 149.733L106.139 149.801L106.17 145.017L95.4997 144.949Z" fill="white"/>
<path d="M324.959 146.389L324.931 151.174L335.601 151.238L335.63 146.453L324.959 146.389Z" fill="white"/>
<path d="M96.0841 135.834L95.6899 140.602L106.324 141.479L106.718 136.711L96.0841 135.834Z" fill="white"/>
<path d="M324.775 154.725L324.38 159.493L335.014 160.37L335.408 155.602L324.775 154.725Z" fill="white"/>
<path d="M97.3544 126.787L96.5977 131.51L107.133 133.194L107.89 128.471L97.3544 126.787Z" fill="white"/>
<path d="M323.968 162.993L323.211 167.717L333.748 169.4L334.504 164.676L323.968 162.993Z" fill="white"/>
<path d="M99.324 117.868L98.2095 122.52L108.586 125L109.701 120.348L99.324 117.868Z" fill="white"/>
<path d="M322.501 171.186L321.387 175.839L331.765 178.318L332.879 173.665L322.501 171.186Z" fill="white"/>
<path d="M101.973 109.124L100.507 113.679L110.665 116.941L112.131 112.387L101.973 109.124Z" fill="white"/>
<path d="M320.434 179.264L318.968 183.818L329.126 187.081L330.592 182.526L320.434 179.264Z" fill="white"/>
<path d="M105.271 100.609L103.462 105.039L113.341 109.064L115.15 104.635L105.271 100.609Z" fill="white"/>
<path d="M317.758 187.134L315.949 191.564L325.83 195.589L327.638 191.159L317.758 187.134Z" fill="white"/>
<path d="M109.208 92.3483L107.067 96.6277L116.612 101.392L118.753 97.1125L109.208 92.3483Z" fill="white"/>
<path d="M314.472 194.807L312.332 199.086L321.876 203.851L324.017 199.571L314.472 194.807Z" fill="white"/>
<path d="M113.759 84.4287L111.298 88.533L120.452 94.0081L122.913 89.9038L113.759 84.4287Z" fill="white"/>
<path d="M310.632 202.182L308.171 206.286L317.325 211.763L319.786 207.658L310.632 202.182Z" fill="white"/>
<path d="M118.912 76.8902L116.146 80.7954L124.856 86.9516L127.622 83.0463L118.912 76.8902Z" fill="white"/>
<path d="M306.226 209.266L303.459 213.171L312.168 219.328L314.935 215.423L306.226 209.266Z" fill="white"/>
<path d="M124.625 69.7389L121.569 73.4226L129.785 80.2236L132.841 76.5399L124.625 69.7389Z" fill="white"/>
<path d="M301.302 215.989L298.246 219.672L306.461 226.473L309.517 222.79L301.302 215.989Z" fill="white"/>
<path d="M130.856 63.0595L127.528 66.4993L135.2 73.9067L138.528 70.467L130.856 63.0595Z" fill="white"/>
<path d="M295.896 222.324L292.568 225.765L300.241 233.171L303.569 229.731L295.896 222.324Z" fill="white"/>
<path d="M137.579 56.85L133.998 60.0276L141.085 67.9956L144.666 64.8181L137.579 56.85Z" fill="white"/>
<path d="M289.99 228.194L286.41 231.371L293.497 239.338L297.077 236.16L289.99 228.194Z" fill="white"/>
<path d="M144.757 51.194L140.944 54.0894L147.402 62.5743L151.215 59.679L144.757 51.194Z" fill="white"/>
<path d="M283.681 233.626L279.869 236.523L286.328 245.006L290.14 242.109L283.681 233.626Z" fill="white"/>
<path d="M152.339 46.0944L148.317 48.6921L154.111 57.6418L158.133 55.0441L152.339 46.0944Z" fill="white"/>
<path d="M276.981 238.562L272.959 241.16L278.754 250.11L282.776 247.512L276.981 238.562Z" fill="white"/>
<path d="M160.308 41.5877L156.101 43.8735L161.199 53.2368L165.406 50.9509L160.308 41.5877Z" fill="white"/>
<path d="M269.907 242.974L265.699 245.259L270.795 254.623L275.003 252.338L269.907 242.974Z" fill="white"/>
<path d="M168.572 37.694L164.202 39.6516L168.568 49.3761L172.938 47.4185L168.572 37.694Z" fill="white"/>
<path d="M262.512 246.82L258.143 248.778L262.51 258.503L266.88 256.545L262.512 246.82Z" fill="white"/>
<path d="M177.118 34.4394L172.611 36.0593L176.224 46.0876L180.731 44.4677L177.118 34.4394Z" fill="white"/>
<path d="M254.839 250.1L250.333 251.721L253.949 261.748L258.454 260.127L254.839 250.1Z" fill="white"/>
<path d="M185.897 31.8512L181.28 33.1252L184.122 43.3987L188.738 42.1247L185.897 31.8512Z" fill="white"/>
<path d="M246.978 252.78L242.361 254.054L245.202 264.327L249.818 263.054L246.978 252.78Z" fill="white"/>
<path d="M194.837 29.9423L190.136 30.8604L192.184 41.3203L196.884 40.4022L194.837 29.9423Z" fill="white"/>
<path d="M238.913 254.875L234.213 255.793L236.262 266.253L240.962 265.335L238.913 254.875Z" fill="white"/>
<path d="M203.154 28.7797L198.401 29.3677L199.713 39.9449L204.466 39.3569L203.154 28.7797Z" fill="white"/>
<path d="M231.374 256.256L226.621 256.845L227.934 267.422L232.687 266.833L231.374 256.256Z" fill="white"/>
<path d="M211.198 28.2058L206.417 28.4744L207.015 39.1155L211.796 38.8469L211.198 28.2058Z" fill="white"/>
<path d="M224.071 257.062L219.29 257.331L219.888 267.972L224.67 267.703L224.071 257.062Z" fill="white"/>
<path d="M204.01 256.792L203.12 267.413L207.893 267.812L208.783 257.191L204.01 256.792Z" fill="white"/>
<path d="M223.187 28.3796L222.295 39.0005L227.068 39.4004L227.96 28.7796L223.187 28.3796Z" fill="white"/>
<path d="M194.88 255.438L193.096 265.946L197.818 266.746L199.602 256.238L194.88 255.438Z" fill="white"/>
<path d="M233.257 29.4521L231.472 39.96L236.194 40.7603L237.979 30.2524L233.257 29.4521Z" fill="white"/>
<path d="M185.637 253.253L182.944 263.566L187.579 264.774L190.272 254.461L185.637 253.253Z" fill="white"/>
<path d="M243.503 31.4341L240.813 41.748L245.448 42.9541L248.138 32.6402L243.503 31.4341Z" fill="white"/>
<path d="M175.88 249.963L172.231 259.979L176.732 261.615L180.381 251.599L175.88 249.963Z" fill="white"/>
<path d="M254.353 34.5851L250.705 44.6006L255.205 46.2363L258.853 36.2207L254.353 34.5851Z" fill="white"/>
<path d="M167.084 246.092L162.57 255.75L166.91 257.773L171.423 248.116L167.084 246.092Z" fill="white"/>
<path d="M264.163 38.4188L259.649 48.0762L263.989 50.0998L268.503 40.4425L264.163 38.4188Z" fill="white"/>
<path d="M159.013 241.681L153.702 250.925L157.856 253.306L163.167 244.062L159.013 241.681Z" fill="white"/>
<path d="M273.239 42.8924L267.927 52.1362L272.081 54.5177L277.393 45.2739L273.239 42.8924Z" fill="white"/>
<path d="M151.335 236.621L145.265 245.386L149.204 248.108L155.274 239.343L151.335 236.621Z" fill="white"/>
<path d="M281.893 48.1129L275.823 56.8782L279.762 59.5998L285.832 50.8345L281.893 48.1129Z" fill="white"/>
<path d="M144.113 230.91L137.324 239.133L141.019 242.176L147.808 233.954L144.113 230.91Z" fill="white"/>
<path d="M290.071 54.0267L283.286 62.2527L286.983 65.2949L293.768 57.0689L290.071 54.0267Z" fill="white"/>
<path d="M137.402 224.607L129.948 232.232L133.375 235.575L140.829 227.949L137.402 224.607Z" fill="white"/>
<path d="M297.719 60.6206L290.265 68.2466L293.692 71.5887L301.146 63.9628L297.719 60.6206Z" fill="white"/>
<path d="M131.231 217.784L123.162 224.756L126.295 228.375L134.365 221.402L131.231 217.784Z" fill="white"/>
<path d="M304.804 67.8152L296.734 74.7888L299.868 78.407L307.937 71.4334L304.804 67.8152Z" fill="white"/>
<path d="M125.672 210.466L117.044 216.737L119.862 220.605L128.49 214.334L125.672 210.466Z" fill="white"/>
<path d="M311.233 75.6078L302.606 81.8801L305.425 85.748L314.051 79.4757L311.233 75.6078Z" fill="white"/>
<path d="M120.747 202.681L111.622 208.205L114.104 212.296L123.229 206.772L120.747 202.681Z" fill="white"/>
<path d="M316.981 83.8838L307.858 89.4111L310.342 93.5015L319.465 87.9742L316.981 83.8838Z" fill="white"/>
<path d="M215.282 79.9541L215.185 86.0093L217.904 86.0527L218.001 79.9976L215.282 79.9541Z" fill="white"/>
<path d="M213.201 210.129L213.101 216.185L215.82 216.229L215.92 210.174L213.201 210.129Z" fill="white"/>
<path d="M159.17 174.258L153.729 176.928L154.928 179.366L160.369 176.696L159.17 174.258Z" fill="white"/>
<path d="M276.169 116.827L270.727 119.496L271.926 121.935L277.368 119.266L276.169 116.827Z" fill="white"/>
<path d="M157.227 169.545L151.584 171.759L152.578 174.288L158.221 172.074L157.227 169.545Z" fill="white"/>
<path d="M278.513 121.888L272.871 124.105L273.866 126.633L279.508 124.416L278.513 121.888Z" fill="white"/>
<path d="M155.757 165.046L149.962 166.827L150.762 169.423L156.556 167.642L155.757 165.046Z" fill="white"/>
<path d="M280.33 126.771L274.536 128.553L275.336 131.149L281.13 129.367L280.33 126.771Z" fill="white"/>
<path d="M154.634 160.46L148.72 161.795L149.32 164.445L155.233 163.11L154.634 160.46Z" fill="white"/>
<path d="M281.776 131.742L275.863 133.078L276.462 135.727L282.376 134.392L281.776 131.742Z" fill="white"/>
<path d="M153.881 155.79L147.882 156.671L148.278 159.359L154.276 158.478L153.881 155.79Z" fill="white"/>
<path d="M282.831 136.861L276.833 137.742L277.229 140.43L283.227 139.548L282.831 136.861Z" fill="white"/>
<path d="M153.465 151.061L147.417 151.487L147.609 154.196L153.656 153.771L153.465 151.061Z" fill="white"/>
<path d="M283.489 142L277.441 142.422L277.63 145.132L283.678 144.71L283.489 142Z" fill="white"/>
<path d="M147.359 146.308L147.342 149.025L153.405 149.062L153.422 146.346L147.359 146.308Z" fill="white"/>
<path d="M277.696 147.127L277.679 149.843L283.742 149.881L283.759 147.164L277.696 147.127Z" fill="white"/>
<path d="M147.687 141.136L147.463 143.843L153.505 144.342L153.729 141.635L147.687 141.136Z" fill="white"/>
<path d="M277.596 151.859L277.372 154.566L283.413 155.065L283.638 152.358L277.596 151.859Z" fill="white"/>
<path d="M148.42 135.989L147.99 138.672L153.977 139.628L154.406 136.945L148.42 135.989Z" fill="white"/>
<path d="M277.125 156.579L276.696 159.261L282.682 160.218L283.112 157.536L277.125 156.579Z" fill="white"/>
<path d="M149.525 130.919L148.893 133.562L154.789 134.969L155.421 132.327L149.525 130.919Z" fill="white"/>
<path d="M276.292 161.222L275.659 163.863L281.555 165.273L282.188 162.631L276.292 161.222Z" fill="white"/>
<path d="M151.033 125.943L150.2 128.529L155.972 130.384L156.804 127.798L151.033 125.943Z" fill="white"/>
<path d="M275.123 165.818L274.291 168.404L280.063 170.257L280.895 167.671L275.123 165.818Z" fill="white"/>
<path d="M152.91 121.121L151.884 123.636L157.498 125.923L158.524 123.407L152.91 121.121Z" fill="white"/>
<path d="M273.593 170.28L272.566 172.796L278.18 175.082L279.207 172.566L273.593 170.28Z" fill="white"/>
<path d="M155.15 116.436L153.934 118.865L159.357 121.573L160.573 119.143L155.15 116.436Z" fill="white"/>
<path d="M271.73 174.627L270.514 177.057L275.937 179.764L277.153 177.334L271.73 174.627Z" fill="white"/>
<path d="M157.726 111.933L156.328 114.263L161.529 117.375L162.926 115.045L157.726 111.933Z" fill="white"/>
<path d="M269.555 178.829L268.158 181.159L273.359 184.271L274.757 181.94L269.555 178.829Z" fill="white"/>
<path d="M160.652 107.634L159.081 109.851L164.03 113.349L165.601 111.132L160.652 107.634Z" fill="white"/>
<path d="M267.047 182.848L265.476 185.065L270.424 188.564L271.995 186.347L267.047 182.848Z" fill="white"/>
<path d="M163.897 103.597L162.163 105.689L166.832 109.551L168.566 107.459L163.897 103.597Z" fill="white"/>
<path d="M264.256 186.656L262.521 188.748L267.189 192.612L268.924 190.52L264.256 186.656Z" fill="white"/>
<path d="M167.438 99.802L165.548 101.755L169.907 105.964L171.797 104.011L167.438 99.802Z" fill="white"/>
<path d="M261.183 190.229L259.293 192.183L263.652 196.391L265.542 194.438L261.183 190.229Z" fill="white"/>
<path d="M171.267 96.2685L169.233 98.0725L173.26 102.6L175.293 100.796L171.267 96.2685Z" fill="white"/>
<path d="M257.826 193.59L255.793 195.395L259.82 199.921L261.853 198.117L257.826 193.59Z" fill="white"/>
<path d="M175.333 93.0425L173.169 94.687L176.839 99.5068L179.004 97.8623L175.333 93.0425Z" fill="white"/>
<path d="M254.244 196.694L252.079 198.339L255.749 203.159L257.914 201.514L254.244 196.694Z" fill="white"/>
<path d="M179.647 90.1549L177.363 91.6292L180.653 96.7154L182.938 95.2412L179.647 90.1549Z" fill="white"/>
<path d="M250.442 199.479L248.159 200.954L251.451 206.039L253.735 204.564L250.442 199.479Z" fill="white"/>
<path d="M184.166 87.6045L181.777 88.9014L184.671 94.2226L187.061 92.9258L184.166 87.6045Z" fill="white"/>
<path d="M246.42 201.968L244.031 203.265L246.927 208.585L249.316 207.288L246.42 201.968Z" fill="white"/>
<path d="M188.868 85.3852L186.387 86.4971L188.869 92.0224L191.35 90.9105L188.868 85.3852Z" fill="white"/>
<path d="M242.227 204.165L239.746 205.276L242.227 210.802L244.708 209.69L242.227 204.165Z" fill="white"/>
<path d="M193.713 83.5465L191.154 84.4663L193.207 90.1642L195.765 89.2444L193.713 83.5465Z" fill="white"/>
<path d="M237.873 206.031L235.314 206.951L237.367 212.649L239.926 211.729L237.873 206.031Z" fill="white"/>
<path d="M198.701 82.0583L196.08 82.7822L197.696 88.6188L200.317 87.8949L198.701 82.0583Z" fill="white"/>
<path d="M233.389 207.575L230.768 208.297L232.38 214.135L235.001 213.413L233.389 207.575Z" fill="white"/>
<path d="M203.78 80.9814L201.111 81.5029L202.275 87.4461L204.944 86.9245L203.78 80.9814Z" fill="white"/>
<path d="M228.81 208.758L226.141 209.28L227.305 215.223L229.974 214.701L228.81 208.758Z" fill="white"/>
<path d="M208.507 80.3245L205.808 80.6592L206.554 86.669L209.253 86.3344L208.507 80.3245Z" fill="white"/>
<path d="M224.538 209.537L221.839 209.872L222.585 215.881L225.284 215.547L224.538 209.537Z" fill="white"/>
<path d="M213.071 80.0047L210.355 80.1577L210.697 86.2038L213.412 86.0508L213.071 80.0047Z" fill="white"/>
<path d="M220.384 209.994L217.669 210.147L218.009 216.193L220.724 216.04L220.384 209.994Z" fill="white"/>
<path d="M209 209.846L208.494 215.88L211.204 216.107L211.71 210.072L209 209.846Z" fill="white"/>
<path d="M219.881 80.0875L219.374 86.1221L222.084 86.3492L222.591 80.3146L219.881 80.0875Z" fill="white"/>
<path d="M203.807 209.068L202.793 215.038L205.474 215.492L206.488 209.522L203.807 209.068Z" fill="white"/>
<path d="M225.617 80.7088L224.603 86.6792L227.284 87.1337L228.298 81.1633L225.617 80.7088Z" fill="white"/>
<path d="M198.56 207.807L197.029 213.666L199.66 214.352L201.192 208.493L198.56 207.807Z" fill="white"/>
<path d="M231.445 81.821L229.915 87.6812L232.547 88.3665L234.076 82.5063L231.445 81.821Z" fill="white"/>
<path d="M193.003 205.957L190.931 211.648L193.486 212.576L195.559 206.886L193.003 205.957Z" fill="white"/>
<path d="M237.585 83.6187L235.512 89.3093L238.068 90.2381L240.141 84.5475L237.585 83.6187Z" fill="white"/>
<path d="M188.023 203.746L185.459 209.234L187.924 210.383L190.488 204.895L188.023 203.746Z" fill="white"/>
<path d="M243.172 85.7935L240.605 91.28L243.069 92.4299L245.636 86.9433L243.172 85.7935Z" fill="white"/>
<path d="M183.422 201.258L180.405 206.51L182.763 207.862L185.781 202.61L183.422 201.258Z" fill="white"/>
<path d="M248.318 88.3293L245.302 93.5828L247.661 94.9342L250.677 89.6808L248.318 88.3293Z" fill="white"/>
<path d="M179.084 198.371L175.634 203.35L177.87 204.896L181.32 199.917L179.084 198.371Z" fill="white"/>
<path d="M253.217 91.3072L249.77 96.2881L252.006 97.8329L255.454 92.8521L253.217 91.3072Z" fill="white"/>
<path d="M174.968 195.138L171.113 199.812L173.212 201.539L177.067 196.865L174.968 195.138Z" fill="white"/>
<path d="M257.878 94.6563L254.022 99.3296L256.121 101.057L259.977 96.384L257.878 94.6563Z" fill="white"/>
<path d="M171.157 191.564L166.921 195.897L168.867 197.794L173.103 193.462L171.157 191.564Z" fill="white"/>
<path d="M262.241 98.399L258.005 102.732L259.951 104.63L264.187 100.297L262.241 98.399Z" fill="white"/>
<path d="M167.669 187.676L163.084 191.639L164.864 193.693L169.448 189.73L167.669 187.676Z" fill="white"/>
<path d="M266.237 102.513L261.653 106.475L263.432 108.529L268.017 104.567L266.237 102.513Z" fill="white"/>
<path d="M164.5 183.533L159.597 187.095L161.196 189.292L166.099 185.73L164.5 183.533Z" fill="white"/>
<path d="M269.885 106.918L264.982 110.48L266.582 112.677L271.484 109.114L269.885 106.918Z" fill="white"/>
<path d="M161.697 179.1L156.512 182.237L157.921 184.561L163.106 181.423L161.697 179.1Z" fill="white"/>
<path d="M273.186 111.627L268.001 114.767L269.411 117.09L274.595 113.95L273.186 111.627Z" fill="white"/>
<path d="M212.631 225.154L212.509 232.671L215.886 232.726L216.009 225.209L212.631 225.154Z" fill="white"/>
<path d="M290.836 109.256L284.081 112.573L285.571 115.601L292.326 112.285L290.836 109.256Z" fill="white"/>
<path d="M293.754 115.568L286.749 118.317L287.984 121.457L294.989 118.708L293.754 115.568Z" fill="white"/>
<path d="M296.021 121.619L288.827 123.83L289.821 127.055L297.014 124.844L296.021 121.619Z" fill="white"/>
<path d="M297.789 127.793L290.448 129.449L291.192 132.74L298.534 131.084L297.789 127.793Z" fill="white"/>
<path d="M299.101 134.101L291.656 135.196L292.148 138.534L299.594 137.439L299.101 134.101Z" fill="white"/>
<path d="M299.947 140.496L292.438 141.021L292.675 144.387L300.183 143.862L299.947 140.496Z" fill="white"/>
<path d="M292.741 146.892L292.719 150.266L300.246 150.315L300.268 146.941L292.741 146.892Z" fill="white"/>
<path d="M292.597 152.774L292.319 156.136L299.82 156.753L300.097 153.391L292.597 152.774Z" fill="white"/>
<path d="M292.033 158.636L291.5 161.968L298.931 163.156L299.465 159.824L292.033 158.636Z" fill="white"/>
<path d="M291.005 164.41L290.219 167.691L297.538 169.441L298.324 166.16L291.005 164.41Z" fill="white"/>
<path d="M289.539 170.104L288.506 173.316L295.672 175.615L296.705 172.402L289.539 170.104Z" fill="white"/>
<path d="M287.658 175.662L286.383 178.786L293.353 181.624L294.628 178.5L287.658 175.662Z" fill="white"/>
<path d="M285.342 181.035L283.832 184.053L290.564 187.415L292.074 184.397L285.342 181.035Z" fill="white"/>
<path d="M282.624 186.266L280.889 189.161L287.347 193.022L289.082 190.127L282.624 186.266Z" fill="white"/>
<path d="M279.526 191.229L277.574 193.983L283.717 198.327L285.669 195.573L279.526 191.229Z" fill="white"/>
<path d="M276.043 195.98L273.889 198.578L279.685 203.374L281.839 200.776L276.043 195.98Z" fill="white"/>
<path d="M272.232 200.435L269.885 202.861L275.297 208.085L277.644 205.659L272.232 200.435Z" fill="white"/>
<path d="M268.093 204.608L265.567 206.849L270.566 212.469L273.091 210.228L268.093 204.608Z" fill="white"/>
<path d="M263.62 208.458L260.932 210.5L265.487 216.485L268.176 214.442L263.62 208.458Z" fill="white"/>
<path d="M258.876 211.926L256.041 213.759L260.129 220.071L262.965 218.238L258.876 211.926Z" fill="white"/>
<path d="M253.906 215.031L250.938 216.642L254.533 223.248L257.501 221.636L253.906 215.031Z" fill="white"/>
<path d="M248.696 217.739L245.614 219.121L248.697 225.98L251.779 224.598L248.696 217.739Z" fill="white"/>
<path d="M243.29 220.055L240.112 221.197L242.661 228.271L245.84 227.128L243.29 220.055Z" fill="white"/>
<path d="M237.727 221.957L234.471 222.855L236.473 230.102L239.729 229.204L237.727 221.957Z" fill="white"/>
<path d="M232.016 223.432L228.701 224.079L230.145 231.457L233.46 230.81L232.016 223.432Z" fill="white"/>
<path d="M226.716 224.411L223.364 224.827L224.291 232.288L227.644 231.872L226.716 224.411Z" fill="white"/>
<path d="M221.563 224.969L218.19 225.158L218.612 232.664L221.985 232.475L221.563 224.969Z" fill="white"/>
<path d="M207.407 224.78L206.777 232.271L210.143 232.553L210.772 225.062L207.407 224.78Z" fill="white"/>
<path d="M200.961 223.827L199.703 231.239L203.033 231.803L204.291 224.391L200.961 223.827Z" fill="white"/>
<path d="M268.109 81.7414L263.324 87.5437L265.931 89.6888L270.716 83.8866L268.109 81.7414Z" fill="white"/>
<path d="M273.515 86.3893L268.257 91.7683L270.674 94.1253L275.931 88.7463L273.515 86.3893Z" fill="white"/>
<path d="M278.5 91.47L272.807 96.3875L275.017 98.9395L280.709 94.0221L278.5 91.47Z" fill="white"/>
<path d="M283.029 96.9608L276.944 101.384L278.931 104.112L285.016 99.6886L283.029 96.9608Z" fill="white"/>
<path d="M287.115 102.802L280.679 106.699L282.429 109.584L288.866 105.688L287.115 102.802Z" fill="white"/>
<path d="M439 53.49H384.497L366.656 46.5085H331.857V47.6764H366.457L384.307 54.6493H439V53.49Z" fill="white"/>
<path d="M439 60.506H353.414C353.162 59.2776 352.123 58.3433 350.885 58.3433C349.464 58.3433 348.304 59.5717 348.304 61.0857C348.304 62.5996 349.464 63.8281 350.885 63.8281C352.123 63.8281 353.154 62.9024 353.414 61.6653H439V60.506ZM350.885 62.6602C350.062 62.6602 349.395 61.9508 349.395 61.077C349.395 60.2033 350.062 59.5025 350.885 59.5025C351.707 59.5025 352.374 60.2119 352.374 61.077C352.374 61.9594 351.707 62.6602 350.885 62.6602Z" fill="white"/>
<path d="M342.925 98.3288H333.009V99.488H343.255L348.209 95.9843H361.131L368.484 100.042C368.484 100.085 368.475 100.12 368.475 100.163C368.475 101.677 369.635 102.905 371.056 102.905C372.485 102.905 373.645 101.677 373.645 100.163C373.645 98.6489 372.485 97.4204 371.056 97.4204C370.068 97.4204 369.211 98.026 368.778 98.8911L361.399 94.8164H347.879L342.925 98.3288ZM371.056 98.5883C371.879 98.5883 372.545 99.2977 372.545 100.163C372.545 101.037 371.879 101.746 371.056 101.746C370.233 101.746 369.566 101.037 369.566 100.163C369.566 99.2977 370.233 98.5883 371.056 98.5883Z" fill="white"/>
<path d="M439 66.9858H376.364L366.075 72.5918H345.948C345.722 71.3287 344.675 70.3684 343.41 70.3684C341.981 70.3684 340.829 71.5969 340.829 73.1108C340.829 74.6248 341.99 75.8533 343.41 75.8533C344.623 75.8533 345.645 74.9535 345.913 73.7597H366.335L376.624 68.1537H438.991V66.9858H439ZM343.41 74.694C342.587 74.694 341.92 73.9846 341.92 73.1195C341.92 72.2457 342.587 71.545 343.41 71.545C344.233 71.545 344.9 72.2544 344.9 73.1195C344.9 73.9846 344.233 74.694 343.41 74.694Z" fill="white"/>
<path d="M439 74.6938H407.319L388.646 82.7394H328.548V83.9073H388.862L407.535 75.8531H439V74.6938Z" fill="white"/>
<path d="M438.991 89.9373H351.101V91.0965H438.991V89.9373Z" fill="white"/>
<path d="M439 99.9811L435.276 96.4861H398.476L380.271 106.997H345.394C345.142 105.769 344.112 104.843 342.873 104.843C341.444 104.843 340.284 106.072 340.284 107.585C340.284 109.099 341.444 110.328 342.873 110.328C344.112 110.328 345.142 109.402 345.394 108.165H380.539L398.744 97.654H434.851L438.991 101.538V99.9811H439ZM342.873 109.16C342.051 109.16 341.384 108.451 341.384 107.585C341.384 106.72 342.051 106.011 342.873 106.011C343.696 106.011 344.363 106.72 344.363 107.585C344.363 108.451 343.696 109.16 342.873 109.16Z" fill="white"/>
<path d="M0 155.833H54.5026L72.3439 148.851H107.143V150.019H72.5431L54.6931 156.992H0V155.833Z" fill="white"/>
<path d="M0 164.008H85.595C85.8461 165.237 86.8854 166.171 88.1239 166.171C89.5443 166.171 90.7048 164.942 90.7048 163.428C90.7048 161.914 89.5443 160.686 88.1239 160.686C86.8854 160.686 85.8548 161.612 85.595 162.849H0V164.008ZM86.6256 163.428C86.6256 162.555 87.2925 161.854 88.1152 161.854C88.938 161.854 89.6049 162.563 89.6049 163.428C89.6049 164.302 88.938 165.012 88.1152 165.012C87.2925 165.003 86.6256 164.302 86.6256 163.428Z" fill="white"/>
<path d="M91.1205 197.168H77.6009L70.2219 201.242C69.7888 200.369 68.9314 199.772 67.9441 199.772C66.515 199.772 65.3545 201 65.3545 202.514C65.3545 204.028 66.515 205.257 67.9441 205.257C69.3731 205.257 70.5337 204.028 70.5337 202.514C70.5337 202.471 70.525 202.436 70.525 202.393L77.878 198.336H90.8L95.754 201.839H106V200.68H96.0831L91.1205 197.168ZM69.4337 202.505C69.4337 203.379 68.7669 204.089 67.9441 204.089C67.1213 204.089 66.4544 203.379 66.4544 202.505C66.4544 201.64 67.1213 200.931 67.9441 200.931C68.7669 200.931 69.4337 201.64 69.4337 202.505Z" fill="white"/>
<path d="M0 170.497H62.3666L72.6557 176.102H93.0779C93.3551 177.305 94.3684 178.196 95.5809 178.196C97.0099 178.196 98.1618 176.968 98.1618 175.454C98.1618 173.94 97.0013 172.711 95.5809 172.711C94.3164 172.711 93.2771 173.671 93.0433 174.935H72.9242L62.6351 169.329H0V170.497ZM94.0999 175.454C94.0999 174.58 94.7668 173.879 95.5896 173.879C96.4123 173.879 97.0792 174.589 97.0792 175.454C97.0792 176.327 96.4123 177.028 95.5896 177.028C94.7668 177.037 94.0999 176.327 94.0999 175.454Z" fill="white"/>
<path d="M0 177.037H31.6813L50.354 185.082H110.452V186.25H50.1375L31.4648 178.196H0V177.037Z" fill="white"/>
<path d="M87.8901 192.28H0V193.439H87.8901V192.28Z" fill="white"/>
<path d="M0 203.872L4.13988 199.988H40.2469L58.4519 210.499H93.5976C93.8487 211.728 94.8794 212.662 96.1179 212.662C97.5469 212.662 98.7075 211.434 98.7075 209.92C98.7075 208.406 97.5469 207.177 96.1179 207.177C94.8794 207.177 93.8487 208.103 93.5976 209.331H58.7377L40.5327 198.829H3.72416L0 202.324V203.872ZM94.6369 209.92C94.6369 209.054 95.3037 208.345 96.1265 208.345C96.9493 208.345 97.6162 209.054 97.6162 209.92C97.6162 210.793 96.9493 211.494 96.1265 211.494C95.3037 211.503 94.6369 210.793 94.6369 209.92Z" fill="white"/>
<path d="M91.8502 322.6H185.703L185.688 274.239L191.164 224.535C191.164 218.799 186.09 215.142 180.766 212.987C172 209.444 151.925 201.447 151.925 201.447C151.925 201.447 149.866 214.042 138.435 214.042C128.029 214.042 125.249 201.447 125.249 201.447C125.249 201.447 103.92 208.67 96.4152 212.987C91.4324 215.848 85.4546 219.71 85.4546 222.403L92.0933 273.784L91.8502 322.6Z" fill="#00ACE6"/>
<path d="M151.917 201.485C151.917 201.485 150.428 214.277 138.358 214.277C127.231 214.277 125.233 201.485 125.233 201.485V188.435H151.909V201.485H151.917Z" fill="#B5754F"/>
<path d="M167.002 173.405C167.002 183.488 153.535 197.274 138.579 197.274C124.192 197.274 110.194 185.347 110.194 173.405L109.054 151.273C109.054 134.976 122.271 121.781 138.579 121.781C154.887 121.781 168.103 134.976 168.103 151.273L167.002 173.405Z" fill="#A26744"/>
<path d="M168.104 160.18C168.719 156.797 169.023 154.414 169.023 146.546C169.023 133.435 163.402 117.472 138.564 117.472C119.947 117.472 108.135 132.388 108.135 149.004C108.135 154.058 108.545 157.138 109.723 164.444C109.723 164.444 111.447 145.37 115.344 145.446C119.992 145.537 119.924 150.127 133.437 149.839C149.418 149.498 150.55 143.086 156.049 142.995C159.065 142.95 160.196 144.399 160.964 148.291C162.255 154.877 160.857 159.528 165.567 164.953C165.567 164.96 167.367 164.285 168.104 160.18Z" fill="#491106"/>
<path d="M193.511 322.342L193.526 322.593H213.116C210.495 289.277 207.419 254.687 205.307 245.37C200.051 222.168 185.68 215.605 185.68 215.605C185.68 215.605 185.824 238.534 185.68 271.773C185.596 291.538 193.511 322.342 193.511 322.342Z" fill="#00ACE6"/>
<path d="M134.766 179.437C134.91 179.437 135.062 179.429 135.199 179.422C135.442 179.392 135.639 179.179 135.609 178.929C135.586 178.678 135.388 178.474 135.115 178.511C134.203 178.602 133.505 178.337 133.429 178.132C133.391 178.049 133.482 177.73 134.234 177.222C136.513 175.674 136.778 170.279 136.794 170.059C136.801 169.809 136.604 169.596 136.345 169.581C136.087 169.574 135.89 169.771 135.882 170.014C135.814 171.448 135.305 175.401 133.725 176.478C132.722 177.146 132.335 177.813 132.563 178.443C132.821 179.149 133.801 179.437 134.766 179.437Z" fill="#060821"/>
<path d="M120.409 164.839C119.726 164.839 119.11 165.112 118.67 165.605C118.305 166.045 118.123 166.599 118.123 167.199C118.123 168.382 118.913 169.589 120.409 169.589C121.123 169.589 121.739 169.308 122.172 168.807C122.544 168.382 122.741 167.821 122.741 167.199C122.734 166.03 121.944 164.839 120.409 164.839Z" fill="#060821"/>
<path d="M149.007 164.839C149.691 164.839 150.306 165.112 150.747 165.605C151.111 166.045 151.294 166.599 151.294 167.199C151.294 168.382 150.504 169.589 149.007 169.589C148.293 169.589 147.678 169.308 147.253 168.807C146.881 168.382 146.683 167.821 146.683 167.199C146.676 166.03 147.466 164.839 149.007 164.839Z" fill="#060821"/>
<path d="M154.461 158.868C154.461 158.868 151.901 155.697 146.189 157.624" stroke="#060821" stroke-width="1.6938" stroke-miterlimit="10" stroke-linecap="round" stroke-linejoin="round"/>
<path d="M115.579 158.868C115.579 158.868 118.138 155.697 123.858 157.624" stroke="#060821" stroke-width="1.6938" stroke-miterlimit="10" stroke-linecap="round" stroke-linejoin="round"/>
<path d="M127.549 184.49C127.678 188.466 131.256 191.667 135.669 191.667C140.082 191.667 143.675 188.466 143.789 184.49H127.549Z" fill="white"/>
<path d="M55.8083 298.321C55.2083 304.505 56.3249 309.558 64.1788 313.533C69.7313 316.348 79.1424 309.414 81.2844 303.579C84.5734 294.618 91.2804 268.298 91.2804 268.298C91.8881 266.341 90.4905 215.704 89.1916 217.601C74.4635 239.08 55.8083 298.321 55.8083 298.321Z" fill="#00ACE6"/>
<path d="M171.605 164.778C171.484 168.208 169.326 170.916 166.789 170.833C164.237 170.742 162.278 167.897 162.391 164.467C162.505 161.045 164.655 158.337 167.207 158.42C169.744 158.496 171.719 161.349 171.605 164.778Z" fill="#A26744"/>
<path d="M44.4224 206.417L112.108 163.435L166.995 207.472L112.108 249.391L44.4224 206.417Z" fill="url(#paint0_linear)" fill-opacity="0.12"/>
<path d="M112.108 206.417H44.4224V249.391H112.108V206.417Z" fill="#02040F"/>
<path d="M43.9892 250.165L44.9007 254.437H58.816C56.8867 249.027 55.7701 245.021 56.2031 243.951C57.145 241.614 59.0819 231.758 59.3325 229.52C60.715 216.948 47.2401 207.464 40.404 230.514C38.8924 235.605 42.0371 242.79 43.0397 245.734C43.7005 247.638 43.9892 250.165 43.9892 250.165Z" fill="#A26744"/>
<path d="M78.0027 300.445C78.0027 300.445 63.6087 266.622 58.4588 251.015H43.0547L55.732 305.263C57.0688 311.333 62.5833 315.415 69.4119 313.844C75.4809 312.448 79.3319 306.515 78.0027 300.445Z" fill="#00ACE6"/>
<path d="M114.819 187.76L138.974 200.287L158.464 189.224L167.815 168.139L167.245 143.094H109.001L104.413 166.592L114.819 187.76Z" stroke="white" stroke-width="0.7725" stroke-miterlimit="10"/>
<path d="M114.819 187.76L137.477 176.387L158.464 189.225" stroke="white" stroke-width="0.7725" stroke-miterlimit="10"/>
<path d="M137.478 173.693L137.326 152.032L167.245 143.094" stroke="white" stroke-width="0.7725" stroke-miterlimit="10"/>
<path d="M167.382 166.979L137.325 151.364L105.492 166.053L137.979 175.287L167.245 168.139" stroke="white" stroke-width="0.7725" stroke-miterlimit="10"/>
<path d="M115.677 186.766L137.325 152.032L107.953 145.067" stroke="white" stroke-width="0.7725" stroke-miterlimit="10"/>
<path d="M158.26 188.064L137.326 152.032" stroke="white" stroke-width="0.7725" stroke-miterlimit="10"/>
<path d="M138.974 200.287L137.979 175.287" stroke="white" stroke-width="0.7725" stroke-miterlimit="10"/>
<path d="M111.302 144.725C111.302 146.099 110.186 147.222 108.803 147.222C107.428 147.222 106.304 146.106 106.304 144.725C106.304 143.345 107.421 142.229 108.803 142.229C110.186 142.229 111.302 143.345 111.302 144.725Z" fill="white"/>
<path d="M139.824 152.032C139.824 153.405 138.708 154.52 137.325 154.52C135.95 154.52 134.826 153.405 134.826 152.032C134.826 150.651 135.943 149.536 137.325 149.536C138.7 149.536 139.824 150.651 139.824 152.032Z" fill="white"/>
<path d="M168.946 143.094C168.946 144.475 167.83 145.59 166.447 145.59C165.072 145.59 163.948 144.475 163.948 143.094C163.948 141.713 165.065 140.598 166.447 140.598C167.83 140.598 168.946 141.713 168.946 143.094Z" fill="white"/>
<path d="M106.912 166.592C106.912 167.973 105.795 169.088 104.413 169.088C103.038 169.088 101.914 167.973 101.914 166.592C101.914 165.211 103.031 164.095 104.413 164.095C105.795 164.103 106.912 165.218 106.912 166.592Z" fill="white"/>
<path d="M141.473 200.286C141.473 201.667 140.356 202.783 138.974 202.783C137.591 202.783 136.475 201.667 136.475 200.286C136.475 198.906 137.591 197.79 138.974 197.79C140.348 197.79 141.473 198.906 141.473 200.286Z" fill="white"/>
<path d="M140.47 175.287C140.47 176.668 139.353 177.783 137.971 177.783C136.596 177.783 135.472 176.668 135.472 175.287C135.472 173.906 136.588 172.791 137.971 172.791C139.353 172.791 140.47 173.906 140.47 175.287Z" fill="white"/>
<path d="M170.603 167.555C170.603 168.929 169.486 170.051 168.104 170.051C166.721 170.051 165.604 168.936 165.604 167.555C165.604 166.174 166.721 165.059 168.104 165.059C169.486 165.059 170.603 166.174 170.603 167.555Z" fill="white"/>
<path d="M117.318 187.76C117.318 189.133 116.202 190.256 114.819 190.256C113.444 190.256 112.32 189.141 112.32 187.76C112.32 186.379 113.437 185.264 114.819 185.264C116.202 185.264 117.318 186.379 117.318 187.76Z" fill="white"/>
<path d="M160.963 189.224C160.963 190.598 159.847 191.721 158.464 191.721C157.089 191.721 155.965 190.605 155.965 189.224C155.965 187.844 157.082 186.728 158.464 186.728C159.847 186.728 160.963 187.851 160.963 189.224Z" fill="white"/>
<path d="M187.29 182.434C187.29 195.378 187.29 204.877 187.29 204.877C187.29 204.877 178.373 204.877 166.022 204.877" stroke="white" stroke-width="0.9242" stroke-miterlimit="10" stroke-linecap="round" stroke-linejoin="round"/>
<path d="M93.3081 133.663C93.3081 120.605 93.3081 111 93.3081 111C93.3081 111 105.036 111 120.205 111" stroke="white" stroke-width="0.9242" stroke-miterlimit="10" stroke-linecap="round" stroke-linejoin="round"/>
<path d="M164.822 111C177.78 111 187.282 111 187.282 111C187.282 111 187.282 119.915 187.282 132.244" stroke="white" stroke-width="0.9242" stroke-miterlimit="10" stroke-linecap="round" stroke-linejoin="round"/>
<path d="M115.997 204.869C102.924 204.869 93.3081 204.869 93.3081 204.869C93.3081 204.869 93.3081 193.155 93.3081 178.003" stroke="white" stroke-width="0.9242" stroke-miterlimit="10" stroke-linecap="round" stroke-linejoin="round"/>
<path d="M179.376 178.306C179.376 189.072 179.376 196.971 179.376 196.971C179.376 196.971 171.954 196.971 161.685 196.971" stroke="white" stroke-width="0.9242" stroke-miterlimit="10" stroke-linecap="round" stroke-linejoin="round"/>
<path d="M101.223 137.752C101.223 126.888 101.223 118.906 101.223 118.906C101.223 118.906 110.976 118.906 123.593 118.906" stroke="white" stroke-width="0.9242" stroke-miterlimit="10" stroke-linecap="round" stroke-linejoin="round"/>
<path d="M160.698 118.898C171.476 118.898 179.383 118.898 179.383 118.898C179.383 118.898 179.383 126.311 179.383 136.569" stroke="white" stroke-width="0.9242" stroke-miterlimit="10" stroke-linecap="round" stroke-linejoin="round"/>
<path d="M120.091 196.971C109.214 196.971 101.223 196.971 101.223 196.971C101.223 196.971 101.223 187.229 101.223 174.626" stroke="white" stroke-width="0.9242" stroke-miterlimit="10" stroke-linecap="round" stroke-linejoin="round"/>
<path d="M269.141 166.083C273.608 187.077 284.994 190.552 284.994 190.552L285.001 200.719C285.001 200.719 296.334 293.101 326.17 322.6H346.777C355.285 301.447 351.844 243.534 349.049 237.259C345.463 229.201 345.023 215.613 352.489 205.469C359.956 195.324 359.356 187.866 349.2 177.419C339.045 166.971 348.274 161.167 336.356 138.625C326.497 119.976 310.979 113.564 299.912 113.564C274.823 113.564 263.452 128.276 265.564 147.73C266.149 153.238 268.374 162.479 269.141 166.083Z" fill="#101010"/>
<path d="M367.955 304.854C368.532 310.787 367.454 315.643 359.926 319.459C354.602 322.16 345.563 315.506 343.504 309.907C340.352 301.303 333.918 276.045 333.918 276.045C333.334 274.171 334.678 225.56 335.924 227.38C350.052 247.987 367.955 304.854 367.955 304.854Z" fill="#87A8CF"/>
<path d="M262.503 322.6H328.647C328.556 305.923 329.665 287.714 333.918 276.037C345.114 245.324 335.24 225.984 335.24 225.984C326.33 222.031 310.083 211.447 310.083 211.447H283.536C283.536 211.447 260.726 220.871 252.477 226.402C252.477 226.402 243.559 242.767 255.523 277.198C259.541 288.784 261.531 306.401 262.503 322.6Z" fill="#87A8CF"/>
<path d="M283.536 211.44L296.57 223.86L310.075 211.44V189.255H283.536V211.44Z" fill="#B5754F"/>
<path d="M268.762 173.966C271.048 183.837 284.888 202.517 297.36 202.517C308.077 202.517 325.312 186.978 326.064 176.736C326.064 176.736 328.738 158.435 329.117 152.282C330.249 134.08 313.212 119.27 297.367 119.27C281.507 119.27 263.863 134.088 265.154 152.282C265.579 158.443 267.364 167.95 268.762 173.966Z" fill="#A26744"/>
<path d="M249.598 322.6C251.952 310.476 255.568 289.755 255.515 277.191C255.378 245.954 255.515 224.391 255.515 224.391C255.515 224.391 242.002 230.56 237.065 252.373C235.113 260.984 232.34 291.879 229.91 322.593H249.598V322.6Z" fill="#87A8CF"/>
<path d="M300.763 182.108C300.626 182.108 300.482 182.1 300.345 182.093C300.11 182.062 299.912 181.857 299.943 181.615C299.965 181.372 300.155 181.174 300.421 181.212C301.302 181.296 301.978 181.046 302.054 180.848C302.092 180.765 302.001 180.461 301.272 179.961C299.061 178.458 298.811 173.238 298.796 173.018C298.788 172.775 298.978 172.571 299.229 172.555C299.479 172.548 299.669 172.737 299.677 172.973C299.745 174.361 300.239 178.193 301.766 179.232C302.738 179.877 303.11 180.522 302.897 181.137C302.647 181.835 301.697 182.108 300.763 182.108Z" fill="#060821"/>
<path d="M314.511 168.708C315.172 168.708 315.764 168.974 316.189 169.452C316.539 169.877 316.721 170.416 316.721 170.992C316.721 172.138 315.954 173.306 314.511 173.306C313.82 173.306 313.22 173.033 312.809 172.548C312.452 172.13 312.255 171.592 312.255 170.992C312.255 169.862 313.022 168.708 314.511 168.708Z" fill="#060821"/>
<path d="M286.809 168.708C286.148 168.708 285.556 168.974 285.13 169.452C284.781 169.877 284.599 170.416 284.599 170.992C284.599 172.138 285.366 173.306 286.817 173.306C287.508 173.306 288.108 173.033 288.518 172.548C288.883 172.13 289.072 171.592 289.072 170.992C289.065 169.862 288.298 168.708 286.809 168.708Z" fill="#060821"/>
<path d="M281.515 162.927C281.515 162.927 283.999 159.854 289.529 161.721" stroke="#060821" stroke-width="1.6408" stroke-miterlimit="10" stroke-linecap="round" stroke-linejoin="round"/>
<path d="M319.19 162.927C319.19 162.927 316.706 159.854 311.176 161.721" stroke="#060821" stroke-width="1.6408" stroke-miterlimit="10" stroke-linecap="round" stroke-linejoin="round"/>
<path d="M307.591 187.745C307.47 191.599 303.999 194.695 299.722 194.695C295.446 194.695 291.967 191.592 291.853 187.745H307.591Z" fill="white"/>
<path d="M266.02 160.469C266.02 160.469 270.63 158.587 273.707 164.24C273.707 164.24 273.107 150.423 278.712 141.493C278.712 141.493 286.711 152.768 301.112 153.238C315.514 153.709 323.945 158.746 327.743 168.633C327.743 168.633 334.526 153.913 327.743 138.147C321.643 123.967 305.776 116.675 295.666 117.062C285.564 117.449 259.077 130.583 266.02 160.469Z" fill="#101010"/>
<path d="M265.123 165.12C265.572 168.382 267.896 170.764 270.311 170.431C272.742 170.097 274.337 167.191 273.896 163.921C273.448 160.666 271.139 158.283 268.716 158.61C266.293 158.944 264.683 161.857 265.123 165.12Z" fill="#A26744"/>
<path d="M283.536 225.582H310.083C310.083 225.582 312.172 205.893 310.083 205.893C310.083 205.893 297.747 209.52 283.536 205.893C282.503 205.628 283.536 225.582 283.536 225.582Z" fill="#87A8CF"/>
<path d="M263.438 213.215L315.506 257.881L379.121 217.145L337.473 153.792L263.438 213.215Z" fill="url(#paint1_linear)" fill-opacity="0.12"/>
<path d="M378.885 216.637H313.911V257.881H378.885V216.637Z" fill="#02040F"/>
<path d="M346.649 306.895C346.649 306.895 369.246 256.826 367.567 252.661C366.664 250.415 364.803 240.954 364.567 238.814C363.245 226.751 376.173 217.646 382.736 239.77C384.187 244.657 381.171 251.553 380.207 254.376C379.576 256.212 379.295 258.632 379.295 258.632L368.023 311.515C366.74 317.342 361.445 321.257 354.898 319.755C349.072 318.412 345.373 312.714 346.649 306.895Z" fill="#A26744"/>
<path d="M277.512 190.863L299.661 202.35L317.534 192.214L326.109 172.881L325.578 149.915H272.18L267.972 171.463L277.512 190.863Z" stroke="white" stroke-width="0.7083" stroke-miterlimit="10"/>
<path d="M277.512 190.863L298.287 180.438L317.534 192.214" stroke="white" stroke-width="0.7083" stroke-miterlimit="10"/>
<path d="M298.286 177.972L298.149 158.109L325.578 149.915" stroke="white" stroke-width="0.7083" stroke-miterlimit="10"/>
<path d="M325.707 171.811L298.15 157.502L268.959 170.969L298.742 179.429L325.578 172.881" stroke="white" stroke-width="0.7083" stroke-miterlimit="10"/>
<path d="M278.302 189.953L298.15 158.109L271.215 151.728" stroke="white" stroke-width="0.7083" stroke-miterlimit="10"/>
<path d="M317.344 191.151L298.149 158.109" stroke="white" stroke-width="0.7083" stroke-miterlimit="10"/>
<path d="M299.661 202.35L298.742 179.429" stroke="white" stroke-width="0.7083" stroke-miterlimit="10"/>
<path d="M274.292 151.41C274.292 152.669 273.266 153.693 272.006 153.693C270.745 153.693 269.719 152.669 269.719 151.41C269.719 150.142 270.745 149.118 272.006 149.118C273.266 149.118 274.292 150.142 274.292 151.41Z" fill="white"/>
<path d="M300.436 158.109C300.436 159.368 299.411 160.393 298.15 160.393C296.889 160.393 295.864 159.368 295.864 158.109C295.864 156.842 296.889 155.825 298.15 155.825C299.411 155.818 300.436 156.842 300.436 158.109Z" fill="white"/>
<path d="M327.143 149.915C327.143 151.174 326.117 152.199 324.856 152.199C323.595 152.199 322.57 151.174 322.57 149.915C322.57 148.648 323.595 147.624 324.856 147.624C326.117 147.624 327.143 148.648 327.143 149.915Z" fill="white"/>
<path d="M270.266 171.463C270.266 172.722 269.24 173.746 267.972 173.746C266.711 173.746 265.686 172.722 265.686 171.463C265.686 170.203 266.711 169.179 267.972 169.179C269.24 169.171 270.266 170.196 270.266 171.463Z" fill="white"/>
<path d="M301.948 202.35C301.948 203.609 300.922 204.634 299.661 204.634C298.393 204.634 297.375 203.609 297.375 202.35C297.375 201.083 298.4 200.066 299.661 200.066C300.922 200.066 301.948 201.09 301.948 202.35Z" fill="white"/>
<path d="M301.036 179.429C301.036 180.696 300.011 181.713 298.75 181.713C297.489 181.713 296.463 180.689 296.463 179.429C296.463 178.17 297.489 177.146 298.75 177.146C300.011 177.146 301.036 178.162 301.036 179.429Z" fill="white"/>
<path d="M328.662 172.343C328.662 173.602 327.636 174.626 326.368 174.626C325.099 174.626 324.082 173.602 324.082 172.343C324.082 171.076 325.107 170.059 326.368 170.059C327.636 170.051 328.662 171.076 328.662 172.343Z" fill="white"/>
<path d="M279.806 190.863C279.806 192.123 278.781 193.147 277.52 193.147C276.259 193.147 275.233 192.123 275.233 190.863C275.233 189.596 276.259 188.572 277.52 188.572C278.781 188.579 279.806 189.604 279.806 190.863Z" fill="white"/>
<path d="M319.82 192.213C319.82 193.473 318.795 194.497 317.534 194.497C316.273 194.497 315.24 193.473 315.24 192.213C315.24 190.946 316.265 189.93 317.534 189.93C318.795 189.922 319.82 190.946 319.82 192.213Z" fill="white"/>
<path d="M343.96 185.984C343.96 197.858 343.96 206.561 343.96 206.561C343.96 206.561 335.779 206.561 324.461 206.561" stroke="white" stroke-width="0.8473" stroke-miterlimit="10" stroke-linecap="round" stroke-linejoin="round"/>
<path d="M257.794 141.265C257.794 129.293 257.794 120.484 257.794 120.484C257.794 120.484 268.549 120.484 282.457 120.484" stroke="white" stroke-width="0.8473" stroke-miterlimit="10" stroke-linecap="round" stroke-linejoin="round"/>
<path d="M323.36 120.491C335.24 120.491 343.959 120.491 343.959 120.491C343.959 120.491 343.959 128.663 343.959 139.968" stroke="white" stroke-width="0.8473" stroke-miterlimit="10" stroke-linecap="round" stroke-linejoin="round"/>
<path d="M278.598 206.553C266.605 206.553 257.793 206.553 257.793 206.553C257.793 206.553 257.793 195.81 257.793 181.917" stroke="white" stroke-width="0.8473" stroke-miterlimit="10" stroke-linecap="round" stroke-linejoin="round"/>
<path d="M336.705 182.198C336.705 192.069 336.705 199.308 336.705 199.308C336.705 199.308 329.899 199.308 320.488 199.308" stroke="white" stroke-width="0.8473" stroke-miterlimit="10" stroke-linecap="round" stroke-linejoin="round"/>
<path d="M265.047 145.013C265.047 135.051 265.047 127.73 265.047 127.73C265.047 127.73 273.987 127.73 285.555 127.73" stroke="white" stroke-width="0.8473" stroke-miterlimit="10" stroke-linecap="round" stroke-linejoin="round"/>
<path d="M319.577 127.737C329.459 127.737 336.705 127.737 336.705 127.737C336.705 127.737 336.705 134.535 336.705 143.936" stroke="white" stroke-width="0.8473" stroke-miterlimit="10" stroke-linecap="round" stroke-linejoin="round"/>
<path d="M282.343 199.315C272.369 199.315 265.04 199.315 265.04 199.315C265.04 199.315 265.04 190.378 265.04 178.83" stroke="white" stroke-width="0.8473" stroke-miterlimit="10" stroke-linecap="round" stroke-linejoin="round"/>
<g filter="url(#filter0_d)">
<path d="M141.534 72.2716C141.534 84.5562 131.565 94.5136 119.267 94.5136C106.969 94.5136 97 84.5562 97 72.2716C97 59.987 106.969 50.0295 119.267 50.0295C131.565 50.0382 141.534 59.9956 141.534 72.2716Z" fill="white"/>
</g>
<path d="M130.344 58.8449C126.646 55.5921 121.016 55.9468 117.76 59.6322C115.326 62.3919 114.911 66.233 116.4 69.3561L115.56 69.6329L115.595 72.012L105.176 83.8121L105.384 87.2899L109.316 87.4629L109.775 86.0441L110.857 85.9316L111.602 85.0925L111.741 84.0803L113.074 83.4228L113.23 83.2498L113.17 82.6702L113.863 82.5404L113.984 82.402L114.296 81.3811L115.474 80.6285L116.106 78.8291L117.743 78.137L118.461 77.3238C118.539 76.9604 118.782 76.2251 118.791 76.2164L121.718 74.9966L121.891 74.0536C125.122 75.0139 128.759 74.0969 131.132 71.4064C134.389 67.7297 134.034 62.0978 130.344 58.8449ZM129.01 63.5685C128.188 64.4941 126.776 64.5806 125.849 63.7674C124.922 62.9542 124.836 61.5354 125.65 60.6098C126.473 59.6841 127.884 59.5976 128.803 60.4108C129.738 61.224 129.816 62.6428 129.01 63.5685Z" fill="#FF8A10"/>
<g filter="url(#filter1_d)">
<path d="M203.286 72.2716C203.286 84.5562 193.317 94.5136 181.019 94.5136C168.721 94.5136 158.752 84.5562 158.752 72.2716C158.752 59.987 168.721 50.0295 181.019 50.0295C193.317 50.0382 203.286 59.9956 203.286 72.2716Z" fill="white"/>
</g>
<path d="M200.497 72.3061C200.497 72.3061 191.775 81.1649 181.019 81.1649C170.262 81.1649 161.541 72.3061 161.541 72.3061C161.541 72.3061 170.262 63.3782 181.019 63.3782C191.775 63.3868 200.497 72.3061 200.497 72.3061Z" fill="#87A8CF"/>
<path d="M189.03 72.2801C189.03 76.7009 185.444 80.2824 181.019 80.2824C176.593 80.2824 173.007 76.7009 173.007 72.2801C173.007 67.8594 176.593 64.2778 181.019 64.2778C185.444 64.2692 189.03 67.8594 189.03 72.2801Z" fill="#6681BB"/>
<path d="M185.037 72.2803C185.037 74.4949 183.236 76.2944 181.019 76.2944C178.801 76.2944 177 74.4949 177 72.2803C177 70.0656 178.801 68.2661 181.019 68.2661C183.236 68.2575 185.037 70.0569 185.037 72.2803Z" fill="#010209"/>
<g filter="url(#filter2_d)">
<path d="M266.423 72.2716C266.423 84.5562 256.454 94.5136 244.156 94.5136C231.858 94.5136 221.889 84.5562 221.889 72.2716C221.889 59.987 231.858 50.0295 244.156 50.0295C256.454 50.0382 266.423 59.9956 266.423 72.2716Z" fill="white"/>
</g>
<path d="M254.488 68.7766H251.145C251.145 57.5734 246.252 57.5734 244.164 57.5734C242.441 57.5734 237.184 57.5734 237.184 68.7766H233.832C233.832 63.8454 234.811 60.1081 236.725 57.6599C238.483 55.4192 241.046 54.2427 244.156 54.2427C247.352 54.2427 249.846 55.3241 251.569 57.4522C253.535 59.8659 254.488 63.5772 254.488 68.7766Z" fill="#060821"/>
<path d="M255.874 68.0413H232.455V86.4855H255.874V68.0413Z" fill="#FF8A10"/>
<path d="M247.273 76.0607C247.273 74.3391 245.879 72.9463 244.156 72.9463C242.432 72.9463 241.038 74.3391 241.038 76.0607C241.038 77.0469 241.505 77.9293 242.224 78.5003V83.1287H246.087V78.5003C246.814 77.9293 247.273 77.0469 247.273 76.0607Z" fill="#060821"/>
<g filter="url(#filter3_d)">
<path d="M325.931 72.2716C325.931 84.5562 315.963 94.5136 303.664 94.5136C291.366 94.5136 281.397 84.5562 281.397 72.2716C281.397 59.987 291.366 50.0295 303.664 50.0295C315.963 50.0382 325.931 59.9956 325.931 72.2716Z" fill="white"/>
</g>
<path d="M303.517 89.0895C292.743 89.0895 288.144 65.4806 288.144 65.4806C288.144 65.4806 291.253 66.164 293.47 63.5341C295.679 60.9041 295.696 57.8157 295.696 57.8157H312.533C312.533 57.8157 312.334 60.411 313.971 63.1707C315.659 66.0169 319.193 65.8007 319.193 65.8007C319.193 65.8007 314.689 89.0895 303.517 89.0895Z" fill="#060821"/>
<path d="M303.552 85.5597C295.211 85.5597 291.652 67.2799 291.652 67.2799C291.652 67.2799 294.06 67.8076 295.774 65.7746C297.489 63.7329 297.498 61.3452 297.498 61.3452H310.532C310.532 61.3452 310.377 63.3523 311.641 65.4891C312.949 67.6865 315.686 67.5308 315.686 67.5308C315.686 67.5308 312.204 85.5597 303.552 85.5597Z" fill="#87A8CF"/>
</g>
<defs>
<filter id="filter0_d" x="77" y="30.0295" width="84.534" height="84.4841" filterUnits="userSpaceOnUse" color-interpolation-filters="sRGB">
<feFlood flood-opacity="0" result="BackgroundImageFix"/>
<feColorMatrix in="SourceAlpha" type="matrix" values="0 0 0 0 0 0 0 0 0 0 0 0 0 0 0 0 0 0 127 0"/>
<feOffset/>
<feGaussianBlur stdDeviation="10"/>
<feColorMatrix type="matrix" values="0 0 0 0 0.5375 0 0 0 0 0.5375 0 0 0 0 0.5375 0 0 0 0.25 0"/>
<feBlend mode="normal" in2="BackgroundImageFix" result="effect1_dropShadow"/>
<feBlend mode="normal" in="SourceGraphic" in2="effect1_dropShadow" result="shape"/>
</filter>
<filter id="filter1_d" x="138.752" y="30.0295" width="84.534" height="84.4841" filterUnits="userSpaceOnUse" color-interpolation-filters="sRGB">
<feFlood flood-opacity="0" result="BackgroundImageFix"/>
<feColorMatrix in="SourceAlpha" type="matrix" values="0 0 0 0 0 0 0 0 0 0 0 0 0 0 0 0 0 0 127 0"/>
<feOffset/>
<feGaussianBlur stdDeviation="10"/>
<feColorMatrix type="matrix" values="0 0 0 0 0.5375 0 0 0 0 0.5375 0 0 0 0 0.5375 0 0 0 0.25 0"/>
<feBlend mode="normal" in2="BackgroundImageFix" result="effect1_dropShadow"/>
<feBlend mode="normal" in="SourceGraphic" in2="effect1_dropShadow" result="shape"/>
</filter>
<filter id="filter2_d" x="201.889" y="30.0295" width="84.534" height="84.4841" filterUnits="userSpaceOnUse" color-interpolation-filters="sRGB">
<feFlood flood-opacity="0" result="BackgroundImageFix"/>
<feColorMatrix in="SourceAlpha" type="matrix" values="0 0 0 0 0 0 0 0 0 0 0 0 0 0 0 0 0 0 127 0"/>
<feOffset/>
<feGaussianBlur stdDeviation="10"/>
<feColorMatrix type="matrix" values="0 0 0 0 0.5375 0 0 0 0 0.5375 0 0 0 0 0.5375 0 0 0 0.25 0"/>
<feBlend mode="normal" in2="BackgroundImageFix" result="effect1_dropShadow"/>
<feBlend mode="normal" in="SourceGraphic" in2="effect1_dropShadow" result="shape"/>
</filter>
<filter id="filter3_d" x="261.397" y="30.0295" width="84.534" height="84.4841" filterUnits="userSpaceOnUse" color-interpolation-filters="sRGB">
<feFlood flood-opacity="0" result="BackgroundImageFix"/>
<feColorMatrix in="SourceAlpha" type="matrix" values="0 0 0 0 0 0 0 0 0 0 0 0 0 0 0 0 0 0 127 0"/>
<feOffset/>
<feGaussianBlur stdDeviation="10"/>
<feColorMatrix type="matrix" values="0 0 0 0 0.5375 0 0 0 0 0.5375 0 0 0 0 0.5375 0 0 0 0.25 0"/>
<feBlend mode="normal" in2="BackgroundImageFix" result="effect1_dropShadow"/>
<feBlend mode="normal" in="SourceGraphic" in2="effect1_dropShadow" result="shape"/>
</filter>
<linearGradient id="paint0_linear" x1="57.4037" y1="244.475" x2="150.567" y2="171.933" gradientUnits="userSpaceOnUse">
<stop stop-color="white"/>
<stop offset="0.3295" stop-color="#3B2E2B"/>
<stop offset="0.5626" stop-color="#050303"/>
<stop offset="0.6675"/>
</linearGradient>
<linearGradient id="paint1_linear" x1="280.662" y1="170.233" x2="371.522" y2="240.981" gradientUnits="userSpaceOnUse">
<stop offset="0.3325"/>
<stop offset="0.4374" stop-color="#050303"/>
<stop offset="0.6705" stop-color="#3B2E2B"/>
<stop offset="1" stop-color="white"/>
</linearGradient>
<clipPath id="clip0">
<rect width="439" height="343" fill="white"/>
</clipPath>
</defs>
</svg>
