<svg width="23" height="28" viewBox="0 0 23 28" fill="none" xmlns="http://www.w3.org/2000/svg">
<path d="M0.996545 2.324L11.4545 0L21.9125 2.324C22.1952 2.38683 22.4479 2.54414 22.6291 2.76997C22.8103 2.9958 22.909 3.27666 22.9091 3.56618V16.2769C22.909 17.534 22.5986 18.7717 22.0053 19.88C21.4121 20.9883 20.5544 21.9331 19.5084 22.6304L11.4545 28L3.40073 22.6304C2.35489 21.9332 1.49731 20.9887 0.904079 19.8806C0.310845 18.7725 0.000300817 17.5351 0 16.2782V3.56618C4.96845e-05 3.27666 0.0988119 2.9958 0.279987 2.76997C0.461161 2.54414 0.71392 2.38683 0.996545 2.324ZM2.54545 4.58691V16.2769C2.54547 17.1149 2.75237 17.94 3.14779 18.6789C3.54321 19.4178 4.11492 20.0476 4.81218 20.5125L11.4545 24.9416L18.0969 20.5125C18.794 20.0478 19.3656 19.4181 19.761 18.6795C20.1564 17.9408 20.3634 17.116 20.3636 16.2782V4.58691L11.4545 2.60909L2.54545 4.58691ZM11.4545 12.7273C10.6107 12.7273 9.80137 12.392 9.20466 11.7953C8.60795 11.1986 8.27273 10.3893 8.27273 9.54545C8.27273 8.70158 8.60795 7.89228 9.20466 7.29557C9.80137 6.69886 10.6107 6.36364 11.4545 6.36364C12.2984 6.36364 13.1077 6.69886 13.7044 7.29557C14.3011 7.89228 14.6364 8.70158 14.6364 9.54545C14.6364 10.3893 14.3011 11.1986 13.7044 11.7953C13.1077 12.392 12.2984 12.7273 11.4545 12.7273ZM5.76164 19.0909C5.91592 17.6889 6.58214 16.3931 7.63265 15.4518C8.68315 14.5106 10.044 13.9901 11.4545 13.9901C12.865 13.9901 14.2259 14.5106 15.2764 15.4518C16.327 16.3931 16.9932 17.6889 17.1475 19.0909H5.76164Z" fill="#18A6E3"/>
</svg>
