<svg width="28" height="42" viewBox="0 0 28 42" fill="none" xmlns="http://www.w3.org/2000/svg">
<path d="M6.5625 21C5.838 21 5.25 20.412 5.25 19.6875V17.0625C5.25 15.3738 6.62375 14 8.3125 14H10.9375C11.662 14 12.25 14.588 12.25 15.3125C12.25 16.037 11.662 16.625 10.9375 16.625H8.3125C8.071 16.625 7.875 16.821 7.875 17.0625V19.6875C7.875 20.412 7.287 21 6.5625 21Z" fill="url(#paint0_linear)"/>
<path d="M21.4375 21C20.713 21 20.125 20.412 20.125 19.6875V17.0625C20.125 16.821 19.929 16.625 19.6875 16.625H17.0625C16.338 16.625 15.75 16.037 15.75 15.3125C15.75 14.588 16.338 14 17.0625 14H19.6875C21.3762 14 22.75 15.3738 22.75 17.0625V19.6875C22.75 20.412 22.162 21 21.4375 21Z" fill="url(#paint1_linear)"/>
<path d="M10.9375 31.5H8.3125C6.62375 31.5 5.25 30.1262 5.25 28.4375V25.8125C5.25 25.088 5.838 24.5 6.5625 24.5C7.287 24.5 7.875 25.088 7.875 25.8125V28.4375C7.875 28.679 8.071 28.875 8.3125 28.875H10.9375C11.662 28.875 12.25 29.463 12.25 30.1875C12.25 30.912 11.662 31.5 10.9375 31.5Z" fill="url(#paint2_linear)"/>
<path d="M19.6875 31.5H17.0625C16.338 31.5 15.75 30.912 15.75 30.1875C15.75 29.463 16.338 28.875 17.0625 28.875H19.6875C19.929 28.875 20.125 28.679 20.125 28.4375V25.8125C20.125 25.088 20.713 24.5 21.4375 24.5C22.162 24.5 22.75 25.088 22.75 25.8125V28.4375C22.75 30.1262 21.3762 31.5 19.6875 31.5Z" fill="url(#paint3_linear)"/>
<path d="M17.9375 7H10.0625C8.37375 7 7 5.62625 7 3.9375C7 3.21475 6.41025 2.625 5.6875 2.625H4.8125C4.088 2.625 3.5 2.037 3.5 1.3125C3.5 0.588 4.088 0 4.8125 0H5.6875C7.8575 0 9.625 1.7675 9.625 3.9375C9.625 4.179 9.821 4.375 10.0625 4.375H17.9375C18.179 4.375 18.375 4.179 18.375 3.9375C18.375 1.7675 20.1425 0 22.3125 0H23.1875C23.912 0 24.5 0.588 24.5 1.3125C24.5 2.037 23.912 2.625 23.1875 2.625H22.3125C21.5898 2.625 21 3.21475 21 3.9375C21 5.62625 19.6262 7 17.9375 7Z" fill="url(#paint4_linear)"/>
<path d="M23.1875 42H4.8125C2.15775 42 0 39.8423 0 37.1875V4.8125C0 2.15775 2.15775 0 4.8125 0H23.1875C25.8423 0 28 2.15775 28 4.8125V37.1875C28 39.8423 25.8423 42 23.1875 42ZM4.8125 2.625C3.60675 2.625 2.625 3.60675 2.625 4.8125V37.1875C2.625 38.3932 3.60675 39.375 4.8125 39.375H23.1875C24.3932 39.375 25.375 38.3932 25.375 37.1875V4.8125C25.375 3.60675 24.3932 2.625 23.1875 2.625H4.8125Z" fill="url(#paint5_linear)"/>
<defs>
<linearGradient id="paint0_linear" x1="8.75" y1="14" x2="8.75" y2="21" gradientUnits="userSpaceOnUse">
<stop stop-color="#008ADB"/>
<stop offset="1" stop-color="#00A8B3"/>
</linearGradient>
<linearGradient id="paint1_linear" x1="19.25" y1="14" x2="19.25" y2="21" gradientUnits="userSpaceOnUse">
<stop stop-color="#008ADB"/>
<stop offset="1" stop-color="#00A8B3"/>
</linearGradient>
<linearGradient id="paint2_linear" x1="8.75" y1="24.5" x2="8.75" y2="31.5" gradientUnits="userSpaceOnUse">
<stop stop-color="#008ADB"/>
<stop offset="1" stop-color="#00A8B3"/>
</linearGradient>
<linearGradient id="paint3_linear" x1="19.25" y1="24.5" x2="19.25" y2="31.5" gradientUnits="userSpaceOnUse">
<stop stop-color="#008ADB"/>
<stop offset="1" stop-color="#00A8B3"/>
</linearGradient>
<linearGradient id="paint4_linear" x1="14" y1="0" x2="14" y2="7" gradientUnits="userSpaceOnUse">
<stop stop-color="#008ADB"/>
<stop offset="1" stop-color="#00A8B3"/>
</linearGradient>
<linearGradient id="paint5_linear" x1="14" y1="0" x2="14" y2="42" gradientUnits="userSpaceOnUse">
<stop stop-color="#008ADB"/>
<stop offset="1" stop-color="#00A8B3"/>
</linearGradient>
</defs>
</svg>
