<svg width="28" height="40" viewBox="0 0 28 40" fill="none" xmlns="http://www.w3.org/2000/svg">
<path d="M4 4V36H24V4H4ZM2 0H26C26.5304 0 27.0391 0.210714 27.4142 0.585786C27.7893 0.960859 28 1.46957 28 2V38C28 38.5304 27.7893 39.0391 27.4142 39.4142C27.0391 39.7893 26.5304 40 26 40H2C1.46957 40 0.96086 39.7893 0.585787 39.4142C0.210714 39.0391 0 38.5304 0 38V2C0 1.46957 0.210714 0.960859 0.585787 0.585786C0.96086 0.210714 1.46957 0 2 0ZM14 30C14.5304 30 15.0391 30.2107 15.4142 30.5858C15.7893 30.9609 16 31.4696 16 32C16 32.5304 15.7893 33.0391 15.4142 33.4142C15.0391 33.7893 14.5304 34 14 34C13.4696 34 12.9609 33.7893 12.5858 33.4142C12.2107 33.0391 12 32.5304 12 32C12 31.4696 12.2107 30.9609 12.5858 30.5858C12.9609 30.2107 13.4696 30 14 30Z" fill="#292929"/>
</svg>
