<svg width="45" height="40" viewBox="0 0 45 40" fill="none" xmlns="http://www.w3.org/2000/svg">
<path d="M40 22.484V36H42V40H2V36H4V22.484C2.76874 21.6622 1.75943 20.5491 1.06164 19.2435C0.363854 17.938 -0.000815467 16.4803 1.36922e-06 15C1.36922e-06 13.346 0.448001 11.752 1.266 10.394L6.69 1C6.86553 0.695969 7.118 0.443498 7.42203 0.267962C7.72606 0.0924258 8.07094 8.91844e-06 8.422 0H35.58C35.9311 8.91844e-06 36.2759 0.0924258 36.58 0.267962C36.884 0.443498 37.1365 0.695969 37.312 1L42.716 10.364C43.9091 12.3457 44.2926 14.7111 43.7868 16.9683C43.281 19.2255 41.9247 21.2009 40 22.484ZM36 23.944C34.6249 24.0983 33.2327 23.9331 31.9318 23.4613C30.631 22.9895 29.4566 22.2239 28.5 21.224C27.6604 22.1021 26.6516 22.801 25.5344 23.2785C24.4173 23.756 23.2149 24.0021 22 24.002C20.7854 24.0026 19.5832 23.7571 18.4661 23.2803C17.3489 22.8036 16.3399 22.1054 15.5 21.228C14.5433 22.2275 13.3687 22.9928 12.0679 23.4642C10.7671 23.9356 9.37498 24.1005 8 23.946V36H36V23.946V23.944ZM9.578 4L4.712 12.426C4.23916 13.5943 4.22496 14.8981 4.67226 16.0764C5.11956 17.2547 5.99536 18.2206 7.12436 18.7808C8.25337 19.341 9.55229 19.4542 10.7612 19.0976C11.97 18.7411 12.9997 17.9412 13.644 16.858C14.314 15.184 16.684 15.184 17.356 16.858C17.7266 17.7868 18.3672 18.5832 19.1951 19.1442C20.0229 19.7052 21 20.0051 22 20.0051C23 20.0051 23.9771 19.7052 24.805 19.1442C25.6328 18.5832 26.2734 17.7868 26.644 16.858C27.314 15.184 29.684 15.184 30.356 16.858C30.6156 17.4969 31.0045 18.0752 31.4983 18.5566C31.9921 19.0379 32.5801 19.4119 33.2255 19.655C33.8708 19.8982 34.5594 20.0052 35.2481 19.9694C35.9368 19.9335 36.6106 19.7556 37.2272 19.4469C37.8438 19.1381 38.3899 18.7051 38.8311 18.1751C39.2723 17.6451 39.5991 17.0295 39.7909 16.3671C39.9828 15.7048 40.0356 15.0099 39.9459 14.3261C39.8563 13.6424 39.6261 12.9845 39.27 12.394L34.42 4H9.58H9.578Z" fill="#F76716"/>
</svg>
