<svg width="28" height="28" viewBox="0 0 28 28" fill="none" xmlns="http://www.w3.org/2000/svg">
<path d="M14 28C6.2678 28 0 21.7322 0 14C0 6.2678 6.2678 0 14 0C21.7322 0 28 6.2678 28 14C28 21.7322 21.7322 28 14 28ZM14 25.2C16.9704 25.2 19.8192 24.02 21.9196 21.9196C24.02 19.8192 25.2 16.9704 25.2 14C25.2 11.0296 24.02 8.18081 21.9196 6.0804C19.8192 3.98 16.9704 2.8 14 2.8C11.0296 2.8 8.18081 3.98 6.0804 6.0804C3.98 8.18081 2.8 11.0296 2.8 14C2.8 16.9704 3.98 19.8192 6.0804 21.9196C8.18081 24.02 11.0296 25.2 14 25.2ZM7 14H9.8C9.8 15.1139 10.2425 16.1822 11.0302 16.9698C11.8178 17.7575 12.8861 18.2 14 18.2C15.1139 18.2 16.1822 17.7575 16.9698 16.9698C17.7575 16.1822 18.2 15.1139 18.2 14H21C21 15.8565 20.2625 17.637 18.9497 18.9497C17.637 20.2625 15.8565 21 14 21C12.1435 21 10.363 20.2625 9.05025 18.9497C7.7375 17.637 7 15.8565 7 14Z" fill="#18A6E3"/>
</svg>
