<svg width="26" height="28" viewBox="0 0 26 28" fill="none" xmlns="http://www.w3.org/2000/svg">
<path d="M20.2422 15.1979V16.5795C20.2422 20.4066 19.3248 24.1024 17.5964 27.4197L17.2827 28L14.869 26.6543C16.4717 23.7805 17.3698 20.5613 17.4693 17.2095L17.4789 16.5795V15.1979H20.2422ZM11.9524 11.053H14.7157V16.5795L14.7088 17.1031C14.6043 20.8856 13.3026 24.5374 10.9908 27.533L10.6717 27.9337L8.53015 26.1873C10.639 23.6118 11.8391 20.4123 11.9441 17.0852L11.9524 16.5795V11.053ZM13.3341 5.52651C15.1662 5.52651 16.9233 6.25433 18.2188 7.54985C19.5144 8.84537 20.2422 10.6025 20.2422 12.4346H17.4789C17.4789 11.3353 17.0422 10.2811 16.2649 9.50376C15.4876 8.72645 14.4333 8.28976 13.3341 8.28976C12.2348 8.28976 11.1805 8.72645 10.4032 9.50376C9.62587 10.2811 9.18918 11.3353 9.18918 12.4346V16.5795C9.18918 19.6674 8.05625 22.5813 6.05151 24.8375L5.75861 25.1552L3.75802 23.2486C5.37446 21.5574 6.31988 19.3355 6.41764 16.9981L6.42593 16.5795V12.4346C6.42593 10.6025 7.15375 8.84537 8.44927 7.54985C9.7448 6.25433 11.5019 5.52651 13.3341 5.52651ZM13.3341 1.36291e-05C16.6319 1.36291e-05 19.7947 1.31008 22.1267 3.64203C24.4586 5.97397 25.7687 9.13676 25.7687 12.4346V16.5795C25.7687 18.9255 25.4896 21.2356 24.9438 23.4738L24.7518 24.2185L22.0853 23.4918C22.6269 21.5064 22.9322 19.4547 22.9944 17.3643L23.0054 16.5795V12.4346C23.0054 10.6397 22.5059 8.88021 21.5628 7.35302C20.6197 5.82584 19.2702 4.59123 17.6654 3.78737C16.0606 2.98352 14.2637 2.64212 12.4758 2.8014C10.688 2.96068 8.97975 3.61435 7.54228 4.68924L5.57347 2.71905C7.77505 0.955103 10.513 -0.00417038 13.3341 1.36291e-05ZM3.61847 4.67405L5.58867 6.64286C4.4037 8.22237 3.73323 10.1281 3.66821 12.1017L3.66268 12.4346L3.66821 15.1979C3.66821 16.7453 3.30346 18.2416 2.61541 19.5873L2.39988 19.988L0 18.6174C0.525017 17.6986 0.831737 16.6734 0.892529 15.6013L0.904964 15.1979V12.4346C0.896767 9.61381 1.85434 6.87517 3.61847 4.67405Z" fill="#18A6E3"/>
</svg>
