<svg width="42" height="42" viewBox="0 0 42 42" fill="none" xmlns="http://www.w3.org/2000/svg">
<path d="M29.6132 9.41611L28.0223 7.8252L26.2822 9.56541L29.6132 12.8964L35.4051 7.10447L33.665 5.36426L29.6132 9.41611Z" fill="url(#paint0_linear)"/>
<path d="M27.1523 34.7687C27.1523 31.9378 25.1925 29.3931 22.4921 28.718L17.3086 27.4221V25.2796C18.8727 23.5065 19.7695 20.8298 19.7695 18.5391C19.7695 14.8016 17.3546 12.3867 13.6172 12.3867C9.87976 12.3867 7.46484 14.8016 7.46484 18.5391C7.46484 20.8287 8.36095 23.5057 9.92578 25.2796V27.4221L4.74223 28.718C1.99434 29.4049 0 31.9496 0 34.7687V42H27.1523V34.7687ZM13.6172 14.8477C14.9958 14.8477 17.3086 15.3272 17.3086 18.5391C17.3086 20.9509 15.6982 24.6914 13.6172 24.6914C11.516 24.6914 9.92578 20.9116 9.92578 18.5391C9.92578 15.3272 12.2386 14.8477 13.6172 14.8477ZM10.6466 39.5391H7.46484V37.0781H5.00391V39.5391H2.46094V34.7687C2.46094 33.0905 3.69821 31.5157 5.33909 31.1054L10.7788 29.7455L12.2114 31.1781L9.75048 38.643L10.6466 39.5391ZM13.6172 39.0294L12.5621 37.9743L13.6172 34.7738L14.6723 37.9743L13.6172 39.0294ZM14.8477 27.8732L13.6172 29.1036L12.3867 27.8732V26.9638C12.788 27.0883 13.1996 27.1523 13.6172 27.1523C14.0348 27.1523 14.4464 27.0882 14.8477 26.9638V27.8732ZM24.6914 39.5391H22.2305V37.0781H19.7695V39.5391H16.5878L17.484 38.6429L15.023 31.178L16.4556 29.7454L21.8954 31.1053C23.5155 31.5105 24.6914 33.0511 24.6914 34.7687V39.5391Z" fill="url(#paint1_linear)"/>
<path d="M35.8477 0H25.9219C22.521 0 19.7695 2.83295 19.7695 6.23437V11.1562C19.7695 14.1273 21.8867 16.6133 24.6914 17.185V20.53L31.1342 17.3086H35.8477C39.2401 17.3086 42 14.5487 42 11.1562V6.23437C42 2.83352 39.2491 0 35.8477 0V0ZM39.5391 11.1562C39.5391 13.1917 37.8831 14.8477 35.8477 14.8477H30.5533L27.1523 16.5481V14.8477H25.9219C23.8864 14.8477 22.2305 13.1917 22.2305 11.1562V6.23437C22.2305 4.18893 23.9209 2.46094 25.9219 2.46094H35.8477C37.8486 2.46094 39.5391 4.18893 39.5391 6.23437V11.1562Z" fill="url(#paint2_linear)"/>
<defs>
<linearGradient id="paint0_linear" x1="30.8437" y1="5.36426" x2="30.8437" y2="12.8964" gradientUnits="userSpaceOnUse">
<stop stop-color="#008ADB"/>
<stop offset="1" stop-color="#00A8B3"/>
</linearGradient>
<linearGradient id="paint1_linear" x1="13.5762" y1="12.3867" x2="13.5762" y2="42" gradientUnits="userSpaceOnUse">
<stop stop-color="#008ADB"/>
<stop offset="1" stop-color="#00A8B3"/>
</linearGradient>
<linearGradient id="paint2_linear" x1="30.8848" y1="0" x2="30.8848" y2="20.53" gradientUnits="userSpaceOnUse">
<stop stop-color="#008ADB"/>
<stop offset="1" stop-color="#00A8B3"/>
</linearGradient>
</defs>
</svg>
